<?xml version="1.0" standalone="no"?>
<!DOCTYPE svg PUBLIC "-//W3C//DTD SVG 1.1//EN" "http://www.w3.org/Graphics/SVG/1.1/DTD/svg11.dtd" >
<svg>
<metadata>
Created by FontForge 20090622 at Fri Mar 11 14:05:15 2016
 By deploy user
Converted by ALLTYPE
</metadata>
<defs>
<font id="Baskerville-Normal" horiz-adv-x="278" >
  <font-face 
    font-family="Baskerville-Normal"
    font-weight="5"
    font-stretch="normal"
    units-per-em="1000"
    panose-1="0 0 0 0 0 0 0 0 0 0"
    ascent="800"
    descent="-200"
    x-height="415"
    cap-height="667"
    bbox="-188 -275 965 874"
    underline-thickness="50"
    underline-position="-55"
    unicode-range="U+0020-U+F002"
  />
<missing-glyph 
 />
    <glyph glyph-name=".notdef" 
 />
    <glyph glyph-name="glyph1" horiz-adv-x="0" 
 />
    <glyph glyph-name="glyph2" 
 />
    <glyph glyph-name="space" unicode=" " 
 />
    <glyph glyph-name="space" unicode="&#xa0;" 
 />
    <glyph glyph-name="exclam" unicode="!" horiz-adv-x="247" 
d="M124 -13q-23 0 -39.5 16t-16.5 39t16.5 39.5t39.5 16.5t39 -16.5t16 -39.5t-16 -39t-39 -16v0zM142 226h-36q0 12 -1 24.5t-3 24.5q-3 26 -7 52l-8 52q-8 43 -14 84.5t-6 81.5q0 10 1 27.5t4 36.5q5 28 16.5 51t34.5 23q25 0 37 -24.5t17 -53.5q2 -17 3 -33t1 -27
q0 -39 -6 -81t-14 -85q-3 -21 -6.5 -42t-6.5 -43q-2 -17 -3.5 -34.5t-2.5 -34.5v1z" />
    <glyph glyph-name="quotedbl" unicode="&#x22;" horiz-adv-x="355" 
d="M115 399h-40l-25 268h91l-26 -268v0zM279 399h-40l-25 268h91l-26 -268v0z" />
    <glyph glyph-name="numbersign" unicode="#" horiz-adv-x="589" 
d="M392 229l-47 -229h-43l47 229h-146l-47 -229h-43l47 229h-116l7 39h119l27 144h-116l7 39h119l44 216h43l-44 -216h145l45 216h43l-44 -216h109l-6 -39h-113l-27 -144h110l-7 -39h-113v0zM359 268l27 144h-146l-27 -144h146v0z" />
    <glyph glyph-name="dollar" unicode="$" horiz-adv-x="467" 
d="M262 639v-253q1 -1 2 -1.5l3 -1.5q1 -1 2 -1.5t2 -0.5q3 -1 5.5 -2.5t4.5 -2.5l3 -1.5l3 -1.5q61 -30 112.5 -69t51.5 -119q0 -74 -57.5 -129.5t-131.5 -55.5v-108h-37v108h-8h-9q-39 5 -76.5 22.5t-65.5 44.5l-7 7l-8 8q-11 12 -20.5 27t-9.5 31q0 17 12.5 29t28.5 12
q15 0 25 -10.5t19 -26.5q5 -9 9.5 -18t10.5 -19q14 -24 36.5 -45t62.5 -27v266q-8 3 -16.5 7.5t-17.5 8.5q-3 2 -6.5 3.5t-6.5 2.5q-53 26 -94.5 58.5t-41.5 104.5q0 86 50 133.5t133 51.5v101h37v-100q39 -6 74.5 -20.5t63.5 -44.5l1.5 -1.5l1.5 -1.5q12 -14 22 -32t10 -37
q0 -17 -9.5 -29.5t-27.5 -12.5q-17 0 -24.5 12t-13.5 30l-4.5 15.5t-5.5 16.5q-9 23 -28 43.5t-60 27.5v1zM262 36q47 4 84.5 38.5t37.5 83.5q0 42 -27.5 65.5t-61.5 41.5q-3 2 -7 4l-8 4l-9 4.5t-9 5.5v-247v0zM225 639q-2 -1 -4 -1t-4 -1q-42 -3 -77.5 -30t-35.5 -74
q0 -46 30.5 -74t66.5 -47l12 -6l12 -6v239v0z" />
    <glyph glyph-name="percent" unicode="%" horiz-adv-x="543" 
d="M415 -5q-47 0 -73.5 35.5t-35.5 78.5q-3 14 -4.5 27.5t-1.5 26.5t1.5 26.5t4.5 27.5q9 43 35.5 79t73.5 36q49 0 75 -36.5t35 -80.5q2 -13 3.5 -26.5t1.5 -25.5t-1.5 -25.5t-3.5 -26.5q-9 -44 -35 -80t-75 -36v0zM415 13q26 -1 38.5 24.5t18.5 55.5q3 21 4 40.5t1 30.5
t-1 30.5t-4 40.5q-6 30 -18.5 55.5t-38.5 25.5t-38.5 -25.5t-18.5 -55.5q-3 -21 -4 -40.5t-1 -30.5t1 -30.5t4 -40.5q6 -30 18.5 -55.5t38.5 -25.5v1zM474 667l-369 -667h-35l369 667h35v0zM129 327q-49 -1 -75 35.5t-35 80.5q-2 13 -3.5 26.5t-1.5 25.5t1.5 25.5t3.5 26.5
q9 44 35 80.5t75 36.5q47 0 73.5 -36t35.5 -79q3 -14 4.5 -27.5t1.5 -26.5t-1.5 -26.5t-4.5 -27.5q-9 -43 -35.5 -79t-73.5 -36v1zM129 345q26 -1 38.5 24.5t18.5 55.5q3 21 4 40.5t1 30.5t-1 30.5t-4 40.5q-6 30 -18.5 55.5t-38.5 25.5t-39 -25.5t-18 -55.5
q-4 -21 -5 -40.5t-1 -30.5t1 -30.5t5 -40.5q5 -30 18 -55.5t39 -25.5v1z" />
    <glyph glyph-name="ampersand" unicode="&#x26;" horiz-adv-x="640" 
d="M373 395h207v-26q-49 -12 -73 -48t-44 -78q-2 -4 -3.5 -7.5t-3.5 -7.5q-10 -22 -21.5 -43.5t-26.5 -39.5l12.5 -16.5t14.5 -16.5q22 -26 50 -47t59 -21h3.5h2.5q22 2 42 14.5t33 29.5l20 -25q-16 -29 -46 -49t-63 -24q-3 -1 -6.5 -1h-7.5q-55 0 -93.5 24.5t-71.5 65.5
q-3 -4 -6.5 -7.5l-6.5 -6.5q-35 -35 -73 -55.5t-92 -20.5q-67 0 -118.5 51t-55.5 118q0 74 46 125t107 85q-1 2 -2.5 4t-2.5 4q-1 1 -1 1.5t-1 1.5q-20 31 -36.5 64.5t-16.5 72.5q0 48 36 77t80 35q6 1 12.5 1.5t12.5 0.5q9 0 18.5 -1t18.5 -3q36 -8 66.5 -32t30.5 -63
q0 -49 -31.5 -80t-69.5 -55q-7 -5 -14.5 -9.5l-14.5 -8.5q15 -20 29 -41t29 -41q1 -2 2 -3.5t2 -2.5l41 -59l42 -58q18 21 33.5 49t22.5 57q3 10 4 19t1 18q0 31 -23.5 41.5t-52.5 10.5v27v0zM175 343q-36 -27 -62.5 -58t-26.5 -80v-3.5v-2.5q3 -53 41 -98.5t93 -50.5
q35 0 65.5 13t53.5 39l-56.5 79l-53.5 81q-4 5 -7 10t-7 10l-20 30l-20 30v1zM225 405q3 1 7 3.5l7 4.5q28 18 51 44.5t23 61.5q0 32 -22.5 53.5t-53.5 21.5q-28 0 -50.5 -18.5t-22.5 -48.5q0 -24 11 -44.5t25 -39.5q1 -1 2 -2.5t2 -3.5l11.5 -16t9.5 -17v1z" />
    <glyph glyph-name="quotesingle" unicode="'" horiz-adv-x="202" 
d="M122 399h-43l-25 268h94l-26 -268v0z" />
    <glyph glyph-name="parenleft" unicode="(" horiz-adv-x="295" 
d="M213 -275q-50 76 -81 165t-44 180q-5 32 -7 63t-2 62t2 62t7 63q13 92 44 181t81 165l71 1q-63 -92 -97 -199.5t-41 -217.5q-1 -14 -1.5 -27.5t-0.5 -27.5t0.5 -27.5t1.5 -27.5q7 -110 41 -217t97 -198h-71v0z" />
    <glyph glyph-name="parenright" unicode=")" horiz-adv-x="295" 
d="M82 -275h-71q63 91 97 198t41 217q1 14 1.5 27.5t0.5 27.5t-0.5 27.5t-1.5 27.5q-7 110 -41 217.5t-97 198.5l71 1q50 -77 81 -166t44 -181q5 -32 7 -63t2 -62t-2 -62t-7 -63q-13 -91 -44 -180t-81 -165v0z" />
    <glyph glyph-name="asterisk" unicode="*" horiz-adv-x="467" 
d="M252 529q13 3 25 11.5l24 17.5q17 12 34 22.5t37 10.5q15 0 25 -11.5t12 -25.5q1 -2 1 -4.5v-4.5q0 -21 -15.5 -29.5t-33.5 -10.5q-7 -1 -14 -1.5t-13 -0.5l-25 1q-4 -1 -9 -1.5t-10 -1.5q-7 0 -14 -1.5t-13 -4.5q7 -10 17.5 -18.5t22.5 -16.5q1 -1 2.5 -2t2.5 -2
q19 -13 35 -27.5t18 -35.5q0 -18 -13.5 -31.5t-31.5 -13.5q-21 0 -33.5 21t-21.5 46l-5.5 14.5t-4.5 13.5q-4 10 -8 18.5t-8 13.5q-6 -7 -10.5 -18t-8.5 -23q-2 -5 -3.5 -9.5t-2.5 -8.5q-9 -26 -21 -47t-35 -21h-1.5h-1.5q-16 1 -29 13.5t-13 28.5q0 19 16 35t36 30l9.5 7.5
t9.5 6.5l15.5 13.5t11.5 13.5q-6 2 -13 3.5t-14 2.5q-5 0 -9.5 0.5t-9.5 0.5l-25 1q-6 -1 -13 -0.5t-14 1.5q-18 2 -32.5 9.5t-16.5 26.5q0 3 0.5 6t0.5 6q3 14 11.5 26t24.5 12q19 0 35.5 -10t32.5 -23l26 -17.5t27 -12.5q0 15 -3.5 30t-8.5 29l-8 29t-4 30q0 20 12 30.5
t28 10.5q18 0 30 -11t12 -30q0 -15 -3.5 -30t-8.5 -29l-8 -29t-4 -30v1z" />
    <glyph glyph-name="plus" unicode="+" horiz-adv-x="500" 
d="M20 370h204v194h51v-194h205v-50h-205v-194h-51v194h-204v50v0z" />
    <glyph glyph-name="comma" unicode="," horiz-adv-x="237" 
d="M56 -173v17q30 22 54.5 50.5t24.5 68.5q0 10 -2 19t-6 18q-7 -2 -14 -2.5t-15 -0.5q-22 0 -37.5 16t-15.5 38q0 23 17 39.5t39 16.5q36 0 58 -28t27 -61q1 -5 1.5 -10t0.5 -9q0 -59 -38 -107.5t-94 -64.5v0z" />
    <glyph glyph-name="hyphen" unicode="-" horiz-adv-x="213" 
d="M213 241v-49h-213v49h213v0z" />
    <glyph glyph-name="period" unicode="." horiz-adv-x="237" 
d="M119 -13q-23 0 -39.5 16t-16.5 39t16.5 39.5t39.5 16.5t39 -16.5t16 -39.5t-16 -39t-39 -16v0z" />
    <glyph glyph-name="slash" unicode="/" horiz-adv-x="230" 
d="M305 667l-333 -942h-49l333 942h49v0z" />
    <glyph glyph-name="zero" unicode="0" horiz-adv-x="467" 
d="M233 -11q-55 0 -95.5 32t-66.5 78q-30 52 -40.5 110t-10.5 117q0 27 3 58t10 63q18 81 65.5 149t134.5 68q88 0 135.5 -68.5t65.5 -150.5q7 -31 10 -61.5t3 -57.5t-3 -57.5t-10 -61.5q-18 -82 -65 -150t-136 -68v0zM233 14q51 -1 76.5 51.5t36.5 114.5q7 45 9 85.5
t2 62.5t-2 62.5t-9 85.5q-11 62 -36.5 114.5t-76.5 52.5t-76.5 -52.5t-36.5 -114.5q-7 -45 -9 -85.5t-2 -62.5t2 -62.5t9 -85.5q11 -62 36.5 -114.5t76.5 -52.5v1z" />
    <glyph glyph-name="one" unicode="1" horiz-adv-x="467" 
d="M194 568h-83v29q49 2 74 13.5t45 25.5l19.5 12t21.5 11l0.5 0.5l0.5 0.5h0.5h0.5q2 0 3 -1.5t1 -3.5v-544q0 -50 22 -67.5t68 -17.5v-26h-267v27q50 -1 72 14.5t22 68.5v458v0z" />
    <glyph glyph-name="two" unicode="2" horiz-adv-x="467" 
d="M447 150l-38 -150h-388l9 41l39 32t40 36q87 80 159.5 181.5t72.5 216.5q0 52 -34 93.5t-89 41.5q-52 0 -89.5 -35t-37.5 -88q0 -5 0.5 -10.5t1.5 -10.5q5 -25 20 -46t38 -30q-3 -9 -11.5 -14.5t-18.5 -8.5q-4 -1 -7.5 -1.5t-7.5 -0.5q-27 0 -42.5 21t-20.5 47
q-2 8 -3 16.5t-1 15.5q0 77 55.5 122t128.5 45q83 0 142.5 -52t59.5 -137q0 -101 -67 -183.5t-148 -147.5l-48 -37l-46 -35l237 1q28 -1 40.5 16.5t21.5 38.5q0 1 0.5 2.5t1.5 2.5q1 4 3 8l4 8l23 1v0z" />
    <glyph glyph-name="three" unicode="3" horiz-adv-x="467" 
d="M107 189q-6 -14 -9.5 -28.5t-3.5 -29.5q0 -48 38 -80.5t84 -32.5q67 0 98.5 48t31.5 109q0 11 -1 22.5t-3 22.5q-7 40 -28.5 73.5t-65.5 36.5q-10 0 -18.5 -4.5t-16.5 -9.5q-8 -6 -16.5 -10.5t-18.5 -4.5q-14 0 -25.5 10t-12.5 24q0 15 11.5 20.5t25.5 7.5q7 1 13.5 1
h11.5h12.5t12.5 -1q6 0 12.5 -1l12.5 -2q41 17 60.5 54t19.5 79v10t-1 10q-4 49 -32 90.5t-83 41.5q-34 0 -61 -21.5t-27 -57.5q0 -21 8 -38.5t22 -33.5q-4 -3 -10 -4.5t-12 -2.5q-2 -1 -5 -1h-6q-25 2 -41 20t-16 42q0 46 35 73t77 37q12 3 24.5 4.5t23.5 1.5h4h4
q67 -3 122 -47.5t55 -115.5q0 -56 -31.5 -97t-87.5 -52q60 -12 101 -61t41 -111q0 -94 -70.5 -142.5t-157.5 -48.5q-12 0 -24 1t-24 4q-48 8 -88 37t-40 83q0 33 22 53.5t53 20.5v1z" />
    <glyph glyph-name="four" unicode="4" horiz-adv-x="467" 
d="M457 249l-25 -86h-99v-70q0 -41 17.5 -54t53.5 -13v-26h-226v27q38 -1 56 12t18 53v71h-242l308 491q1 0 1.5 0.5t0.5 1.5h0.5h0.5q1 2 2.5 3.5t3.5 1.5t3.5 -1.5t2.5 -3.5v-1.5v-1.5v-454q37 -1 56.5 3.5t35.5 31.5q2 3 3.5 6.5t3.5 7.5l25 1v0zM252 199v165v142
l-186 -307h186v0z" />
    <glyph glyph-name="five" unicode="5" horiz-adv-x="467" 
d="M171 572l-21 -194q19 17 43.5 25t49.5 10h4.5h5.5q74 0 125 -55t51 -127q0 -105 -74 -173.5t-177 -68.5q-11 0 -22.5 1.5t-23.5 4.5q-42 9 -77 37t-35 74v4.5t1 5.5q2 16 12 30.5t29 15.5q24 0 31 -18t11 -42q0 -4 0.5 -7.5t1.5 -6.5q4 -28 18 -51.5t57 -23.5
q65 0 101 48t48 106q4 16 5.5 32t1.5 31q0 8 -0.5 15.5t-1.5 15.5q-4 46 -28.5 84.5t-79.5 38.5q-6 0 -12 -1t-12 -3q-20 -7 -37 -23t-17 -37q0 -9 -7.5 -16t-17.5 -7q-5 0 -9 4.5t-4 9.5v2l39 341q28 -3 56 -4.5t56 -2.5t56 -1.5t56 -0.5q15 0 26.5 5.5t21.5 15.5l26 1
q-5 -8 -10 -14.5l-10 -13.5q-24 -30 -51.5 -51t-73.5 -21q-20 0 -39.5 0.5t-39.5 1.5q-13 1 -26.5 1.5t-26.5 0.5v1z" />
    <glyph glyph-name="six" unicode="6" horiz-adv-x="467" 
d="M123 378q26 26 59 37t69 11q87 0 137.5 -66t50.5 -147q0 -87 -52 -155.5t-147 -68.5q-105 0 -154.5 76t-56.5 168q0 9 -0.5 17.5t-0.5 17.5q0 23 2 46.5t6 46.5q19 114 87 208.5t195 94.5q9 0 19 -1t21 -3q24 -5 44.5 -18.5t20.5 -39.5q0 -14 -9.5 -25t-24.5 -11
t-24.5 9.5t-18.5 22.5q-1 2 -2 3.5t-3 3.5q-9 14 -21 26t-32 13q-58 0 -94 -50.5t-53 -110.5q-8 -29 -12.5 -56.5t-5.5 -49.5v1zM355 214q0 14 -1 30.5t-4 33.5q-9 48 -34.5 88t-79.5 40q-53 0 -79.5 -38.5t-35.5 -84.5q-3 -14 -4 -27.5t-1 -26.5q0 -18 1.5 -39t5.5 -42
q9 -50 35 -92t80 -42q53 0 78 40t33 87q3 19 4.5 37.5t1.5 34.5v1z" />
    <glyph glyph-name="seven" unicode="7" horiz-adv-x="467" 
d="M429 640l-240 -592q-1 -3 -1.5 -5t-1.5 -3q-8 -20 -20 -35.5t-36 -15.5q-20 0 -31.5 10t-11.5 30q0 10 4 19.5l8 18.5l2 4l2 4l275 493h-204q-43 -1 -71 -25t-37 -66l-28 1l28 189h23q0 -17 11.5 -22.5t25.5 -5.5l303 1v0z" />
    <glyph glyph-name="eight" unicode="8" horiz-adv-x="467" 
d="M342 356q55 -22 87.5 -69.5t32.5 -106.5q0 -92 -70.5 -141t-155.5 -50h-1.5h-1.5q-82 0 -148 51.5t-66 136.5q0 56 34.5 99.5t83.5 65.5q-49 21 -75.5 58t-26.5 91q0 75 58 121t128 51q4 1 8 1h8q6 0 11.5 -0.5t11.5 -0.5q69 -6 126.5 -48.5t57.5 -120.5q0 -49 -29 -84
t-73 -55v1zM190 325q-43 -24 -65.5 -57t-22.5 -84v-4v-4q2 -60 35 -109.5t99 -49.5q67 0 103.5 49t36.5 111q0 42 -25.5 72t-63.5 43l-97 33v0zM289 374q39 16 57.5 48t18.5 74q0 57 -33 101t-94 44q-55 0 -90 -38t-35 -92q0 -41 20 -65.5t57 -37.5l99 -34v0z" />
    <glyph glyph-name="nine" unicode="9" horiz-adv-x="467" 
d="M345 274q-21 -23 -48.5 -34.5t-56.5 -13.5q-4 -1 -8 -1h-8q-85 0 -140.5 60t-55.5 143v8t1 8q5 83 61 151.5t144 68.5q94 0 143 -69.5t62 -152.5q3 -19 4.5 -37t1.5 -36q0 -24 -2.5 -48.5t-7.5 -49.5q-20 -106 -86.5 -194t-184.5 -88q-10 0 -21.5 1.5t-23.5 3.5
q-36 8 -66 31t-30 62q0 19 10.5 33t30.5 14q14 0 22 -11.5t14 -27.5l4 -10l4 -10q9 -22 25 -40.5t51 -18.5q58 0 94 49t52 107q8 28 11.5 54t3.5 47v1zM352 430q0 17 -2 40t-6 47q-10 48 -34.5 88t-73.5 40q-53 0 -78.5 -40t-34.5 -88q-4 -19 -5.5 -38t-1.5 -35t1.5 -35
t4.5 -38q8 -47 33 -86.5t77 -39.5q55 0 81 39.5t34 87.5q3 14 4 29t1 28v1z" />
    <glyph glyph-name="colon" unicode=":" horiz-adv-x="237" 
d="M119 -13q-23 0 -39.5 16t-16.5 39t16.5 39.5t39.5 16.5t39 -16.5t16 -39.5t-16 -39t-39 -16v0zM119 315q-23 -1 -39.5 15.5t-16.5 39.5t16.5 39.5t39.5 16.5t39 -16.5t16 -39.5t-16 -39.5t-39 -16.5v1z" />
    <glyph glyph-name="semicolon" unicode=";" horiz-adv-x="237" 
d="M56 -173v17q30 22 54.5 50.5t24.5 68.5q0 10 -2 19t-6 18q-7 -2 -14 -2.5t-15 -0.5q-22 0 -37.5 16t-15.5 38q0 23 17 39.5t39 16.5q36 0 58 -28t27 -61q1 -5 1.5 -10t0.5 -9q0 -59 -38 -107.5t-94 -64.5v0zM117 315q-23 -1 -39.5 15.5t-16.5 39.5t16.5 39t39.5 16
t39 -16t16 -39t-16 -39.5t-39 -16.5v1z" />
    <glyph glyph-name="less" unicode="&#x3c;" horiz-adv-x="500" 
d="M458 618v-43l-300 -194l300 -201v-114l-416 279v7l416 266v0z" />
    <glyph glyph-name="equal" unicode="=" horiz-adv-x="500" 
d="M20 297h460v-48h-460v48v0zM20 440h460v-48h-460v48v0z" />
    <glyph glyph-name="greater" unicode="&#x3e;" horiz-adv-x="500" 
d="M42 66v43l300 194l-300 201v114l416 -280v-6l-416 -266v0z" />
    <glyph glyph-name="question" unicode="?" horiz-adv-x="412" 
d="M180 -13q-23 0 -39.5 16t-16.5 39t16.5 39.5t39.5 16.5t39 -16.5t16 -39.5t-16 -39t-39 -16v0zM196 226h-34v204h19q10 -14 21.5 -24.5t29.5 -10.5q25 0 39 21.5t20 47.5q3 15 4.5 29t1.5 24q0 9 -1 19.5t-3 20.5q-6 36 -26 65.5t-61 29.5q-24 0 -35 -11t-19 -24l-2 -4
l-2 -4q-5 -11 -12 -18.5t-19 -8.5q-13 0 -22.5 8.5t-9.5 21.5q0 27 22.5 42.5t50.5 21.5q13 4 26 5.5t23 1.5q71 0 119.5 -52t48.5 -122q0 -8 -1 -16.5t-3 -16.5q-9 -44 -40.5 -80.5t-78.5 -36.5q-15 0 -29 4t-27 13v-150v0z" />
    <glyph glyph-name="at" unicode="@" horiz-adv-x="776" 
d="M610 116l31 -10q-54 -55 -123.5 -87.5t-146.5 -32.5q-133 0 -223 100t-90 229q0 163 115 264.5t272 101.5q114 0 199.5 -71.5t85.5 -190.5v-4.5v-4.5q-2 -61 -24 -119.5t-68 -100.5q-22 -22 -51 -37t-61 -15q-31 0 -46.5 22.5t-19.5 49.5q0 5 -0.5 9.5t-0.5 9.5
q-1 -1 -2 -2.5t-2 -3.5q-22 -33 -55.5 -60.5t-75.5 -27.5q-41 0 -63.5 30.5t-28.5 67.5q-1 7 -1.5 13.5t-0.5 12.5q0 21 4.5 45t12.5 48q22 64 68.5 117.5t109.5 53.5q29 0 51.5 -15t37.5 -38l8 42q14 0 28.5 1.5t27.5 3.5l-60 -236q-1 -3 -1.5 -5t-0.5 -4q-2 -7 -3.5 -13.5
t-2.5 -13.5l-2 -14t-1 -13v-5.5t1 -4.5q1 -14 8.5 -25.5t23.5 -11.5q24 0 45.5 15t37.5 33q1 1 2.5 3t3.5 4q33 40 49 88t16 100q0 104 -74 168.5t-175 64.5q-70 0 -135.5 -24.5t-113.5 -76.5q-24 -25 -44.5 -64t-33.5 -80q-7 -25 -11.5 -49t-4.5 -45q0 -117 84 -202.5
t201 -85.5q65 0 119.5 28t103.5 67v1zM474 353l20 63q1 2 1.5 5.5t0.5 7.5q0 25 -15 45.5t-42 20.5q-47 0 -80.5 -46t-52.5 -101q-10 -30 -15 -58.5t-5 -49.5q0 -4 0.5 -8t0.5 -9q3 -21 16 -39t37 -18q35 0 62.5 31t44.5 68q8 18 14 35.5t9 31.5l2 10.5t2 9.5v1z" />
    <glyph glyph-name="A" unicode="A" horiz-adv-x="723" 
d="M382 678l252 -581q14 -34 35 -50t58 -17v-30h-275v31h22q5 -1 10.5 -1t11.5 1q13 2 24.5 8.5t11.5 21.5q0 9 -2.5 18t-6.5 17l-54 130h-266l-52 -129q-3 -8 -5 -14.5t-2 -13.5q0 -21 14.5 -29t31.5 -9q4 -1 8 -1h8l21 1v-31h-230v31q43 0 67.5 12.5t40.5 52.5l240 582h37
v0zM450 268l-87 212q-1 3 -3 7t-3 8l-12 32t-10 32q-1 -3 -2 -6.5t-2 -6.5l-2 -6l-2 -6l-108 -266h231v0z" />
    <glyph glyph-name="B" unicode="B" horiz-adv-x="596" 
d="M337 361q80 -4 147 -47.5t67 -132.5q0 -85 -58 -133t-139 -48h-340v31q1 -1 1.5 -1h1.5q48 2 72.5 13.5t24.5 66.5v446q0 54 -25 65.5t-72 13.5h-1.5h-1.5v32h323q68 -1 123 -37t55 -111q0 -79 -54.5 -114t-123.5 -45v1zM214 341v-230q0 -49 27 -62.5t70 -13.5
q72 0 99.5 47.5t27.5 111.5q0 110 -69 128t-155 18v1zM214 373q77 -1 134.5 17t57.5 113q0 61 -23.5 95.5t-88.5 34.5l-80 1v-261v0z" />
    <glyph glyph-name="C" unicode="C" horiz-adv-x="698" 
d="M654 666l9 -241h-31q-23 93 -79.5 157.5t-161.5 64.5q-107 0 -159.5 -77.5t-63.5 -170.5q-2 -15 -3 -29.5t-1 -29.5q0 -116 57.5 -212.5t189.5 -96.5h6.5h6.5q73 5 138 50.5t92 112.5l36 -26q-38 -86 -119 -134t-172 -52h-6.5h-7.5q-149 0 -242.5 97t-93.5 245
q0 146 93.5 252t244.5 106q59 0 113.5 -17.5t103.5 -50.5q5 8 9 16.5t7 17.5q1 4 3 8.5t3 8.5l28 1v0z" />
    <glyph glyph-name="D" unicode="D" horiz-adv-x="731" 
d="M13 636v31q17 -1 33.5 -1h33.5q17 -1 34 -1h33h33.5t33.5 1h33h33h34.5t34.5 -1q30 -1 58.5 -5.5t56.5 -13.5q105 -37 162.5 -123t57.5 -196q0 -148 -92 -237.5t-240 -89.5h-339v31q1 -1 1.5 -1h1.5q48 2 72.5 13.5t24.5 66.5v446q0 54 -25 65.5t-72 13.5h-1.5h-1.5v1z
M213 632v-487q0 -75 24 -93t94 -18q132 0 183.5 89.5t51.5 205.5q0 143 -67.5 224t-214.5 81h-18t-17 -1q-9 0 -18 -0.5t-18 -1.5v1z" />
    <glyph glyph-name="E" unicode="E" horiz-adv-x="584" 
d="M506 667l18 -163h-31q-13 55 -42.5 91.5t-91.5 36.5l-145 1v-262h63q47 -1 69 22.5t24 69.5l31 1v-226h-31v0.5v1.5q-7 46 -22 70.5t-71 24.5l-63 1v-214q0 -53 28.5 -71t76.5 -18q62 0 112 11.5t84 70.5q9 17 17 36t12 38q1 4 1.5 8t0.5 8l29 1l-13 -206h-548v31
q1 -1 1.5 -1h1.5q48 2 72.5 13.5t24.5 66.5v446q0 54 -25 65.5t-72 13.5h-1.5h-1.5v32h492v0z" />
    <glyph glyph-name="F" unicode="F" horiz-adv-x="516" 
d="M396 463v-227h-31q0 43 -17.5 71t-67.5 28l-69 1v-225q0 -57 24.5 -68t70.5 -13h2.5h2.5v-30h-298v31q1 -1 1.5 -1h1.5q48 2 72.5 13.5t24.5 66.5v446q0 54 -25 65.5t-72 13.5h-1.5h-1.5v32h489l18 -162h-30q-16 52 -43.5 90t-90.5 38l-145 1v-264h74q44 -1 62 25.5
t18 66.5l31 1v0z" />
    <glyph glyph-name="G" unicode="G" horiz-adv-x="750" 
d="M446 290h290v-31h-15q-32 -1 -52.5 -15t-20.5 -49v-147q-31 -5 -59.5 -13.5t-57.5 -18.5l-1 -0.5t-2 -0.5q-37 -13 -75 -22.5t-79 -9.5q-141 0 -234 94t-93 234q0 149 93.5 260t249.5 111q12 0 24.5 -1t24.5 -3q41 -5 81 -20.5t72 -40.5q8 11 13 23t9 25l28 1l6 -227h-34
q-13 85 -71 148.5t-150 63.5q-119 0 -168.5 -83.5t-58.5 -184.5q-2 -15 -2.5 -31t-0.5 -31q0 -16 1 -32t4 -32q12 -88 63.5 -162t152.5 -74q14 0 32 3t38 9q35 10 64.5 28.5t29.5 42.5v92q0 38 -20.5 50t-57.5 12l-24 1v31v0z" />
    <glyph glyph-name="H" unicode="H" horiz-adv-x="758" 
d="M545 331h-332v-220q0 -57 24.5 -68t70.5 -13h2.5h2.5v-30h-300v31q1 -1 1.5 -1h1.5q48 2 72.5 13.5t24.5 66.5v446q0 54 -25 65.5t-72 13.5h-1.5h-1.5v32h300v-31q-7 -1 -15 -1.5t-16 -1.5q-12 -1 -24 -4t-22 -8q-12 -6 -16.5 -18.5t-5.5 -25.5q-1 -6 -1 -11.5v-10.5
v-181h332v182q0 52 -25.5 64.5t-74.5 14.5v32h300v-31q-7 -1 -15 -1.5t-15 -1.5q-13 -1 -25 -3.5t-22 -8.5q-12 -6 -16.5 -18.5t-5.5 -25.5q-1 -6 -1 -11.5v-10.5v-444q0 -58 24.5 -68.5t65.5 -12.5h5h5v-30h-300v31q50 1 75 13t25 66v221v0z" />
    <glyph glyph-name="I" unicode="I" horiz-adv-x="327" 
d="M314 0h-300v31q1 -1 1.5 -1h1.5q48 2 72.5 13.5t24.5 66.5v446q0 54 -25 65.5t-72 13.5h-1.5h-1.5v32h300v-31q-7 -1 -15 -1.5t-16 -1.5q-12 -1 -24 -4t-22 -8q-12 -6 -16.5 -18.5t-5.5 -25.5q-1 -6 -1 -11.5v-10.5v-444q0 -57 24.5 -68t70.5 -13h2.5h2.5v-30v0z" />
    <glyph glyph-name="J" unicode="J" horiz-adv-x="318" 
d="M5 636v31h300v-31q-7 -1 -15 -1.5t-16 -1.5q-12 -1 -24 -4t-22 -8q-12 -7 -16.5 -19t-5.5 -26q-1 -5 -1 -10.5v-10.5v-549v-8v-7q-1 -43 -8 -85.5t-34 -78.5q-33 -46 -85.5 -71t-107.5 -25q-13 0 -29 1.5t-33 4.5q-36 8 -66 27t-30 57q0 21 16 36.5t37 15.5
q19 0 32.5 -14.5t13.5 -33.5q0 -8 -2 -14.5l-4 -13.5q0 -19 13 -25t29 -8h9.5h8.5q81 0 110.5 52t29.5 123v617q0 55 -26.5 66t-73.5 13v1z" />
    <glyph glyph-name="K" unicode="K" horiz-adv-x="696" 
d="M354 414l255 -334q20 -27 48 -38.5t61 -11.5v-30h-292v31q8 -1 16.5 -0.5t16.5 1.5h1.5h0.5q3 0 6.5 0.5t6.5 0.5q8 1 15 4.5t7 11.5q0 6 -3 12t-7 11q-1 2 -2.5 4t-2.5 3l-200 269l-68 -62v-175q0 -56 25.5 -67.5t71.5 -13.5h1.5h1.5v-30h-300v31q1 -1 1.5 -1h1.5
q48 2 72.5 13.5t24.5 66.5v446q0 54 -25 65.5t-72 13.5h-1.5h-1.5v32h300v-31q-7 -1 -14 -1.5t-14 -1.5q-13 -1 -25 -3.5t-23 -8.5q-12 -6 -17 -18.5t-6 -25.5q-1 -6 -1 -11.5v-10.5v-215l235 216q2 1 4.5 3.5t5.5 4.5q7 8 13.5 17t6.5 19q0 16 -13 23.5t-28 10.5
q-8 1 -15.5 1.5t-13.5 0.5v31h262v-30q-36 -1 -63.5 -11t-54.5 -31q-4 -3 -8.5 -7t-8.5 -8l-181 -166v0z" />
    <glyph glyph-name="L" unicode="L" horiz-adv-x="571" 
d="M574 206l-13 -206h-548v31q1 -1 1.5 -1h1.5q48 2 72.5 13.5t24.5 66.5v446q0 54 -25 65.5t-72 13.5h-1.5h-1.5v32h300v-31q-7 -1 -15 -1.5t-16 -1.5q-12 -1 -24 -4t-22 -8q-12 -6 -16.5 -18.5t-5.5 -25.5q-1 -6 -1 -11.5v-10.5v-433q0 -53 28.5 -71t76.5 -18
q62 0 112 11.5t84 70.5q9 17 17 36t12 38q1 4 1.5 8t0.5 8l29 1v0z" />
    <glyph glyph-name="M" unicode="M" horiz-adv-x="879" 
d="M426 0h-31l-197 474q-6 14 -11.5 28.5t-10.5 29.5q-1 3 -2.5 6t-2.5 6l-8 23.5t-9 23.5v-52v-358v-30q0 -55 14.5 -85.5t84.5 -35.5v-30h-239v31q54 1 77 25.5t23 77.5v23v385q0 61 -22 76t-78 17v32h208l152 -364q20 -43 35.5 -87t28.5 -88l2 6l2 6q1 2 2 5l2 6l213 516
h207v-31q-7 -1 -14 -1.5t-14 -1.5q-13 -1 -25 -3.5t-23 -8.5q-12 -6 -17 -18.5t-6 -25.5q-1 -6 -1 -11.5v-10.5v-444v-11.5t1 -10.5q0 -11 3.5 -21.5t10.5 -17.5t18 -11t23 -6q9 -2 18 -2.5t16 -0.5l10 1v-31h-300v31q64 2 82 19.5t18 77.5v337q0 16 0.5 33.5t1.5 35.5
q0 18 1.5 35.5t2.5 34.5q-4 -14 -8.5 -28t-9.5 -28q-3 -7 -5.5 -14t-5.5 -14l-217 -520v0z" />
    <glyph glyph-name="N" unicode="N" horiz-adv-x="725" 
d="M211 667l327 -451q8 -13 15 -26l14 -26q2 -4 4 -8.5t4 -8.5v17.5v16.5q-1 8 -1 16.5v17.5v321q0 58 -15.5 72t-41.5 19q-8 1 -16.5 3t-18.5 5v32h230v-31q-53 -2 -74.5 -25.5t-21.5 -75.5v-541h-42l-356 496q-18 23 -34 48t-31 51v-423q0 -62 14.5 -96.5t84.5 -39.5v-30
h-239v31q56 1 78 26t22 81v418q0 54 -25 65.5t-72 13.5h-1.5h-1.5v32h198v0z" />
    <glyph glyph-name="O" unicode="O" horiz-adv-x="802" 
d="M400 -17q-151 0 -252.5 98.5t-101.5 250.5q0 155 101 252.5t253 97.5q153 0 254 -97.5t101 -252.5q0 -153 -101.5 -251t-253.5 -98v0zM400 18q132 -1 184 92.5t55 205.5v8.5v8.5v9.5v9.5q-4 112 -55.5 205t-183.5 93q-131 0 -183 -93t-56 -205v-9.5v-9.5v-6v-5
q2 -115 53.5 -210t185.5 -95v1z" />
    <glyph glyph-name="P" unicode="P" horiz-adv-x="536" 
d="M213 317v-206q0 -57 24.5 -68t70.5 -13h2.5h2.5v-30h-300v31q1 -1 1.5 -1h1.5q48 2 72.5 13.5t24.5 66.5v446q0 54 -25 65.5t-72 13.5h-1.5h-1.5v32h235q14 -1 28.5 -1t28.5 -1q87 -2 159 -33t72 -143q0 -46 -21.5 -85.5t-62.5 -62.5q-23 -13 -49.5 -18t-52.5 -6
q-10 -1 -20 -1h-20l-97 1v0zM213 348h77q68 -1 103 39t35 106q0 80 -38 112.5t-115 32.5h-15.5t-15.5 -1q-8 0 -15.5 -0.5t-15.5 -0.5v-288v0z" />
    <glyph glyph-name="Q" unicode="Q" horiz-adv-x="801" 
d="M402 -15q-153 0 -254 96t-101 251t104 252.5t256 97.5t251 -97.5t99 -249.5q0 -111 -58.5 -200t-162.5 -130l-54 -21l-54 -21l-54 -21.5l-54 -21.5q8 1 15.5 1.5t15.5 0.5q7 1 15 1h15q68 0 123.5 -19.5t105.5 -43.5l36 -16l35 -16q32 -13 64 -21.5t66 -8.5q47 0 74 21.5
t43 62.5q2 3 3.5 5.5t4.5 3.5q5 0 7.5 -3.5t2.5 -7.5q0 -47 -40.5 -85t-89.5 -56q-18 -7 -35.5 -10.5t-32.5 -3.5q-58 0 -109.5 28t-102.5 61q-4 3 -8.5 6t-8.5 6q-46 30 -92.5 53.5t-97.5 23.5q-19 0 -35.5 -6t-29.5 -13t-23 -13t-16 -6q-9 0 -14 6.5t-7 14.5v3v2
q0 5 3.5 8t7.5 5l0.5 0.5t1.5 0.5q7 2 13.5 4.5t13.5 4.5q41 15 81 32.5t77 38.5v0zM641 346v0.5v1.5q-1 113 -52 207.5t-183 94.5q-141 0 -192 -98.5t-51 -220.5v-6v-5q2 -114 52.5 -208.5t184.5 -94.5q142 0 190.5 99t50.5 218v5v6v1z" />
    <glyph glyph-name="R" unicode="R" horiz-adv-x="675" 
d="M213 315v-204q0 -57 24.5 -68t70.5 -13h2.5h2.5v-30h-300v31q1 -1 1.5 -1h1.5q48 2 72.5 13.5t24.5 66.5v446q0 54 -25 65.5t-72 13.5h-1.5h-1.5v32h284q16 -1 33 -1.5t34 -2.5q31 -4 61 -13.5t54 -27.5q29 -22 46.5 -54t17.5 -70q0 -77 -57.5 -122.5t-130.5 -47.5
q60 -9 94 -40t63 -73l15 -23l17 -25l7.5 -11.5l7.5 -11.5q2 -4 4.5 -8t5.5 -7q23 -37 52 -68t77 -31v-30h-152q-32 26 -57.5 65t-49.5 81q-1 2 -2.5 4t-2.5 4l-40.5 67t-44.5 60q-16 18 -36.5 25.5t-43.5 7.5l-56 1v0zM213 348h87q72 -1 103 37t31 109q0 74 -40 107.5
t-109 33.5l-72 1v-288v0z" />
    <glyph glyph-name="S" unicode="S" horiz-adv-x="509" 
d="M434 674v-181h-30q-11 64 -51 111.5t-112 47.5q-42 0 -76.5 -25t-34.5 -69q0 -51 39.5 -81.5t93.5 -56.5l20 -10l20 -10q65 -32 119 -77.5t54 -132.5t-55 -147t-145 -60q-52 0 -98 19t-85 53q-7 -13 -12.5 -27.5t-9.5 -27.5h-31v210h31v-2.5v-1.5q10 -68 61 -125t124 -57
q56 0 101 29.5t45 92.5t-47.5 98t-108.5 64q-4 2 -9 4t-9 5q-66 31 -120.5 72.5t-54.5 122.5q0 78 56 124t130 46q41 0 79.5 -11.5t69.5 -37.5q5 7 9 14.5l8 15.5q1 2 2.5 4.5t2.5 5.5l24 1v0z" />
    <glyph glyph-name="T" unicode="T" horiz-adv-x="643" 
d="M470 0h-298v31q50 1 75 12.5t25 66.5v524h-112q-64 -1 -90.5 -38.5t-42.5 -91.5l-30 1l17 162h614l17 -162h-29q-17 52 -43.5 90t-90.5 38l-112 1v-523q0 -57 25 -68t70 -13h2.5h2.5v-30v0z" />
    <glyph glyph-name="U" unicode="U" horiz-adv-x="698" 
d="M444 666h241v-30q-1 -1 -2.5 -1h-3.5q-6 -1 -12 -1.5t-12 -1.5q-13 -1 -25 -4t-22 -9q-12 -7 -17 -19.5t-6 -26.5q-1 -6 -1 -12.5v-12.5v-321q0 -107 -41.5 -175.5t-163.5 -68.5q-139 0 -202.5 43.5t-63.5 195.5v333q0 55 -24.5 66.5t-72.5 13.5h-1.5h-1.5v31h300v-30
q-4 -1 -7.5 -1h-6.5h-2h-2q-31 -1 -56.5 -12.5t-25.5 -68.5v-319q0 -95 27 -156.5t139 -61.5q104 0 134.5 60t30.5 148v10v314q0 54 -25 68t-75 18v31v0z" />
    <glyph glyph-name="V" unicode="V" horiz-adv-x="723" 
d="M378 -11h-36l-253 580q-13 30 -35.5 48t-56.5 18l-1 32h275v-31h-22q-5 -1 -10.5 -1t-11.5 -1q-13 -2 -24.5 -8.5t-11.5 -21.5q0 -9 2.5 -18t6.5 -18l160 -381q8 -20 15 -39.5t13 -39.5l2 6l2 6q1 2 2 5l2 6l176 438q2 3 3 7l2 8q1 3 1.5 7t0.5 8q0 19 -13.5 26.5
t-30.5 8.5q-5 1 -10 1h-9l-20 1v31h230v-31l-9 -1q-40 -5 -61.5 -17t-37.5 -50l-240 -579v0z" />
    <glyph glyph-name="W" unicode="W" horiz-adv-x="946" 
d="M506 667l132 -384q10 -27 19 -54t16 -54l4 -18l4 -18q3 16 7 30.5l8 29.5q0 2 0.5 4t1.5 4q1 5 3 10.5t3 11.5l96 327q3 9 5.5 19t2.5 20q0 23 -18 30.5t-40 8.5q-5 0 -10.5 0.5t-10.5 0.5h-5h-4v32h229v-31q-38 -2 -65 -13.5t-39 -52.5l-171 -581h-36l-176 506
l-156 -506h-41l-177 582q-10 31 -34.5 47.5t-56.5 16.5l-1 32h269v-31h-15q-5 -1 -11.5 -1.5t-12.5 -1.5q-14 -3 -26 -10t-12 -22q0 -3 0.5 -5.5t1.5 -5.5q0 -2 0.5 -3.5t0.5 -2.5q1 -2 1.5 -3.5t0.5 -2.5l97 -341q5 -15 8.5 -29.5t6.5 -29.5l2 -10l2 -10q1 -4 2 -9l2 -10
l162 528h31v0z" />
    <glyph glyph-name="X" unicode="X" horiz-adv-x="710" 
d="M402 378l195 -290q21 -32 49 -44t64 -14v-30h-291v31h20q4 -1 9.5 -1t11.5 1q11 1 21 6t10 18q0 9 -4 17t-9 15l-140 208l-157 -207q-4 -6 -7.5 -12t-5.5 -13q0 -16 14 -22.5t31 -8.5q8 -1 15.5 -1.5t13.5 -0.5h3.5h2.5v-30h-248v31q3 -1 6.5 -1h6.5q35 2 68 15t55 42
l181 242l-174 251q-22 32 -48.5 43t-65.5 12v32h288v-31h-18q-4 -1 -10 -1t-12 -1q-11 -2 -19.5 -6.5t-8.5 -14.5q0 -7 3 -14t7 -14q1 -1 2 -2.5t2 -3.5l115 -167l128 168q5 5 8.5 12.5t3.5 15.5q0 14 -13 19.5t-29 6.5q-6 1 -11.5 1h-10.5l-15 1v31h246v-31
q-40 -4 -73.5 -13t-59.5 -44l-150 -201v0z" />
    <glyph glyph-name="Y" unicode="Y" horiz-adv-x="663" 
d="M381 297v-186q0 -56 27 -67.5t73 -13.5v-30h-298v31q50 1 75 12.5t25 66.5v187l-183 285q-19 30 -43.5 41t-58.5 12l-1 32h286v-31h-25q-4 -1 -9 -1t-10 -1q-11 -2 -20 -7t-9 -17q0 -6 2 -12.5t5 -11.5q0 -2 1 -3t1 -2l143 -245l149 246q1 0 1.5 1t0.5 2q3 5 5 10.5
t2 11.5q0 19 -27.5 23.5t-64.5 4.5v32h239v-31q-40 -3 -68.5 -16.5t-49.5 -48.5l-168 -274v0z" />
    <glyph glyph-name="Z" unicode="Z" horiz-adv-x="590" 
d="M548 178h32l-15 -178h-555v16l422 613h-216q-62 -1 -95.5 -36.5t-48.5 -91.5l-33 1l19 165h507v-14l-422 -615h247q72 -1 105.5 37t52.5 102v1z" />
    <glyph glyph-name="bracketleft" unicode="[" horiz-adv-x="275" 
d="M94 667h170v-33h-95v-876h95v-33h-170v942v0z" />
    <glyph glyph-name="backslash" unicode="\" horiz-adv-x="230" 
d="M-75 667h49l333 -942h-49l-333 942v0z" />
    <glyph glyph-name="bracketright" unicode="]" horiz-adv-x="275" 
d="M181 667v-942h-170v33h95v876h-95v33h170v0z" />
    <glyph glyph-name="asciicircum" unicode="^" horiz-adv-x="500" 
d="M526 284h-43l-194 300l-201 -300h-114l279 416h7l266 -416v0z" />
    <glyph glyph-name="underscore" unicode="_" horiz-adv-x="500" 
d="M20 -89h460v-49h-460v49v0z" />
    <glyph glyph-name="grave" unicode="`" horiz-adv-x="500" 
d="M291 608l52 -124q1 -2 1 -3.5v-2.5v0q0 -3 -2 -4.5t-5 -2.5h-2.5h-2.5q-3 1 -6 2.5t-6 2.5l-158 115q-2 1 -4 3t-2 5q0 4 2.5 5.5t5.5 2.5h2h2l123 1v0z" />
    <glyph glyph-name="a" unicode="a" horiz-adv-x="452" 
d="M436 88h30q-10 -39 -33 -69t-67 -30q-34 0 -55.5 18t-26.5 52q-23 -26 -57 -44.5t-69 -23.5q-5 0 -10 -0.5t-10 -0.5q-45 0 -71.5 28.5t-26.5 72.5q0 78 50 102.5t111 38.5l42.5 10.5t40.5 13.5v35q0 43 -12.5 73.5t-65.5 30.5q-33 0 -45.5 -15.5t-19.5 -33.5
q-1 -2 -1.5 -3.5t-0.5 -3.5q-6 -16 -15 -29.5t-33 -13.5q-3 0 -6 0.5t-5 0.5q-13 3 -23 11t-10 21q0 35 30 56.5t67 31.5q17 5 34 7t30 2q67 0 113 -26t46 -101v-219v-7t1 -6q1 -11 6 -21t19 -11q19 0 27.5 13t12.5 29q0 1 0.5 1.5t0.5 1.5q1 2 1.5 3.5t0.5 3.5v1zM284 228
q-9 -5 -19 -8.5t-21 -6.5q-6 -2 -11.5 -3.5t-11.5 -3.5q-36 -11 -65.5 -29t-32.5 -58q0 -31 19 -52t51 -21q26 0 49 12.5t42 28.5v141v0z" />
    <glyph glyph-name="b" unicode="b" horiz-adv-x="541" 
d="M164 367q24 28 58.5 43t72.5 16h3h4q96 0 147.5 -63.5t51.5 -154.5q0 -92 -57 -155.5t-152 -63.5q-40 0 -75.5 12.5t-68.5 33.5q-10 -8 -18 -19t-14 -22l-35 6v556q0 35 -14.5 56.5t-52.5 22.5v32q26 3 50.5 7t49.5 9q13 2 25.5 5l24.5 6v-327v0zM164 105q20 -35 51 -56
t71 -21q59 0 87.5 42t34.5 92q2 10 2.5 19.5t0.5 18.5q0 10 -0.5 21t-1.5 22q-5 51 -30.5 94.5t-87.5 43.5q-40 0 -75.5 -17t-51.5 -55v-204v0z" />
    <glyph glyph-name="c" unicode="c" horiz-adv-x="432" 
d="M382 108l30 -10q-19 -54 -59.5 -80.5t-96.5 -28.5q-91 0 -153.5 54.5t-62.5 149.5q0 94 54.5 163t154.5 69q12 0 28 -2t32 -7q31 -9 57 -26.5t26 -45.5q0 -16 -11 -27t-28 -11q-10 0 -18.5 3.5t-16.5 9.5q-3 35 -18 53.5t-53 18.5q-51 0 -76.5 -37.5t-33.5 -82.5
q-2 -13 -3 -25.5t-1 -24.5t1 -24.5t3 -25.5q9 -53 39.5 -97.5t90.5 -44.5q42 0 69 20.5t46 57.5v1z" />
    <glyph glyph-name="d" unicode="d" horiz-adv-x="541" 
d="M377 367v189q0 35 -14.5 56.5t-52.5 22.5v32q38 4 75.5 11t74.5 16v-583q0 -37 15.5 -58.5t52.5 -22.5v-30q-31 0 -61 -1.5t-60 -3.5q-5 9 -8.5 19t-5.5 21q-33 -21 -68.5 -33.5t-75.5 -12.5q-95 0 -152 63.5t-57 155.5q0 91 51.5 154.5t147.5 63.5h4h3q38 -1 72.5 -16
t58.5 -44v1zM377 105v205q-16 37 -51.5 54t-75.5 17q-61 0 -86.5 -42.5t-31.5 -93.5q-1 -11 -1.5 -22.5t-0.5 -22.5q0 -9 0.5 -17.5t1.5 -17.5q6 -51 34.5 -94t88.5 -43q40 0 71.5 21t50.5 55v1z" />
    <glyph glyph-name="e" unicode="e" horiz-adv-x="454" 
d="M416 223h-285q0 -12 0.5 -23.5t1.5 -22.5q5 -57 32 -104t94 -47q44 0 74 21t54 55l29 -15q-30 -48 -73 -73t-99 -25q-94 0 -149 61t-55 152q0 89 53 156.5t148 67.5q85 0 130 -63t45 -141v1zM327 258v1t1 3v2.5v2.5q0 46 -18.5 84t-73.5 38q-52 0 -76 -38t-27 -83
q-1 -3 -1 -5.5v-5.5l195 1v0z" />
    <glyph glyph-name="f" unicode="f" horiz-adv-x="265" 
d="M256 416v-30h-90v-275q0 -51 20.5 -65.5t66.5 -16.5v-29h-237v31q40 0 53.5 21t13.5 58v276h-70v30h70v29t1 30q4 75 33.5 138t129.5 63q5 0 10 -0.5t11 -1.5q26 -4 48.5 -20.5t22.5 -46.5q0 -16 -11 -28.5t-28 -12.5q-23 0 -29.5 12t-8.5 26q-1 1 -1 2v1
q-2 14 -6.5 24.5t-22.5 10.5q-32 0 -46 -22.5t-18 -50.5q-1 -8 -1.5 -16t-0.5 -16v-121h90v0z" />
    <glyph glyph-name="g" unicode="g" horiz-adv-x="471" 
d="M356 361q8 -15 13.5 -31t7.5 -33q0 -6 0.5 -11.5t0.5 -10.5q0 -62 -40.5 -101t-101.5 -43q-9 0 -26.5 -1t-36.5 -5q-25 -3 -46 -11.5t-23 -24.5q0 -11 8 -15t17 -5h7h6q38 0 75.5 -2l74.5 -4q62 -5 106.5 -32t44.5 -98q0 -94 -69 -143t-155 -49q-16 0 -34.5 2.5
t-37.5 6.5q-50 13 -92 44.5t-42 84.5q0 44 35.5 73.5t78.5 30.5h1.5h1.5h4t5 -1q2 0 4 -0.5t4 -0.5l-10 -8t-9 -8q-19 -15 -32 -32.5t-13 -45.5q0 -46 34 -70.5t75 -31.5q9 -2 17.5 -2.5t16.5 -0.5q10 0 20 1t20 3q42 7 76.5 32t34.5 72q0 41 -29.5 59t-65.5 21
q-5 0 -11.5 0.5t-13.5 1.5q-16 1 -35 2t-38 3q-49 6 -89 25t-40 68q0 29 22.5 47t48.5 24q6 2 11 3t10 1q-43 14 -67.5 47.5t-24.5 78.5q0 71 46 113t116 42q6 0 11.5 -0.5t11.5 -0.5q29 -4 56.5 -15.5t46.5 -34.5q17 20 41.5 35t50.5 16h5.5t5.5 -1q14 -2 26 -11.5
t12 -25.5q0 -15 -9 -26.5t-25 -11.5q-9 0 -15.5 4.5t-12.5 10.5q-6 5 -12.5 9.5t-15.5 4.5q-11 0 -20.5 -5.5t-17.5 -13.5v1zM299 276v12.5t-1 13.5q-3 37 -19.5 67.5t-60.5 30.5q-40 0 -57 -28.5t-22 -62.5q-2 -11 -2.5 -21t-0.5 -20q0 -6 0.5 -13t1.5 -14q4 -33 21 -60.5
t55 -27.5q40 0 59 29t24 65q1 7 1.5 14t0.5 14v1z" />
    <glyph glyph-name="h" unicode="h" horiz-adv-x="520" 
d="M507 0h-216v31q40 0 53 21t13 58v177q0 40 -21 64.5t-65 24.5q-31 0 -57.5 -13t-49.5 -33v-219q0 -38 13.5 -59t53.5 -22v-30h-217v31q40 0 53.5 21t13.5 58v446q0 35 -14.5 56.5t-52.5 22.5v32q26 3 50.5 7t49.5 9q13 2 25.5 4.5t24.5 5.5v-322q33 23 69.5 39t78.5 16
q66 0 97.5 -38t31.5 -100v-177q0 -38 13 -59t53 -22v-30v0z" />
    <glyph glyph-name="i" unicode="i" horiz-adv-x="243" 
d="M163 422v-311q0 -38 13.5 -59t53.5 -22v-30h-217v31q40 0 53.5 21t13.5 58v173q0 36 -14.5 57.5t-52.5 22.5v31q26 3 50.5 7t49.5 9q13 3 25.5 5.5t24.5 5.5v1zM123 491q-21 -1 -37 13.5t-16 35.5q0 22 16 36t37 14q20 0 35 -15t15 -35t-15 -35t-35 -15v1z" />
    <glyph glyph-name="j" unicode="j" horiz-adv-x="228" 
d="M163 422v-517q0 -74 -42 -127t-121 -53q-7 0 -17 1.5t-20 4.5q-21 6 -38 18.5t-17 32.5q0 14 10.5 24.5t24.5 10.5q12 0 20.5 -7.5t16.5 -16.5q0 -1 0.5 -1.5l0.5 -0.5q8 -10 17 -18t23 -8q31 0 43 23t15 50q1 12 1 23v20v402q0 36 -14.5 57.5t-52.5 22.5v31
q38 4 75.5 11.5l74.5 15.5v1zM125 491q-21 -1 -37 13t-16 36t16 36t37 14q20 0 35 -15t15 -35t-15 -35t-35 -15v1z" />
    <glyph glyph-name="k" unicode="k" horiz-adv-x="486" 
d="M244 263l155 -180q17 -21 39 -34.5t48 -18.5v-30h-191v31h19q8 -1 14.5 2t6.5 11q0 1 -1 2.5t-2 2.5q-2 2 -3.5 4t-3.5 4q-1 0 -1.5 1t-1.5 1l-137 158l-22 -19v-87q0 -38 13.5 -59t53.5 -22v-30h-217v31q40 0 53.5 21t13.5 58v446q0 35 -14.5 56.5t-52.5 22.5v32
q26 3 50.5 7t49.5 9q13 2 25.5 4.5t24.5 5.5v-453l132 104q5 3 8 8t4 11q0 13 -9 16.5t-19 3.5h-1.5h-1.5h-2.5t-2.5 1h-2.5h-2.5v31h174v-30q-28 -4 -53 -14t-47 -28l-96 -80v0z" />
    <glyph glyph-name="l" unicode="l" horiz-adv-x="243" 
d="M230 0h-217v31q40 0 53.5 21t13.5 58v446q0 35 -14.5 56.5t-52.5 22.5v32q26 3 50.5 7t49.5 9q13 2 25.5 4.5t24.5 5.5v-582q0 -38 13.5 -59t53.5 -22v-30v0z" />
    <glyph glyph-name="m" unicode="m" horiz-adv-x="794" 
d="M151 422l3.5 -8.5t2.5 -7.5q4 -11 5.5 -22.5t1.5 -23.5q33 30 71 48t83 18q35 0 67 -16.5t45 -49.5q32 28 71 47t82 19q74 0 102.5 -37.5t28.5 -105.5v-172q0 -38 13.5 -59t53.5 -22v-30h-217v31q41 0 54 21t13 58v161q0 43 -14 73.5t-73 30.5h-7.5t-6.5 -1
q-25 -3 -49 -16.5t-41 -31.5v-35v-180q0 -38 13 -59t53 -22v-30h-216v31q40 0 53 21t13 58v169q0 43 -19 69.5t-67 26.5q-31 0 -57 -14.5t-49 -34.5v-215q0 -38 13.5 -59t53.5 -22v-30h-217v31q40 0 53.5 21t13.5 58v173q0 36 -14.5 57.5t-52.5 22.5v31q35 4 69 10.5
t68 16.5v1z" />
    <glyph glyph-name="n" unicode="n" horiz-adv-x="519" 
d="M150 422l3.5 -8.5t2.5 -7.5q4 -11 5.5 -22.5t1.5 -23.5q33 30 71 48t83 18q67 0 94.5 -37.5t27.5 -98.5v-179q0 -38 13 -59t53 -22v-30h-216v31q40 0 53 21t13 58v169q0 43 -19 69.5t-67 26.5q-31 0 -57 -14.5t-49 -34.5v-215q0 -38 13.5 -59t53.5 -22v-30h-217v31
q40 0 53.5 21t13.5 58v173q0 36 -14.5 57.5t-52.5 22.5v31q35 4 69 10.5t68 16.5v1z" />
    <glyph glyph-name="o" unicode="o" horiz-adv-x="511" 
d="M471 206q0 -97 -59.5 -157t-156.5 -60q-98 0 -156.5 56t-58.5 156t57.5 162.5t160.5 62.5t158 -60.5t55 -160.5v1zM381 204q0 10 -0.5 20.5t-0.5 21.5q-5 57 -29.5 103.5t-94.5 46.5q-67 0 -93 -47t-31 -103q-1 -12 -1.5 -24.5t-0.5 -24.5q0 -9 0.5 -17.5t1.5 -17.5
q5 -54 32 -99.5t91 -45.5q63 0 90.5 45t33.5 99q1 11 1.5 21.5t0.5 20.5v1z" />
    <glyph glyph-name="p" unicode="p" horiz-adv-x="528" 
d="M163 35v-191q0 -51 21 -65t66 -16v-30h-237v31q40 1 53.5 21.5t13.5 58.5v439q0 35 -14.5 57t-52.5 23v31q35 4 69 10.5t68 16.5q8 -13 10.5 -27t2.5 -30q26 28 62 44.5t74 16.5q91 0 140 -64.5t49 -149.5q0 -86 -50 -154t-144 -68h-5.5h-5.5q-32 2 -63.5 13t-56.5 32v1z
M163 81q22 -23 49 -37t58 -16q62 0 90.5 45t35.5 99q2 11 2.5 22t0.5 21t-0.5 21t-2.5 22q-7 48 -32.5 87.5t-80.5 39.5q-40 0 -70 -25t-50 -57v-222v0z" />
    <glyph glyph-name="q" unicode="q" horiz-adv-x="524" 
d="M444 422v-578q0 -38 13.5 -58.5t53.5 -21.5v-31h-237v30q46 2 66.5 16.5t20.5 64.5v197q-27 -26 -61.5 -39t-70.5 -13q-90 0 -139.5 62.5t-49.5 146.5q0 88 53.5 157.5t147.5 69.5h5.5h5.5q29 -2 57.5 -13t51.5 -31q22 8 43 18t40 22v1zM361 326q-21 24 -48.5 40
t-61.5 16q-55 0 -82 -40.5t-35 -89.5q-3 -15 -4 -29.5t-1 -27.5q0 -7 0.5 -14.5t1.5 -14.5q5 -51 32.5 -93.5t86.5 -42.5q30 0 54.5 12t48.5 28q2 2 4 3.5t4 2.5v250v0z" />
    <glyph glyph-name="r" unicode="r" horiz-adv-x="341" 
d="M163 315v-204q0 -47 13.5 -60t51.5 -21q2 0 4 -0.5t4 -0.5v-29h-223v31q40 0 53.5 21t13.5 58v173q0 36 -14.5 57.5t-52.5 22.5v31q35 4 69 10.5t68 16.5q10 -18 11.5 -36.5t1.5 -38.5q21 28 51.5 50.5t67.5 22.5q23 0 41 -14t18 -38v-2.5v-2.5q-2 -13 -11.5 -24
t-23.5 -12q-11 0 -18.5 6t-14.5 13v0v1q-7 7 -14 12.5t-18 5.5q-24 0 -45.5 -15t-32.5 -35v1z" />
    <glyph glyph-name="s" unicode="s" horiz-adv-x="346" 
d="M292 415v-137h-23q-1 2 -1.5 5.5t-1.5 6.5q-11 37 -37.5 68.5t-70.5 31.5q-25 0 -41.5 -15.5t-16.5 -41.5q0 -27 22 -43.5t53 -31.5q8 -4 16 -7.5t16 -7.5q39 -19 72.5 -47t33.5 -81q0 -56 -34 -91t-90 -35h-8t-8 1q-27 3 -52.5 14t-45.5 29l-17 -33h-24v143h24
q6 -47 38 -82t82 -35q28 0 49.5 16.5t21.5 45.5q0 32 -25.5 51t-58.5 36l-11.5 5.5t-10.5 5.5q-40 20 -73 47t-33 76q0 52 30 84.5t83 32.5q31 0 55.5 -13t44.5 -35l19 37h23v0z" />
    <glyph glyph-name="t" unicode="t" horiz-adv-x="258" 
d="M256 418v-32h-111v-258q0 -7 0.5 -13.5t1.5 -12.5q3 -21 14 -38.5t33 -17.5q21 0 36 11t28 25l3.5 3.5l3.5 3.5l20 -16q-20 -32 -51 -54.5t-71 -22.5q-61 0 -81 39.5t-20 91.5v259h-49v22q41 5 63 38.5t30 71.5q3 12 4 24t1 23l34 1v-148h111v0z" />
    <glyph glyph-name="u" unicode="u" horiz-adv-x="519" 
d="M369 -5q-2 5 -3.5 9.5t-3.5 9.5q-3 10 -4.5 20t-1.5 20q-33 -30 -71 -47.5t-84 -17.5q-47 0 -83 26.5t-38 76.5v32v192q0 37 -13.5 57.5t-53.5 21.5v32h150v-290q0 -45 19.5 -71.5t67.5 -26.5q32 0 57.5 14.5t48.5 34.5v228q0 37 -13.5 57.5t-53.5 21.5v32h150v-316
q0 -37 14.5 -58.5t52.5 -22.5v-30q-34 0 -68.5 -1.5t-68.5 -3.5v0z" />
    <glyph glyph-name="v" unicode="v" horiz-adv-x="466" 
d="M469 415v-30q-5 -1 -10.5 -1.5t-10.5 -1.5q-13 -2 -24 -8t-16 -17l-164 -357h-26l-166 358q-8 16 -23 21t-31 5l-1 31h189v-30q-3 -2 -7 -2.5t-8 -1.5h-1v0q-8 0 -15.5 -2.5t-8.5 -12.5q0 -4 0.5 -7.5t2.5 -6.5q1 -4 2.5 -7.5t2.5 -7.5l101 -232l108 240q2 4 3 8.5t2 8.5
q0 10 -7.5 14.5t-16.5 5.5q-2 0 -5 0.5t-5 0.5l-10 2v30h145v0z" />
    <glyph glyph-name="w" unicode="w" horiz-adv-x="668" 
d="M469 0h-34l-106 300l-115 -300h-34l-126 346q-7 18 -19 24.5t-29 10.5q-2 1 -4 1.5t-5 1.5l-1 31h184v-30q-3 -2 -7 -3t-9 -1h-0.5h-0.5q-9 -1 -16 -3t-9 -12q0 -5 1.5 -10.5t2.5 -10.5l80 -233l114 303h34l107 -303l93 234l0.5 1l1.5 3q1 3 2 7t1 8v2q0 7 -8 10.5
t-17 4.5q-5 1 -10 1.5t-9 0.5h-0.5h-1.5v31h141v-30q-21 -2 -38 -10.5t-25 -29.5l-138 -345v0z" />
    <glyph glyph-name="x" unicode="x" horiz-adv-x="514" 
d="M491 415v-30q-21 -1 -40.5 -5.5t-34.5 -20.5l-119 -129l131 -169q15 -20 34 -25.5t43 -5.5v-30h-208v31h23q1 -1 2.5 -1h2.5t2.5 0.5t3.5 0.5q5 0 9 1.5t4 6.5q0 6 -3 11.5t-8 9.5l-92 112l-102 -111l-8 -11.5t-3 -8.5q0 -6 7 -8.5t20 -2.5l13 1v-31h-156v31
q23 -1 43 5.5t36 23.5l129 140l-122 152l-6.5 6.5l-6.5 6.5q-13 11 -27 15t-34 4v31h196v-30h-10q-1 -1 -2.5 -1h-3.5q-1 0 -2.5 -0.5t-3.5 -0.5q-4 0 -8.5 -1.5t-5.5 -5.5q0 -5 2 -9t6 -8l82 -100l93 101q3 1 5.5 4.5t2.5 7.5q0 5 -5 7.5t-11 2.5q-4 1 -7 1h-5h-4.5t-4.5 1
h-5.5h-4.5v31h163v0z" />
    <glyph glyph-name="y" unicode="y" horiz-adv-x="466" 
d="M470 415v-30l-10 -1q-22 -3 -35 -11t-23 -28l-213 -465l-12.5 -28.5t-14.5 -31.5q-18 -35 -43 -64.5t-61 -29.5h-3.5h-3.5q-16 2 -29 11.5t-13 27.5q0 6 1.5 11.5t5.5 10.5q2 0 4 -0.5t4 -0.5q1 0 3 -0.5t4 -0.5q48 0 81.5 41t58.5 91q13 26 24 51.5t20 43.5l-156 334
q-10 19 -25 28t-36 10l-1 31h192v-30q-4 -1 -8.5 -1t-9.5 -1q-9 -1 -17 -5.5t-8 -14.5q0 -4 1.5 -8.5t2.5 -9.5l108 -233l105 234q1 2 2 4.5t2 5.5t2 5.5t1 5.5v2q0 7 -7 10t-15 4q-3 0 -6 0.5t-6 0.5h-2.5h-2.5l-7 1v30h146v0z" />
    <glyph glyph-name="z" unicode="z" horiz-adv-x="392" 
d="M352 139h26l-8 -139h-357v33l257 353h-144q-27 -1 -40 -19t-23 -40l-0.5 -1t-0.5 -2q-3 -7 -7 -14.5l-8 -14.5l-27 1l14 121h336v-31l-257 -353h139q34 -1 54.5 23t33.5 53l6 14.5l6 14.5v1z" />
    <glyph glyph-name="braceleft" unicode="{" horiz-adv-x="500" 
d="M104 303v16q42 1 68.5 16.5t26.5 62.5q0 15 -0.5 29.5t-0.5 29.5t-0.5 29.5t-0.5 29.5q0 93 20.5 143.5t124.5 53.5l41 1q5 -1 9.5 -1t8.5 1v-22q-61 -2 -94.5 -22.5t-34.5 -88.5v-35.5v-35.5q-1 -18 -1 -35.5v-35.5q0 -46 -12 -80.5t-69 -46.5v-3q56 -11 68.5 -49.5
t12.5 -84.5v-35.5v-35.5q-1 -18 -1 -35.5v-35.5q0 -75 28.5 -103t102.5 -28v-23h-15h-2h-3q-79 2 -132 20t-53 118q0 25 0.5 50t0.5 50q0 8 0.5 16.5t0.5 16.5q0 17 0.5 33.5t0.5 33.5q-1 51 -25.5 66.5t-69.5 18.5v1z" />
    <glyph glyph-name="bar" unicode="|" horiz-adv-x="500" 
d="M219 666h63v-833h-63v833v0z" />
    <glyph glyph-name="braceright" unicode="}" horiz-adv-x="500" 
d="M396 319v-16q-43 -4 -69 -19t-26 -64q0 -17 0.5 -34t0.5 -34q0 -8 0.5 -16.5t0.5 -16.5q0 -26 0.5 -51t0.5 -51q0 -78 -34.5 -106.5t-109.5 -30.5h-15t-15 -1h-15.5h-15.5v23q63 0 95.5 21.5t33.5 88.5v45.5t1 45.5v45.5v45.5q1 44 17.5 75t63.5 39v5q-39 7 -59.5 32
t-21.5 65v60t-1 60q0 85 -19 122t-110 39v24q5 -2 9.5 -2h8.5q98 0 142 -23t44 -143q0 -18 -0.5 -36.5t-0.5 -36.5t-0.5 -36.5t-0.5 -36.5q0 -49 25.5 -64.5t69.5 -18.5v1z" />
    <glyph glyph-name="asciitilde" unicode="~" horiz-adv-x="500" 
d="M456 405l18 -9q-23 -38 -61 -69t-85 -31q-20 0 -39.5 4.5t-38.5 10.5q-4 2 -8 3l-8 2q-23 8 -46.5 14.5t-48.5 6.5q-27 0 -45.5 -12t-35.5 -29l-6.5 -6.5l-7.5 -7.5l-18 11q2 2 3.5 4.5t3.5 4.5q25 34 59.5 62t78.5 28q24 0 46.5 -6t45.5 -14q1 0 2.5 -0.5t3.5 -1.5
q21 -7 42 -12.5t43 -5.5q30 0 56.5 15t45.5 37v1z" />
    <glyph glyph-name="Adieresis" unicode="&#xc4;" horiz-adv-x="723" 
d="M382 678l252 -581q14 -34 35 -50t58 -17v-30h-275v31h22q5 -1 10.5 -1t11.5 1q13 2 24.5 8.5t11.5 21.5q0 9 -2.5 18t-6.5 17l-54 130h-266l-52 -129q-3 -8 -5 -14.5t-2 -13.5q0 -21 14.5 -29t31.5 -9q4 -1 8 -1h8l21 1v-31h-230v31q43 0 67.5 12.5t40.5 52.5l240 582h37
v0zM450 268l-87 212q-1 3 -3 7t-3 8l-12 32t-10 32q-1 -3 -2 -6.5t-2 -6.5l-2 -6l-2 -6l-108 -266h231v0zM211 770q0 24 17.5 41.5t42.5 17.5t42.5 -17.5t17.5 -42.5t-17.5 -42.5t-42.5 -17.5t-42.5 17.5t-17.5 42.5v1zM394 770q0 24 18 41.5t42 17.5q25 0 42.5 -17.5
t17.5 -42.5t-17.5 -42.5t-42.5 -17.5q-24 0 -42 17.5t-18 42.5v1z" />
    <glyph glyph-name="Aring" unicode="&#xc5;" horiz-adv-x="723" 
d="M382 678l252 -581q14 -34 35 -50t58 -17v-30h-275v31h22q5 -1 10.5 -1t11.5 1q13 2 24.5 8.5t11.5 21.5q0 9 -2.5 18t-6.5 17l-54 130h-266l-52 -129q-3 -8 -5 -14.5t-2 -13.5q0 -21 14.5 -29t31.5 -9q4 -1 8 -1h8l21 1v-31h-230v31q43 0 67.5 12.5t40.5 52.5l240 582h37
v0zM450 268l-87 212q-1 3 -3 7t-3 8l-12 32t-10 32q-1 -3 -2 -6.5t-2 -6.5l-2 -6l-2 -6l-108 -266h231v0zM362 705q-34 -1 -59.5 24.5t-25.5 59.5q0 35 25.5 60t59.5 25q35 0 60 -26.5t25 -61.5q0 -34 -25.5 -58t-59.5 -24v1zM362 744q19 -1 32.5 12.5t13.5 32.5t-13.5 32.5
t-32.5 13.5t-32.5 -13.5t-13.5 -32.5t13.5 -32.5t32.5 -13.5v1z" />
    <glyph glyph-name="Ccedilla" unicode="&#xc7;" horiz-adv-x="710" 
d="M654 667l9 -242h-31q-23 93 -79.5 158t-161.5 65q-108 0 -160 -78t-64 -172l-2 -29.5t-1 -28.5q0 -116 57.5 -212t189.5 -96q77 0 145 45.5t98 116.5l36 -26q-38 -84 -118.5 -133.5t-171.5 -51.5l-12 -38q32 -8 57 -26t25 -55t-28.5 -60.5t-62.5 -26.5h-4h-4
q-25 0 -49 7.5t-45 21.5l16 22q14 -8 28.5 -13t30.5 -6q23 0 39.5 15.5t16.5 38.5q0 21 -14 33t-31 20l-7 3.5t-6 2.5l20 61q-145 2 -233 101.5t-88 239.5q0 147 93 252.5t245 105.5q59 0 113.5 -17.5t103.5 -49.5q5 8 8.5 16.5t6.5 17.5q1 0 1 1v1q2 4 3.5 7.5t2.5 7.5
l28 1v0z" />
    <glyph glyph-name="Eacute" unicode="&#xc9;" horiz-adv-x="584" 
d="M506 667l18 -163h-31q-13 55 -42.5 91.5t-91.5 36.5l-145 1v-262h63q47 -1 69 22.5t24 69.5l31 1v-226h-31v0.5v1.5q-7 46 -22 70.5t-71 24.5l-63 1v-214q0 -53 28.5 -71t76.5 -18q62 0 112 11.5t84 70.5q9 17 17 36t12 38q1 4 1.5 8t0.5 8l29 1l-13 -206h-548v31
q1 -1 1.5 -1h1.5q48 2 72.5 13.5t24.5 66.5v446q0 54 -25 65.5t-72 13.5h-1.5h-1.5v32h492v0zM251 843h123q1 -1 2 -1h2q3 -1 5.5 -2.5t2.5 -5.5q0 -3 -2 -5l-4 -4l-158 -113q-3 -2 -6 -3.5t-6 -2.5h-2.5h-2.5q-3 1 -5 2.5t-2 3.5v2v1.5t1 2.5l52 125v0z" />
    <glyph glyph-name="Ntilde" unicode="&#xd1;" horiz-adv-x="725" 
d="M211 667l327 -451q8 -13 15 -26l14 -26q2 -4 4 -8.5t4 -8.5v17.5v16.5q-1 8 -1 16.5v17.5v321q0 58 -15.5 72t-41.5 19q-8 1 -16.5 3t-18.5 5v32h230v-31q-53 -2 -74.5 -25.5t-21.5 -75.5v-541h-42l-356 496q-18 23 -34 48t-31 51v-423q0 -62 14.5 -96.5t84.5 -39.5v-30
h-239v31q56 1 78 26t22 81v418q0 54 -25 65.5t-72 13.5h-1.5h-1.5v32h198v0zM509 823l17 -12q-2 -4 -4 -7l-4 -6q-18 -25 -42.5 -46.5t-56.5 -22.5q-18 0 -36 4t-35 10q-18 5 -36 9t-36 4q-16 0 -29.5 -9t-23.5 -20q-2 -1 -3 -2.5t-2 -2.5l-19 12q3 5 7 10.5l8 11.5
q17 24 40.5 44.5t53.5 20.5q17 0 33 -3.5t32 -8.5q1 -1 3 -1.5t3 -0.5l35.5 -9.5t36.5 -4.5q18 0 32 9t26 20v1z" />
    <glyph glyph-name="Odieresis" unicode="&#xd6;" horiz-adv-x="802" 
d="M400 -17q-151 0 -252.5 98.5t-101.5 250.5q0 155 101 252.5t253 97.5q153 0 254 -97.5t101 -252.5q0 -153 -101.5 -251t-253.5 -98v0zM400 18q132 -1 184 92.5t55 205.5v8.5v8.5v9.5v9.5q-4 112 -55.5 205t-183.5 93q-131 0 -183 -93t-56 -205v-9.5v-9.5v-6v-5
q2 -115 53.5 -210t185.5 -95v1zM249 770q0 24 17.5 41.5t42.5 17.5t42.5 -17.5t17.5 -42.5t-17.5 -42.5t-42.5 -17.5t-42.5 17.5t-17.5 42.5v1zM432 770q0 24 18 41.5t42 17.5q25 0 42.5 -17.5t17.5 -42.5t-17.5 -42.5t-42.5 -17.5q-24 0 -42 17.5t-18 42.5v1z" />
    <glyph glyph-name="Udieresis" unicode="&#xdc;" horiz-adv-x="698" 
d="M444 666h241v-30q-1 -1 -2.5 -1h-3.5q-6 -1 -12 -1.5t-12 -1.5q-13 -1 -25 -4t-22 -9q-12 -7 -17 -19.5t-6 -26.5q-1 -6 -1 -12.5v-12.5v-321q0 -107 -41.5 -175.5t-163.5 -68.5q-139 0 -202.5 43.5t-63.5 195.5v333q0 55 -24.5 66.5t-72.5 13.5h-1.5h-1.5v31h300v-30
q-4 -1 -7.5 -1h-6.5h-2h-2q-31 -1 -56.5 -12.5t-25.5 -68.5v-319q0 -95 27 -156.5t139 -61.5q104 0 134.5 60t30.5 148v10v314q0 54 -25 68t-75 18v31v0zM197 770q0 24 17.5 41.5t42.5 17.5t42.5 -17.5t17.5 -42.5t-17.5 -42.5t-42.5 -17.5t-42.5 17.5t-17.5 42.5v1z
M380 770q0 24 18 41.5t42 17.5q25 0 42.5 -17.5t17.5 -42.5t-17.5 -42.5t-42.5 -17.5q-24 0 -42 17.5t-18 42.5v1z" />
    <glyph glyph-name="aacute" unicode="&#xe1;" horiz-adv-x="452" 
d="M436 88h30q-10 -39 -33 -69t-67 -30q-34 0 -55.5 18t-26.5 52q-23 -26 -57 -44.5t-69 -23.5q-5 0 -10 -0.5t-10 -0.5q-45 0 -71.5 28.5t-26.5 72.5q0 78 50 102.5t111 38.5l42.5 10.5t40.5 13.5v35q0 43 -12.5 73.5t-65.5 30.5q-33 0 -45.5 -15.5t-19.5 -33.5
q-1 -2 -1.5 -3.5t-0.5 -3.5q-6 -16 -15 -29.5t-33 -13.5q-3 0 -6 0.5t-5 0.5q-13 3 -23 11t-10 21q0 35 30 56.5t67 31.5q17 5 34 7t30 2q67 0 113 -26t46 -101v-219v-7t1 -6q1 -11 6 -21t19 -11q19 0 27.5 13t12.5 29q0 1 0.5 1.5t0.5 1.5q1 2 1.5 3.5t0.5 3.5v1zM284 228
q-9 -5 -19 -8.5t-21 -6.5q-6 -2 -11.5 -3.5t-11.5 -3.5q-36 -11 -65.5 -29t-32.5 -58q0 -31 19 -52t51 -21q26 0 49 12.5t42 28.5v141v0zM185 608h123q1 -1 2 -1h2q3 -1 5.5 -2.5t2.5 -5.5q0 -3 -2 -5l-4 -4l-158 -113q-3 -2 -6 -3.5t-6 -2.5h-2.5h-2.5q-3 1 -5 2.5t-2 3.5
v2v1.5t1 2.5l52 125v0z" />
    <glyph glyph-name="agrave" unicode="&#xe0;" horiz-adv-x="452" 
d="M436 88h30q-10 -39 -33 -69t-67 -30q-34 0 -55.5 18t-26.5 52q-23 -26 -57 -44.5t-69 -23.5q-5 0 -10 -0.5t-10 -0.5q-45 0 -71.5 28.5t-26.5 72.5q0 78 50 102.5t111 38.5l42.5 10.5t40.5 13.5v35q0 43 -12.5 73.5t-65.5 30.5q-33 0 -45.5 -15.5t-19.5 -33.5
q-1 -2 -1.5 -3.5t-0.5 -3.5q-6 -16 -15 -29.5t-33 -13.5q-3 0 -6 0.5t-5 0.5q-13 3 -23 11t-10 21q0 35 30 56.5t67 31.5q17 5 34 7t30 2q67 0 113 -26t46 -101v-219v-7t1 -6q1 -11 6 -21t19 -11q19 0 27.5 13t12.5 29q0 1 0.5 1.5t0.5 1.5q1 2 1.5 3.5t0.5 3.5v1zM284 228
q-9 -5 -19 -8.5t-21 -6.5q-6 -2 -11.5 -3.5t-11.5 -3.5q-36 -11 -65.5 -29t-32.5 -58q0 -31 19 -52t51 -21q26 0 49 12.5t42 28.5v141v0zM267 608l52 -124q1 -2 1 -3.5v-2.5v0q0 -3 -2 -4.5t-5 -2.5h-2.5h-2.5q-3 1 -6 2.5t-6 2.5l-158 115q-2 1 -4 3t-2 5q0 4 2.5 5.5
t5.5 2.5h2h2l123 1v0z" />
    <glyph glyph-name="acircumflex" unicode="&#xe2;" horiz-adv-x="452" 
d="M436 88h30q-10 -39 -33 -69t-67 -30q-34 0 -55.5 18t-26.5 52q-23 -26 -57 -44.5t-69 -23.5q-5 0 -10 -0.5t-10 -0.5q-45 0 -71.5 28.5t-26.5 72.5q0 78 50 102.5t111 38.5l42.5 10.5t40.5 13.5v35q0 43 -12.5 73.5t-65.5 30.5q-33 0 -45.5 -15.5t-19.5 -33.5
q-1 -2 -1.5 -3.5t-0.5 -3.5q-6 -16 -15 -29.5t-33 -13.5q-3 0 -6 0.5t-5 0.5q-13 3 -23 11t-10 21q0 35 30 56.5t67 31.5q17 5 34 7t30 2q67 0 113 -26t46 -101v-219v-7t1 -6q1 -11 6 -21t19 -11q19 0 27.5 13t12.5 29q0 1 0.5 1.5t0.5 1.5q1 2 1.5 3.5t0.5 3.5v1zM284 228
q-9 -5 -19 -8.5t-21 -6.5q-6 -2 -11.5 -3.5t-11.5 -3.5q-36 -11 -65.5 -29t-32.5 -58q0 -31 19 -52t51 -21q26 0 49 12.5t42 28.5v141v0zM226 622l121 -119q0 -1 0.5 -1.5l1.5 -1.5q2 -2 3.5 -4.5t1.5 -5.5q0 -7 -4 -12.5t-12 -5.5l-1 1q-4 -1 -7 0.5t-5 3.5l-1.5 1.5
t-1.5 0.5l-96 67l-95 -66l-1.5 -1.5l-1.5 -1.5q-2 -2 -5 -3.5t-7 -1.5l-1 1q-6 -1 -10.5 3.5t-6.5 10.5q0 5 2.5 8.5t5.5 6.5l120 120v0z" />
    <glyph glyph-name="adieresis" unicode="&#xe4;" horiz-adv-x="452" 
d="M436 88h30q-10 -39 -33 -69t-67 -30q-34 0 -55.5 18t-26.5 52q-23 -26 -57 -44.5t-69 -23.5q-5 0 -10 -0.5t-10 -0.5q-45 0 -71.5 28.5t-26.5 72.5q0 78 50 102.5t111 38.5l42.5 10.5t40.5 13.5v35q0 43 -12.5 73.5t-65.5 30.5q-33 0 -45.5 -15.5t-19.5 -33.5
q-1 -2 -1.5 -3.5t-0.5 -3.5q-6 -16 -15 -29.5t-33 -13.5q-3 0 -6 0.5t-5 0.5q-13 3 -23 11t-10 21q0 35 30 56.5t67 31.5q17 5 34 7t30 2q67 0 113 -26t46 -101v-219v-7t1 -6q1 -11 6 -21t19 -11q19 0 27.5 13t12.5 29q0 1 0.5 1.5t0.5 1.5q1 2 1.5 3.5t0.5 3.5v1zM284 228
q-9 -5 -19 -8.5t-21 -6.5q-6 -2 -11.5 -3.5t-11.5 -3.5q-36 -11 -65.5 -29t-32.5 -58q0 -31 19 -52t51 -21q26 0 49 12.5t42 28.5v141v0zM75 533q0 24 17.5 41.5t42.5 17.5t42.5 -17.5t17.5 -42.5t-17.5 -42.5t-42.5 -17.5t-42.5 17.5t-17.5 42.5v1zM258 533q0 24 18 41.5
t42 17.5q25 0 42.5 -17.5t17.5 -42.5t-17.5 -42.5t-42.5 -17.5q-24 0 -42 17.5t-18 42.5v1z" />
    <glyph glyph-name="atilde" unicode="&#xe3;" horiz-adv-x="452" 
d="M436 88h30q-10 -39 -33 -69t-67 -30q-34 0 -55.5 18t-26.5 52q-23 -26 -57 -44.5t-69 -23.5q-5 0 -10 -0.5t-10 -0.5q-45 0 -71.5 28.5t-26.5 72.5q0 78 50 102.5t111 38.5l42.5 10.5t40.5 13.5v35q0 43 -12.5 73.5t-65.5 30.5q-33 0 -45.5 -15.5t-19.5 -33.5
q-1 -2 -1.5 -3.5t-0.5 -3.5q-6 -16 -15 -29.5t-33 -13.5q-3 0 -6 0.5t-5 0.5q-13 3 -23 11t-10 21q0 35 30 56.5t67 31.5q17 5 34 7t30 2q67 0 113 -26t46 -101v-219v-7t1 -6q1 -11 6 -21t19 -11q19 0 27.5 13t12.5 29q0 1 0.5 1.5t0.5 1.5q1 2 1.5 3.5t0.5 3.5v1zM284 228
q-9 -5 -19 -8.5t-21 -6.5q-6 -2 -11.5 -3.5t-11.5 -3.5q-36 -11 -65.5 -29t-32.5 -58q0 -31 19 -52t51 -21q26 0 49 12.5t42 28.5v141v0zM373 593l17 -12q-2 -4 -4 -7l-4 -6q-18 -25 -42.5 -46.5t-56.5 -22.5q-18 0 -36 4t-35 10q-18 5 -36 9t-36 4q-16 0 -29.5 -9
t-23.5 -20q-2 -1 -3 -2.5t-2 -2.5l-19 12q3 5 7 10.5l8 11.5q17 24 40.5 44.5t53.5 20.5q17 0 33 -3.5t32 -8.5q1 -1 3 -1.5t3 -0.5l35.5 -9.5t36.5 -4.5q18 0 32 9t26 20v1z" />
    <glyph glyph-name="aring" unicode="&#xe5;" horiz-adv-x="452" 
d="M436 88h30q-10 -39 -33 -69t-67 -30q-34 0 -55.5 18t-26.5 52q-23 -26 -57 -44.5t-69 -23.5q-5 0 -10 -0.5t-10 -0.5q-45 0 -71.5 28.5t-26.5 72.5q0 78 50 102.5t111 38.5l42.5 10.5t40.5 13.5v35q0 43 -12.5 73.5t-65.5 30.5q-33 0 -45.5 -15.5t-19.5 -33.5
q-1 -2 -1.5 -3.5t-0.5 -3.5q-6 -16 -15 -29.5t-33 -13.5q-3 0 -6 0.5t-5 0.5q-13 3 -23 11t-10 21q0 35 30 56.5t67 31.5q17 5 34 7t30 2q67 0 113 -26t46 -101v-219v-7t1 -6q1 -11 6 -21t19 -11q19 0 27.5 13t12.5 29q0 1 0.5 1.5t0.5 1.5q1 2 1.5 3.5t0.5 3.5v1zM284 228
q-9 -5 -19 -8.5t-21 -6.5q-6 -2 -11.5 -3.5t-11.5 -3.5q-36 -11 -65.5 -29t-32.5 -58q0 -31 19 -52t51 -21q26 0 49 12.5t42 28.5v141v0zM226 468q-34 -1 -59.5 24.5t-25.5 59.5q0 35 25.5 60t59.5 25q35 0 60 -26.5t25 -61.5q0 -34 -25.5 -58t-59.5 -24v1zM226 507
q19 -1 32.5 12.5t13.5 32.5t-13.5 32.5t-32.5 13.5t-32.5 -13.5t-13.5 -32.5t13.5 -32.5t32.5 -13.5v1z" />
    <glyph glyph-name="ccedilla" unicode="&#xe7;" horiz-adv-x="433" 
d="M381 107l30 -11q-19 -54 -64 -81t-100 -27l-13 -44q1 0 2.5 -0.5t2.5 -0.5q29 -7 53 -25t24 -51q0 -42 -31 -66t-70 -24q-25 0 -48 8t-43 21l14 22q14 -8 30 -13.5t32 -5.5q22 0 38 16t16 38q0 21 -15 34.5t-34 21.5q-2 1 -4.5 1.5t-4.5 1.5l22 66q-82 16 -130.5 66.5
t-48.5 138.5q0 95 54.5 164t154.5 69q12 0 27.5 -2t32.5 -7q31 -9 57 -26.5t26 -46.5q0 -16 -11 -27t-28 -11q-10 0 -18.5 3.5t-16.5 10.5q-3 35 -17.5 53t-53.5 18q-52 0 -77.5 -38.5t-32.5 -83.5q-2 -13 -3 -25t-1 -23q0 -13 1 -26.5t4 -26.5q9 -53 39.5 -96.5t89.5 -43.5
q42 0 69 20.5t46 57.5v1z" />
    <glyph glyph-name="eacute" unicode="&#xe9;" horiz-adv-x="454" 
d="M416 223h-285q0 -12 0.5 -23.5t1.5 -22.5q5 -57 32 -104t94 -47q44 0 74 21t54 55l29 -15q-30 -48 -73 -73t-99 -25q-94 0 -149 61t-55 152q0 89 53 156.5t148 67.5q85 0 130 -63t45 -141v1zM327 258v1t1 3v2.5v2.5q0 46 -18.5 84t-73.5 38q-52 0 -76 -38t-27 -83
q-1 -3 -1 -5.5v-5.5l195 1v0zM186 608h123q1 -1 2 -1h2q3 -1 5.5 -2.5t2.5 -5.5q0 -3 -2 -5l-4 -4l-158 -113q-3 -2 -6 -3.5t-6 -2.5h-2.5h-2.5q-3 1 -5 2.5t-2 3.5v2v1.5t1 2.5l52 125v0z" />
    <glyph glyph-name="egrave" unicode="&#xe8;" horiz-adv-x="454" 
d="M416 223h-285q0 -12 0.5 -23.5t1.5 -22.5q5 -57 32 -104t94 -47q44 0 74 21t54 55l29 -15q-30 -48 -73 -73t-99 -25q-94 0 -149 61t-55 152q0 89 53 156.5t148 67.5q85 0 130 -63t45 -141v1zM327 258v1t1 3v2.5v2.5q0 46 -18.5 84t-73.5 38q-52 0 -76 -38t-27 -83
q-1 -3 -1 -5.5v-5.5l195 1v0zM268 608l52 -124q1 -2 1 -3.5v-2.5v0q0 -3 -2 -4.5t-5 -2.5h-2.5h-2.5q-3 1 -6 2.5t-6 2.5l-158 115q-2 1 -4 3t-2 5q0 4 2.5 5.5t5.5 2.5h2h2l123 1v0z" />
    <glyph glyph-name="ecircumflex" unicode="&#xea;" horiz-adv-x="454" 
d="M416 223h-285q0 -12 0.5 -23.5t1.5 -22.5q5 -57 32 -104t94 -47q44 0 74 21t54 55l29 -15q-30 -48 -73 -73t-99 -25q-94 0 -149 61t-55 152q0 89 53 156.5t148 67.5q85 0 130 -63t45 -141v1zM327 258v1t1 3v2.5v2.5q0 46 -18.5 84t-73.5 38q-52 0 -76 -38t-27 -83
q-1 -3 -1 -5.5v-5.5l195 1v0zM227 622l121 -119q0 -1 0.5 -1.5l1.5 -1.5q2 -2 3.5 -4.5t1.5 -5.5q0 -7 -4 -12.5t-12 -5.5l-1 1q-4 -1 -7 0.5t-5 3.5l-1.5 1.5t-1.5 0.5l-96 67l-95 -66l-1.5 -1.5l-1.5 -1.5q-2 -2 -5 -3.5t-7 -1.5l-1 1q-6 -1 -10.5 3.5t-6.5 10.5
q0 5 2.5 8.5t5.5 6.5l120 120v0z" />
    <glyph glyph-name="edieresis" unicode="&#xeb;" horiz-adv-x="454" 
d="M416 223h-285q0 -12 0.5 -23.5t1.5 -22.5q5 -57 32 -104t94 -47q44 0 74 21t54 55l29 -15q-30 -48 -73 -73t-99 -25q-94 0 -149 61t-55 152q0 89 53 156.5t148 67.5q85 0 130 -63t45 -141v1zM327 258v1t1 3v2.5v2.5q0 46 -18.5 84t-73.5 38q-52 0 -76 -38t-27 -83
q-1 -3 -1 -5.5v-5.5l195 1v0zM76 533q0 24 17.5 41.5t42.5 17.5t42.5 -17.5t17.5 -42.5t-17.5 -42.5t-42.5 -17.5t-42.5 17.5t-17.5 42.5v1zM259 533q0 24 18 41.5t42 17.5q25 0 42.5 -17.5t17.5 -42.5t-17.5 -42.5t-42.5 -17.5q-24 0 -42 17.5t-18 42.5v1z" />
    <glyph glyph-name="iacute" unicode="&#xed;" horiz-adv-x="243" 
d="M163 422v-311q0 -38 13.5 -59t53.5 -22v-30h-217v31q40 0 53.5 21t13.5 58v173q0 36 -14.5 57.5t-52.5 22.5v31q26 3 50.5 7t49.5 9q13 3 25.5 5.5t24.5 5.5v1zM80 608h123q1 -1 2 -1h2q3 -1 5.5 -2.5t2.5 -5.5q0 -3 -2 -5l-4 -4l-158 -113q-3 -2 -6 -3.5t-6 -2.5h-2.5
h-2.5q-3 1 -5 2.5t-2 3.5v2v1.5t1 2.5l52 125v0z" />
    <glyph glyph-name="igrave" unicode="&#xec;" horiz-adv-x="243" 
d="M163 422v-311q0 -38 13.5 -59t53.5 -22v-30h-217v31q40 0 53.5 21t13.5 58v173q0 36 -14.5 57.5t-52.5 22.5v31q26 3 50.5 7t49.5 9q13 3 25.5 5.5t24.5 5.5v1zM162 608l52 -124q1 -2 1 -3.5v-2.5v0q0 -3 -2 -4.5t-5 -2.5h-2.5h-2.5q-3 1 -6 2.5t-6 2.5l-158 115
q-2 1 -4 3t-2 5q0 4 2.5 5.5t5.5 2.5h2h2l123 1v0z" />
    <glyph glyph-name="icircumflex" unicode="&#xee;" horiz-adv-x="243" 
d="M163 422v-311q0 -38 13.5 -59t53.5 -22v-30h-217v31q40 0 53.5 21t13.5 58v173q0 36 -14.5 57.5t-52.5 22.5v31q26 3 50.5 7t49.5 9q13 3 25.5 5.5t24.5 5.5v1zM121 622l121 -119q0 -1 0.5 -1.5l1.5 -1.5q2 -2 3.5 -4.5t1.5 -5.5q0 -7 -4 -12.5t-12 -5.5l-1 1
q-4 -1 -7 0.5t-5 3.5l-1.5 1.5t-1.5 0.5l-96 67l-95 -66l-1.5 -1.5l-1.5 -1.5q-2 -2 -5 -3.5t-7 -1.5l-1 1q-6 -1 -10.5 3.5t-5.5 10.5q0 5 2.5 8.5l4.5 6.5l120 120v0z" />
    <glyph glyph-name="idieresis" unicode="&#xef;" horiz-adv-x="243" 
d="M163 422v-311q0 -38 13.5 -59t53.5 -22v-30h-217v31q40 0 53.5 21t13.5 58v173q0 36 -14.5 57.5t-52.5 22.5v31q26 3 50.5 7t49.5 9q13 3 25.5 5.5t24.5 5.5v1zM-30 532q1 24 18 41.5t42 17.5t42.5 -17.5t17.5 -42.5t-17.5 -42.5t-42.5 -17.5t-42 17.5t-17 42.5zM153 532
q0 24 18 41.5t42 17.5q25 0 42.5 -17.5t17.5 -42.5t-17.5 -42.5t-42.5 -17.5q-24 0 -42 17.5t-18 42.5v1z" />
    <glyph glyph-name="ntilde" unicode="&#xf1;" horiz-adv-x="519" 
d="M150 422l3.5 -8.5t2.5 -7.5q4 -11 5.5 -22.5t1.5 -23.5q33 30 71 48t83 18q67 0 94.5 -37.5t27.5 -98.5v-179q0 -38 13 -59t53 -22v-30h-216v31q40 0 53 21t13 58v169q0 43 -19 69.5t-67 26.5q-31 0 -57 -14.5t-49 -34.5v-215q0 -38 13.5 -59t53.5 -22v-30h-217v31
q40 0 53.5 21t13.5 58v173q0 36 -14.5 57.5t-52.5 22.5v31q35 4 69 10.5t68 16.5v1zM406 593l17 -12q-2 -4 -4 -7l-4 -6q-18 -25 -42.5 -46.5t-56.5 -22.5q-18 0 -36 4t-35 10q-18 5 -36 9t-36 4q-16 0 -29.5 -9t-23.5 -20q-2 -1 -3 -2.5t-2 -2.5l-19 12q3 5 7 10.5l8 11.5
q17 24 40.5 44.5t53.5 20.5q17 0 33 -3.5t32 -8.5q1 -1 3 -1.5t3 -0.5l35.5 -9.5t36.5 -4.5q18 0 32 9t26 20v1z" />
    <glyph glyph-name="oacute" unicode="&#xf3;" horiz-adv-x="511" 
d="M471 206q0 -97 -59.5 -157t-156.5 -60q-98 0 -156.5 56t-58.5 156t57.5 162.5t160.5 62.5t158 -60.5t55 -160.5v1zM381 204q0 10 -0.5 20.5t-0.5 21.5q-5 57 -29.5 103.5t-94.5 46.5q-67 0 -93 -47t-31 -103q-1 -12 -1.5 -24.5t-0.5 -24.5q0 -9 0.5 -17.5t1.5 -17.5
q5 -54 32 -99.5t91 -45.5q63 0 90.5 45t33.5 99q1 11 1.5 21.5t0.5 20.5v1zM215 608h123q1 -1 2 -1h2q3 -1 5.5 -2.5t2.5 -5.5q0 -3 -2 -5l-4 -4l-158 -113q-3 -2 -6 -3.5t-6 -2.5h-2.5h-2.5q-3 1 -5 2.5t-2 3.5v2v1.5t1 2.5l52 125v0z" />
    <glyph glyph-name="ograve" unicode="&#xf2;" horiz-adv-x="511" 
d="M471 206q0 -97 -59.5 -157t-156.5 -60q-98 0 -156.5 56t-58.5 156t57.5 162.5t160.5 62.5t158 -60.5t55 -160.5v1zM381 204q0 10 -0.5 20.5t-0.5 21.5q-5 57 -29.5 103.5t-94.5 46.5q-67 0 -93 -47t-31 -103q-1 -12 -1.5 -24.5t-0.5 -24.5q0 -9 0.5 -17.5t1.5 -17.5
q5 -54 32 -99.5t91 -45.5q63 0 90.5 45t33.5 99q1 11 1.5 21.5t0.5 20.5v1zM297 608l52 -124q1 -2 1 -3.5v-2.5v0q0 -3 -2 -4.5t-5 -2.5h-2.5h-2.5q-3 1 -6 2.5t-6 2.5l-158 115q-2 1 -4 3t-2 5q0 4 2.5 5.5t5.5 2.5h2h2l123 1v0z" />
    <glyph glyph-name="ocircumflex" unicode="&#xf4;" horiz-adv-x="511" 
d="M471 206q0 -97 -59.5 -157t-156.5 -60q-98 0 -156.5 56t-58.5 156t57.5 162.5t160.5 62.5t158 -60.5t55 -160.5v1zM381 204q0 10 -0.5 20.5t-0.5 21.5q-5 57 -29.5 103.5t-94.5 46.5q-67 0 -93 -47t-31 -103q-1 -12 -1.5 -24.5t-0.5 -24.5q0 -9 0.5 -17.5t1.5 -17.5
q5 -54 32 -99.5t91 -45.5q63 0 90.5 45t33.5 99q1 11 1.5 21.5t0.5 20.5v1zM256 622l121 -119q0 -1 0.5 -1.5l1.5 -1.5q2 -2 3.5 -4.5t1.5 -5.5q0 -7 -4 -12.5t-12 -5.5l-1 1q-4 -1 -7 0.5t-5 3.5l-1.5 1.5t-1.5 0.5l-96 67l-95 -66l-1.5 -1.5l-1.5 -1.5q-2 -2 -5 -3.5
t-7 -1.5l-1 1q-6 -1 -10.5 3.5t-6.5 10.5q0 5 2.5 8.5t5.5 6.5l120 120v0z" />
    <glyph glyph-name="odieresis" unicode="&#xf6;" horiz-adv-x="511" 
d="M471 206q0 -97 -59.5 -157t-156.5 -60q-98 0 -156.5 56t-58.5 156t57.5 162.5t160.5 62.5t158 -60.5t55 -160.5v1zM381 204q0 10 -0.5 20.5t-0.5 21.5q-5 57 -29.5 103.5t-94.5 46.5q-67 0 -93 -47t-31 -103q-1 -12 -1.5 -24.5t-0.5 -24.5q0 -9 0.5 -17.5t1.5 -17.5
q5 -54 32 -99.5t91 -45.5q63 0 90.5 45t33.5 99q1 11 1.5 21.5t0.5 20.5v1zM104 533q0 24 17.5 41.5t42.5 17.5t42.5 -17.5t17.5 -42.5t-17.5 -42.5t-42.5 -17.5t-42.5 17.5t-17.5 42.5v1zM287 533q0 24 18 41.5t42 17.5q25 0 42.5 -17.5t17.5 -42.5t-17.5 -42.5
t-42.5 -17.5q-24 0 -42 17.5t-18 42.5v1z" />
    <glyph glyph-name="otilde" unicode="&#xf5;" horiz-adv-x="511" 
d="M471 206q0 -97 -59.5 -157t-156.5 -60q-98 0 -156.5 56t-58.5 156t57.5 162.5t160.5 62.5t158 -60.5t55 -160.5v1zM381 204q0 10 -0.5 20.5t-0.5 21.5q-5 57 -29.5 103.5t-94.5 46.5q-67 0 -93 -47t-31 -103q-1 -12 -1.5 -24.5t-0.5 -24.5q0 -9 0.5 -17.5t1.5 -17.5
q5 -54 32 -99.5t91 -45.5q63 0 90.5 45t33.5 99q1 11 1.5 21.5t0.5 20.5v1zM402 593l17 -12q-2 -4 -4 -7l-4 -6q-18 -25 -42.5 -46.5t-56.5 -22.5q-18 0 -36 4t-35 10q-18 5 -36 9t-36 4q-16 0 -29.5 -9t-23.5 -20q-2 -1 -3 -2.5t-2 -2.5l-19 12q3 5 7 10.5l8 11.5
q17 24 40.5 44.5t53.5 20.5q17 0 33 -3.5t32 -8.5q1 -1 3 -1.5t3 -0.5l35.5 -9.5t36.5 -4.5q18 0 32 9t26 20v1z" />
    <glyph glyph-name="uacute" unicode="&#xfa;" horiz-adv-x="519" 
d="M369 -5q-2 5 -3.5 9.5t-3.5 9.5q-3 10 -4.5 20t-1.5 20q-33 -30 -71 -47.5t-84 -17.5q-47 0 -83 26.5t-38 76.5v32v192q0 37 -13.5 57.5t-53.5 21.5v32h150v-290q0 -45 19.5 -71.5t67.5 -26.5q32 0 57.5 14.5t48.5 34.5v228q0 37 -13.5 57.5t-53.5 21.5v32h150v-316
q0 -37 14.5 -58.5t52.5 -22.5v-30q-34 0 -68.5 -1.5t-68.5 -3.5v0zM218 608h123q1 -1 2 -1h2q3 -1 5.5 -2.5t2.5 -5.5q0 -3 -2 -5l-4 -4l-158 -113q-3 -2 -6 -3.5t-6 -2.5h-2.5h-2.5q-3 1 -5 2.5t-2 3.5v2v1.5t1 2.5l52 125v0z" />
    <glyph glyph-name="ugrave" unicode="&#xf9;" horiz-adv-x="519" 
d="M369 -5q-2 5 -3.5 9.5t-3.5 9.5q-3 10 -4.5 20t-1.5 20q-33 -30 -71 -47.5t-84 -17.5q-47 0 -83 26.5t-38 76.5v32v192q0 37 -13.5 57.5t-53.5 21.5v32h150v-290q0 -45 19.5 -71.5t67.5 -26.5q32 0 57.5 14.5t48.5 34.5v228q0 37 -13.5 57.5t-53.5 21.5v32h150v-316
q0 -37 14.5 -58.5t52.5 -22.5v-30q-34 0 -68.5 -1.5t-68.5 -3.5v0zM300 608l52 -124q1 -2 1 -3.5v-2.5v0q0 -3 -2 -4.5t-5 -2.5h-2.5h-2.5q-3 1 -6 2.5t-6 2.5l-158 115q-2 1 -4 3t-2 5q0 4 2.5 5.5t5.5 2.5h2h2l123 1v0z" />
    <glyph glyph-name="ucircumflex" unicode="&#xfb;" horiz-adv-x="519" 
d="M369 -5q-2 5 -3.5 9.5t-3.5 9.5q-3 10 -4.5 20t-1.5 20q-33 -30 -71 -47.5t-84 -17.5q-47 0 -83 26.5t-38 76.5v32v192q0 37 -13.5 57.5t-53.5 21.5v32h150v-290q0 -45 19.5 -71.5t67.5 -26.5q32 0 57.5 14.5t48.5 34.5v228q0 37 -13.5 57.5t-53.5 21.5v32h150v-316
q0 -37 14.5 -58.5t52.5 -22.5v-30q-34 0 -68.5 -1.5t-68.5 -3.5v0zM259 622l121 -119q0 -1 0.5 -1.5l1.5 -1.5q2 -2 3.5 -4.5t1.5 -5.5q0 -7 -4 -12.5t-12 -5.5l-1 1q-4 -1 -7 0.5t-5 3.5l-1.5 1.5t-1.5 0.5l-96 67l-95 -66l-1.5 -1.5l-1.5 -1.5q-2 -2 -5 -3.5t-7 -1.5l-1 1
q-6 -1 -10.5 3.5t-6.5 10.5q0 5 2.5 8.5t5.5 6.5l120 120v0z" />
    <glyph glyph-name="udieresis" unicode="&#xfc;" horiz-adv-x="519" 
d="M369 -5q-2 5 -3.5 9.5t-3.5 9.5q-3 10 -4.5 20t-1.5 20q-33 -30 -71 -47.5t-84 -17.5q-47 0 -83 26.5t-38 76.5v32v192q0 37 -13.5 57.5t-53.5 21.5v32h150v-290q0 -45 19.5 -71.5t67.5 -26.5q32 0 57.5 14.5t48.5 34.5v228q0 37 -13.5 57.5t-53.5 21.5v32h150v-316
q0 -37 14.5 -58.5t52.5 -22.5v-30q-34 0 -68.5 -1.5t-68.5 -3.5v0zM108 533q0 24 17.5 41.5t42.5 17.5t42.5 -17.5t17.5 -42.5t-17.5 -42.5t-42.5 -17.5t-42.5 17.5t-17.5 42.5v1zM291 533q0 24 18 41.5t42 17.5q25 0 42.5 -17.5t17.5 -42.5t-17.5 -42.5t-42.5 -17.5
q-24 0 -42 17.5t-18 42.5v1z" />
    <glyph glyph-name="dagger" unicode="&#x2020;" horiz-adv-x="553" 
d="M291 470q1 -1 2 -1.5t2 -0.5h2h2q20 0 38 5.5t36 12.5q17 7 35.5 12.5t37.5 5.5q26 0 46 -12.5t20 -41.5q0 -25 -19.5 -39t-42.5 -15q-22 0 -43 6.5l-42 13.5q-1 1 -2 1t-1 1l-35.5 12t-35.5 8v-5.5v-4.5q2 -33 16 -64.5t35 -55.5q-29 -85 -36.5 -173t-10.5 -175
q-1 -27 -1.5 -53.5t-2.5 -53.5h-36q0 42 -0.5 85t-2.5 85q-3 73 -13 145t-34 140q14 16 25 37.5t18 44.5q3 10 5 20t3 19v4.5t-1 4.5l-11.5 -2l-11.5 -2q-13 -3 -26 -7.5t-26 -9.5l-41.5 -14.5t-35.5 -6.5h-6t-6 1q-21 2 -39 15.5t-18 37.5q0 29 20.5 41.5t45.5 12.5
q20 0 38 -5.5t36 -12.5t36.5 -12.5t37.5 -5.5h2h2l1 0.5t2 0.5q-1 18 -7 36l-12 35q-5 12 -9.5 24.5t-6.5 24.5q-2 7 -3 14.5t-1 14.5q0 27 15.5 45.5t43.5 18.5q26 0 40.5 -18.5t14.5 -41.5q0 -21 -6 -41.5t-14 -39.5l-12 -35.5t-7 -36.5v1z" />
    <glyph glyph-name="degree" horiz-adv-x="423" 
d="M203 637q41 -1 74.5 -26t33.5 -70q0 -37 -28.5 -63t-65.5 -26t-65.5 27t-28.5 64q0 34 22.5 61.5t57.5 31.5v1zM148 544q2 -29 22.5 -48.5t48.5 -19.5t47.5 20.5t19.5 48.5t-22 47t-48 19q-28 0 -48 -19.5t-20 -48.5v1z" />
    <glyph glyph-name="cent" unicode="&#xa2;" horiz-adv-x="467" 
d="M263 519v-360q1 -1 2 -1h2q0 -1 1 -1h2q41 0 73 20.5t45 60.5l33 -9q-11 -47 -51 -76t-85 -35q-5 -1 -11 -1.5t-11 -0.5v-106h-34v107q-87 7 -135 65t-48 144q0 11 1 22.5t3 22.5q12 69 58 126.5t121 59.5v100h34v-99q11 -1 24.5 -3t27.5 -6q30 -8 54.5 -26t27.5 -46
q0 -16 -11 -28t-28 -12q-10 0 -19 3.5t-17 9.5q0 30 -15 45.5t-44 22.5v1zM229 519q-39 -10 -59 -43t-27 -71q-3 -14 -4 -27.5t-1 -25.5q0 -10 0.5 -20.5t2.5 -21.5q6 -44 26.5 -84.5t61.5 -60.5v354v0z" />
    <glyph glyph-name="sterling" unicode="&#xa3;" horiz-adv-x="467" 
d="M377 321v-27h-118q-3 -58 -18.5 -113t-51.5 -101q32 -10 63.5 -15.5t64.5 -5.5q11 0 24.5 1.5t26.5 5.5q35 9 63.5 30t29.5 56l12 1q1 -5 1.5 -8.5t0.5 -6.5q1 -4 1 -7.5v-7.5q0 -7 -1 -14l-2 -14q-9 -43 -40 -77.5t-76 -34.5q-52 0 -99 20.5t-90 47.5
q-25 -27 -56.5 -44.5t-69.5 -17.5q-3 0 -6.5 0.5t-7.5 0.5q-22 3 -40.5 17t-18.5 38q0 27 20.5 43.5t45.5 20.5q4 1 8.5 1.5t8.5 0.5q25 0 49 -5t47 -12q7 13 11 27t5 29q2 18 2.5 36t1.5 36q1 17 1 35v36l-106 1v27h107q0 28 2 63t8 71q14 85 56 156t136 71
q50 0 85.5 -27.5t35.5 -80.5q0 -38 -25 -65.5t-65 -27.5h-2.5t-3.5 1h-2.5h-3.5q17 18 26 39.5t9 46.5v1.5v1.5q-1 31 -21 56.5t-52 25.5q-35 0 -54 -26t-24 -57q0 -1 -0.5 -2.5t-0.5 -2.5q-4 -34 -6.5 -69t-3.5 -71q-1 -26 -1.5 -52.5t-0.5 -52.5l115 1v0zM133 69
q-16 7 -33.5 11.5t-36.5 4.5h-4.5t-4.5 -1q-14 -2 -25.5 -10.5t-11.5 -24.5q0 -13 10 -22.5t24 -9.5q25 0 45 15t35 33q0 1 0.5 1.5l1.5 1.5v1z" />
    <glyph glyph-name="section" unicode="&#xa7;" horiz-adv-x="553" 
d="M392 129q24 -25 41.5 -53t17.5 -63q0 -67 -52 -113.5t-118 -46.5q-6 0 -12.5 0.5t-13.5 1.5q-51 8 -94 44t-43 91q0 13 7.5 23t22.5 11q15 0 23 -11t15 -25q2 -6 4.5 -12t5.5 -12q10 -23 29.5 -42t59.5 -19q36 0 65 23.5t29 61.5q0 28 -23 50.5t-56 44.5l-26.5 17.5
l-27.5 16.5q-50 32 -91.5 72t-41.5 100q0 42 23 79.5t51 66.5q-22 21 -40.5 49t-18.5 60q0 65 49.5 101.5t109.5 36.5q12 0 25.5 -2.5t27.5 -7.5q35 -12 63.5 -37t28.5 -59v-4.5t-1 -4.5q-2 -11 -9.5 -20.5t-19.5 -10.5l-1 1q-12 -1 -19.5 8t-14.5 23l-4.5 9t-5.5 10
q-10 19 -25.5 35t-46.5 16q-5 0 -9.5 -0.5t-9.5 -1.5q-25 -5 -46.5 -22t-21.5 -45q0 -29 23.5 -53t56.5 -47l24 -16l24 -16q49 -32 89 -70.5t40 -93.5q0 -41 -19 -77t-44 -68v1zM213 412q-13 -19 -23 -40t-10 -44q0 -37 32.5 -68.5t72.5 -56.5q22 -15 43.5 -28t36.5 -24
l6 13.5l6 12.5q5 13 8.5 26.5t3.5 28.5q0 39 -32 71t-71 58l-39 26.5t-34 23.5v1z" />
    <glyph glyph-name="bullet" horiz-adv-x="600" 
d="M198 286q0 39 28 67t68 28q41 0 69.5 -28t28.5 -68t-28.5 -68t-69.5 -28q-40 0 -68 28t-28 68v1z" />
    <glyph glyph-name="paragraph" unicode="&#xb6;" horiz-adv-x="570" 
d="M530 667v-25h-18q-44 -1 -52.5 -15t-8.5 -52v-9v-569v-22q1 -30 13 -35.5t39 -5.5h21v-25h-122v731h-89v-731h-134v25h22q43 0 52.5 13t10.5 52v351q-6 -1 -11.5 -1h-10.5q-6 -1 -11.5 -1h-10.5q-75 0 -124 42.5t-49 120.5v2.5v3.5q1 37 19 71t50 53q24 15 50.5 19.5
t53.5 5.5h9h9l49 1h243v0zM264 642q-82 -1 -113 -27.5t-31 -116.5q0 -48 26.5 -84t77.5 -36l40 1v263v0z" />
    <glyph glyph-name="germandbls" unicode="&#xdf;" horiz-adv-x="531" 
d="M214 0h-195v31q40 0 53.5 21t13.5 58v390q0 81 53 131.5t134 50.5q68 0 123.5 -41t55.5 -114q0 -56 -37 -86.5t-83 -50.5q69 -19 110 -71t41 -123v-10.5t-1 -10.5q-6 -70 -49 -128t-121 -58q-6 0 -12 1l-12 2q-21 6 -38.5 19.5t-17.5 36.5q0 14 10 25t24 11
q15 0 23.5 -9.5t16.5 -20.5v-0.5t1 -1.5q7 -11 15 -19.5t21 -8.5q20 0 30 27t14 59q4 25 4.5 47.5t0.5 32.5q0 95 -35.5 136t-132.5 41v39q1 -1 2 -1h3q1 -1 2 -1h2q62 0 98.5 31t36.5 95q0 53 -23.5 88.5t-81.5 35.5q-52 0 -73 -33t-21 -80v-436q0 -30 5.5 -51.5
t39.5 -23.5v-30v0z" />
    <glyph glyph-name="registered" unicode="&#xae;" horiz-adv-x="804" 
d="M402 -13q-143 0 -245 101.5t-102 244.5t102 244.5t245 101.5t244.5 -101.5t101.5 -244.5t-101.5 -244.5t-244.5 -101.5v0zM402 21q129 -1 221 91t92 221t-92 221t-221 92t-221 -92t-92 -221t92 -221t221 -92v1zM517 152l-100 173h-66v-117q0 -20 5.5 -29.5t27.5 -9.5
l17 1v-18h-164v18q25 -1 36.5 5t11.5 32v253q0 18 -6 27.5t-27 9.5l-18 1v18h169q8 -1 17 -1.5t17 -1.5q43 -4 78 -25t35 -73q0 -36 -19 -56.5t-50 -33.5l77 -130q8 -14 19 -20t26 -6v-17h-86v0zM351 342h52q38 -1 59 15t21 58q0 38 -22.5 57.5t-57.5 19.5l-52 1v-151v0z
" />
    <glyph glyph-name="copyright" unicode="&#xa9;" horiz-adv-x="804" 
d="M402 -13q-143 0 -245 101.5t-102 244.5t102 244.5t245 101.5t244.5 -101.5t101.5 -244.5t-101.5 -244.5t-244.5 -101.5v0zM402 21q129 -1 221 91t92 221t-92 221t-221 92t-221 -92t-92 -221t92 -221t221 -92v1zM549 524v-117h-17q-11 38 -40.5 64t-70.5 26
q-62 0 -91 -45.5t-32 -99.5q-1 -5 -1 -9.5v-8.5q0 -61 26.5 -111.5t97.5 -50.5q44 0 77.5 25.5t56.5 59.5v-37q-26 -35 -63.5 -55t-81.5 -20q-80 0 -134.5 49.5t-54.5 131.5q0 83 53 139t135 56q16 0 30 -4l27 -8l24 -9t21 -4q7 0 10.5 5t6.5 10q0 2 0.5 3t1.5 2
q0 1 0.5 2.5t1.5 2.5l17 3v0z" />
    <glyph glyph-name="trademark" unicode="&#x2122;" horiz-adv-x="978" 
d="M304 267h-193v25q2 -1 3.5 -1h3.5q26 1 40.5 6.5t14.5 37.5v306h-65q-38 -1 -54 -23t-26 -54l-26 1l11 102h389l11 -102h-26q-10 31 -26 53t-54 22l-65 1v-305q0 -33 14.5 -38.5t40.5 -6.5h3.5h3.5v-24v0zM691 267h-25l-123 282l-10 23l-10 24v-219q0 -44 8 -63.5
t53 -22.5v-24h-156v25q41 0 51.5 16t10.5 54v228v14q0 25 -17.5 31t-39.5 6h-2.5h-2.5v26h136l95 -216l9.5 -23.5l9.5 -23.5q4 -12 8.5 -23.5t9.5 -22.5l1 4l133 305h135v-25q-2 -1 -3.5 -1h-3.5q-26 -1 -40.5 -6.5t-14.5 -37.5v-261v-6q0 -8 1.5 -15.5t6.5 -12.5
q4 -4 10.5 -6.5t13.5 -3.5q5 -1 10 -1h9l11 1v-25h-195v25q5 -1 9.5 -1t8.5 1q31 1 38 14t7 40v198v12.5t1 13.5v12.5v13.5q-1 -3 -2 -5.5t-2 -4.5q-1 -3 -2 -5.5t-2 -5.5l-135 -308v0z" />
    <glyph glyph-name="acute" unicode="&#xb4;" horiz-adv-x="500" 
d="M210 608h123q1 -1 2 -1h2q3 -1 5.5 -2.5t2.5 -5.5q0 -3 -2 -5l-4 -4l-158 -113q-3 -2 -6 -3.5t-6 -2.5h-2.5h-2.5q-3 1 -5 2.5t-2 3.5v2v1.5t1 2.5l52 125v0z" />
    <glyph glyph-name="dieresis" unicode="&#xa8;" horiz-adv-x="500" 
d="M98 533q0 24 17.5 41.5t42.5 17.5t42.5 -17.5t17.5 -42.5t-17.5 -42.5t-42.5 -17.5t-42.5 17.5t-17.5 42.5v1zM281 533q0 24 18 41.5t42 17.5q25 0 42.5 -17.5t17.5 -42.5t-17.5 -42.5t-42.5 -17.5q-24 0 -42 17.5t-18 42.5v1z" />
    <glyph glyph-name="AE" unicode="&#x2260;" 
 />
    <glyph glyph-name="Oslash" unicode="&#xc6;" horiz-adv-x="881" 
d="M842 207h30l-12 -207h-548v31q58 2 79 16.5t21 75.5v195h-158l-90 -182l-11.5 -27.5t-7.5 -27.5q0 -27 18.5 -37t41.5 -13q4 0 7.5 -0.5t7.5 -0.5v-30h-223v31q44 0 68.5 21.5t43.5 59.5l233 472q1 0 1.5 1.5t0.5 2.5q1 3 2.5 6t1.5 6q0 19 -14 26t-30 8q-7 1 -13 1h-12
l-7 1v31h529l19 -164h-31q-19 69 -50 98.5t-105 29.5l-122 1v-242h76q41 -1 59 27.5t19 64.5l30 1v-227h-30q-1 37 -15 66t-59 29l-80 1v-228q0 -59 34 -75.5t83 -16.5q95 0 146 39.5t67 134.5v1zM412 352v286l-140 -286h140v0z" />
    <glyph glyph-name="plusminus" unicode="&#xd8;" horiz-adv-x="802" 
d="M640 598l3 -2q56 -52 84 -120.5t28 -143.5q0 -154 -101 -251.5t-254 -97.5h-7.5h-7.5q-53 2 -104 17t-94 46l-68 -82l-30 24l69 83q-2 1 -4.5 3t-4.5 4q-52 51 -77.5 116.5t-25.5 137.5q0 155 101 252.5t253 97.5q56 0 110.5 -15t100.5 -47l68 85l30 -24l-69 -83v0z
M593 546l-361 -458q32 -37 76.5 -54t91.5 -17q132 0 184 93.5t55 205.5v8.5v8.5q0 15 -0.5 30t-1.5 30q-4 40 -13.5 79t-30.5 73v1zM209 119l361 459q-33 36 -77 54t-93 18q-132 0 -184 -94.5t-55 -208.5v-6.5v-7.5q0 -10 0.5 -20.5t0.5 -21.5q3 -45 13 -89.5t34 -83.5v1z
" />
    <glyph glyph-name="yen" unicode="&#x221e;" 
 />
    <glyph glyph-name="mu" unicode="&#xb1;" horiz-adv-x="500" 
d="M20 96h460v-49h-460v49v0zM20 379h204v195h51v-195h205v-49h-205v-190h-51v190h-204v49v0z" />
    <glyph glyph-name="ordfeminine" unicode="&#x2264;" 
 />
    <glyph glyph-name="ordmasculine" unicode="&#x2265;" 
 />
    <glyph glyph-name="ae" unicode="&#xa5;" horiz-adv-x="581" 
d="M335 268h202v-31h-202v-138q0 -42 9 -61.5t56 -19.5l33 1v-19h-278v19h35q47 -1 55 18.5t8 60.5v139h-200v31h200v10l-63 105h-137v30h122l-76 152l-8 15.5l-8 14.5q-13 24 -30 37t-53 15v20h236v-19h-30q-4 -1 -8 -1t-9 -1q-9 -1 -17 -5t-10 -13q0 -10 4 -19t8 -17
q1 -2 2 -3.5t2 -3.5l143 -266l129 234q1 1 2 3l2 4q7 12 12.5 25.5t5.5 26.5q0 17 -13 24t-29 9q-7 1 -14 1.5t-13 0.5v20h178v-19q-38 -4 -58.5 -30.5t-36.5 -57.5q-2 -2 -3 -4.5t-2 -4.5l-73 -138h129v-30h-143l-59 -93v-22v0z" />
    <glyph glyph-name="oslash" unicode="&#xb5;" horiz-adv-x="550" 
d="M465 457v-337v-12v-10t1 -9q1 -18 8 -33t27 -15q9 0 17.5 3t15.5 7v-16l-91 -45q-1 0 -2 -0.5l-1 -0.5q-1 -1 -2 -1h-2q-19 0 -28.5 14.5t-14.5 31.5q-2 10 -3.5 19t-2.5 16l-6 -6l-6 -6q-29 -27 -61 -49.5t-73 -22.5q-46 0 -72 23t-40 63q0 -31 3.5 -61t7.5 -60l2 -14
l2 -14l4 -26.5l4 -26.5v-4.5v-4.5q-2 -19 -11.5 -35t-32.5 -16q-21 0 -31 15.5t-11 34.5v1.5v1.5q0 11 1.5 22.5t3.5 23.5q1 2 1.5 5t0.5 6q15 86 22 174.5t7 176.5v187h83v-287q0 -10 0.5 -20t1.5 -20q4 -37 22 -67t61 -30q38 0 65 23.5t47 51.5v349h83v0z" />
    <glyph glyph-name="questiondown" unicode="&#x2202;" 
 />
    <glyph glyph-name="exclamdown" unicode="&#x3a3;" 
 />
    <glyph glyph-name="florin" unicode="&#x220f;" 
 />
    <glyph glyph-name="guillemotleft" unicode="&#x3c0;" 
 />
    <glyph glyph-name="guillemotright" unicode="&#x222b;" 
 />
    <glyph glyph-name="ellipsis" unicode="&#xaa;" horiz-adv-x="322" 
d="M313 332v-31h-283v31h283v0zM295 442l11 -7q-9 -17 -23 -29.5t-34 -12.5q-24 0 -32.5 14.5t-12.5 35.5q-23 -19 -49 -34.5t-58 -15.5q-25 0 -43 16.5t-18 41.5q0 33 30 54.5t66 34.5q20 8 39 13t33 8v45q0 23 -14.5 35t-38.5 12q-4 0 -11.5 -1t-16.5 -3
q-12 -4 -21.5 -9.5t-9.5 -13.5q0 -3 1 -6t3 -7l0.5 -1t0.5 -2q2 -3 3.5 -7t1.5 -9q0 -11 -8.5 -19t-19.5 -8q-13 0 -21 10t-8 22q0 25 21 41.5t46 23.5q12 4 23 5.5t20 1.5q43 0 71 -16t28 -64v-133v-8v-6.5v-5.5q1 -8 4 -15t11 -7q7 0 11.5 5t8.5 10q2 3 3.5 5.5t2.5 4.5v1
zM204 543q-10 -3 -22 -7t-25 -9q-26 -10 -47 -26t-22 -40q0 -16 9.5 -27.5t26.5 -11.5q22 0 41 11.5t34 25.5l2.5 2.5l2.5 2.5v79v0z" />
    <glyph glyph-name="Agrave" unicode="&#xba;" horiz-adv-x="322" 
d="M303 332v-31h-283v31h283v0zM161 672q59 -1 94.5 -41t35.5 -98t-33.5 -100t-95.5 -42q-61 0 -95.5 42t-34.5 101q0 56 35.5 96.5t93.5 40.5v1zM161 654q-40 -1 -55.5 -29t-19.5 -61q0 -8 -0.5 -16t-0.5 -15q0 -8 0.5 -17t1.5 -18q3 -33 19 -60.5t55 -27.5q40 0 55.5 27.5
t19.5 60.5q1 9 1.5 18t0.5 17q0 7 -0.5 15t-1.5 16q-3 33 -19 61t-56 28v1z" />
    <glyph glyph-name="Atilde" unicode="&#x3a9;" 
 />
    <glyph glyph-name="Otilde" unicode="&#xe6;" horiz-adv-x="687" 
d="M649 230h-280v-5v-3q-1 -2 -1 -3.5v-3.5q0 -9 0.5 -18.5t1.5 -18.5q5 -56 32 -103t94 -47q42 0 71 23t54 53l28 -15q-25 -47 -70 -73.5t-98 -26.5q-50 0 -96 21.5t-75 62.5q-20 -29 -53.5 -50.5t-70.5 -28.5q-10 -3 -20 -4t-20 -1q-47 0 -76.5 30.5t-29.5 76.5v5.5v4.5
q2 29 14.5 56t39.5 41q31 16 65.5 27t69.5 19q14 3 29 5l29 4v16.5t-1 16.5q-2 39 -16.5 70.5t-61.5 31.5q-34 0 -46 -15.5t-18 -33.5q-1 -1 -1.5 -2t-0.5 -3q-6 -17 -15.5 -30.5t-35.5 -13.5q-3 0 -6.5 0.5t-7.5 1.5q-10 2 -19 8.5t-10 17.5q0 39 31.5 62.5t68.5 32.5
q15 4 29.5 6t26.5 2q44 0 77 -11.5t62 -44.5q26 26 59.5 41t70.5 15q86 0 131 -58t45 -139v1zM287 230q-13 -4 -28 -7.5l-31 -7.5q-39 -11 -72 -33t-33 -66q0 -31 16 -53t50 -22q7 0 14.5 1t14.5 3q24 6 46 21.5t32 37.5q-4 9 -5 18.5l-2 19.5q-1 22 -1.5 43.5t-0.5 43.5v1z
M561 259v6.5v7.5q-2 44 -18.5 80.5t-71.5 36.5q-49 0 -71.5 -35t-27.5 -78q-1 -5 -1.5 -9.5t-0.5 -9.5l191 1v0z" />
    <glyph glyph-name="OE" unicode="&#xf8;" horiz-adv-x="514" 
d="M418 372q27 -25 40 -58.5t17 -68.5q1 -10 1.5 -19t0.5 -18q0 -97 -60 -157t-156 -60h-6.5h-6.5q-34 2 -66.5 11t-59.5 29l-50 -56l-29 25l51 58q-20 22 -31 50.5t-15 59.5q-1 9 -1.5 17.5t-0.5 17.5q0 101 57.5 163t160.5 62q9 0 18 -0.5t19 -1.5q23 -3 45.5 -10.5
t41.5 -20.5l52 61l29 -25l-51 -59v0zM372 322l-207 -251q17 -26 42 -38.5t54 -12.5q63 0 90 44.5t34 97.5q1 11 1.5 22t0.5 21q0 11 -0.5 23t-1.5 24q-1 18 -4 35.5t-9 33.5v1zM148 109l205 249q-16 20 -40.5 30t-50.5 10q-66 0 -92 -46t-32 -102q-1 -12 -1.5 -25t-0.5 -25
q0 -23 2.5 -46t9.5 -46v1z" />
    <glyph glyph-name="oe" unicode="&#xbf;" horiz-adv-x="412" 
d="M262 188h35v-204h-20q-8 13 -21 22.5t-30 9.5q-27 0 -40.5 -21.5t-18.5 -48.5q-3 -13 -4 -26.5t-1 -23.5t1 -20.5t3 -20.5q6 -36 26 -65.5t61 -29.5q24 0 35 11t19 24q1 2 2 4.5t2 4.5q6 10 12.5 17.5t17.5 8.5q14 0 23.5 -7.5t9.5 -22.5q0 -26 -22.5 -41.5t-49.5 -21.5
q-13 -4 -26.5 -5.5t-23.5 -1.5q-72 0 -120 52t-48 122q0 7 0.5 15t2.5 15q8 45 39.5 82t80.5 37q15 0 29 -4.5t26 -12.5v152v0zM279 427q23 -1 39 -17.5t16 -39.5t-16 -39.5t-39 -16.5t-39.5 16.5t-16.5 39.5t16.5 39.5t39.5 16.5v1z" />
    <glyph glyph-name="endash" unicode="&#xa1;" horiz-adv-x="247" 
d="M106 188h36q1 -20 2.5 -38.5t4.5 -37.5q2 -20 5.5 -40t6.5 -40q8 -42 14 -83.5t6 -80.5q0 -10 -1 -27.5t-4 -36.5q-5 -28 -17 -51t-35 -23q-26 0 -38 24t-16 52q-2 18 -2.5 34.5t-0.5 27.5q0 39 6 81t14 84q3 17 5.5 34t5.5 34q3 22 5 43.5t3 42.5v1zM124 427
q23 -1 39 -17.5t16 -39.5t-16 -39.5t-39 -16.5t-39.5 16.5t-16.5 39.5t16.5 39.5t39.5 16.5v1z" />
    <glyph glyph-name="emdash" unicode="&#xac;" 
 />
    <glyph glyph-name="quotedblleft" unicode="&#x221a;" 
 />
    <glyph glyph-name="quotedblright" unicode="&#x192;" horiz-adv-x="467" 
d="M387 472l-5 -30h-109l-41 -229l-13 -70t-21 -90q-18 -64 -46.5 -119.5t-71.5 -65.5l-24 16q23 22 37 58.5t23 75.5q7 30 11.5 59t8.5 51l56 314h-83l5 30h84l14 80q1 6 3 14t4 15q16 57 55 104t103 47q8 0 16 -1t17 -3q25 -6 46 -21.5t21 -43.5q0 -18 -13 -30t-30 -12
q-15 0 -27 10t-12 26q0 2 0.5 4t0.5 5q0 2 0.5 4t0.5 4q0 11 -8.5 17t-18.5 7h-2.5h-2.5q-29 0 -40.5 -20t-16.5 -44q-1 -4 -2 -9t-2 -9v-1.5v-1.5l-26 -141h109v0z" />
    <glyph glyph-name="quoteleft" unicode="&#x2248;" 
 />
    <glyph glyph-name="quoteright" unicode="&#x2206;" 
 />
    <glyph glyph-name="ydieresis" unicode="&#xab;" horiz-adv-x="433" 
d="M128 217l95 -120q5 -7 8 -13t3 -14v-1q0 -7 -5 -10.5t-11 -3.5q-9 0 -16.5 5t-13.5 10q-3 3 -5.5 5t-4.5 4l-129 121q-1 -1 -1.5 -0.5t-0.5 1.5q-3 3 -6 7t-3 8q0 5 3 8.5t6 6.5q0 1 0.5 1.5t1.5 0.5l129 121q2 0 3.5 1.5l3.5 3.5q1 0 1 0.5t1 0.5q7 6 14 10.5t15 6.5
q7 0 12.5 -2.5t5.5 -10.5q0 -6 -2 -11t-5 -10q-1 -2 -2 -3.5t-2 -3.5l-95 -119v0zM288 217l94 -120q5 -7 8.5 -13t3.5 -14v-1q0 -7 -5 -10.5t-11 -3.5q-9 0 -16.5 5t-13.5 10q-3 3 -5.5 5t-5.5 4l-128 121q-1 -1 -1.5 -0.5t-0.5 1.5q-3 3 -6 7t-3 8q0 5 3 8.5t6 6.5
q0 1 0.5 1.5t1.5 0.5l128 121q1 0 2 1t2 1q8 7 16.5 13t18.5 8q7 0 12.5 -2.5t5.5 -10.5q0 -6 -2 -11t-6 -10q-1 -2 -2 -3.5t-2 -3.5l-94 -119v0z" />
    <glyph glyph-name="Ydieresis" unicode="&#xbb;" horiz-adv-x="433" 
d="M146 217l-95 120q-1 0 -1.5 1l-0.5 1q-3 6 -6 11t-3 11q0 7 4.5 11.5t11.5 4.5q9 0 16.5 -5t13.5 -10q3 -3 5.5 -5t4.5 -4l129 -119q1 -2 1.5 -2.5l0.5 -0.5q3 -3 6 -6.5t3 -8.5q0 -4 -3 -8t-6 -7q0 -1 -0.5 -1.5t-1.5 -0.5l-129 -119q-2 -3 -4.5 -5t-5.5 -5
q-6 -5 -13 -10t-15 -5q-7 0 -12.5 2.5t-5.5 10.5t3 14.5t8 12.5l95 122v0zM305 217l-94 120q-4 5 -7.5 11t-4.5 13q0 8 4.5 12t11.5 4q9 0 17.5 -5.5t15.5 -11.5q2 -2 4 -3.5t4 -3.5l129 -119q1 -2 2 -3t2 -3q3 -2 5 -5t2 -7t-2 -7t-5 -6l-2 -2l-2 -2l-129 -119
q-2 -3 -4.5 -5t-5.5 -5q-6 -5 -13.5 -10t-15.5 -5q-7 0 -12.5 3.5t-5.5 11.5q1 8 4.5 14t7.5 11l94 122v0z" />
    <glyph glyph-name="fraction" unicode="&#x2026;" horiz-adv-x="711" 
d="M119 -13q-23 0 -39.5 16t-16.5 39t16.5 39.5t39.5 16.5t39 -16.5t16 -39.5t-16 -39t-39 -16v0zM356 -13q-23 0 -39.5 16t-16.5 39t16.5 39.5t39.5 16.5t39 -16.5t16 -39.5t-16 -39t-39 -16v0zM593 -13q-23 0 -39.5 16t-16.5 39t16.5 39.5t39.5 16.5t39 -16.5t16 -39.5
t-16 -39t-39 -16v0z" />
    <glyph glyph-name="currency" unicode="&#xc0;" horiz-adv-x="723" 
d="M382 678l252 -581q14 -34 35 -50t58 -17v-30h-275v31h22q5 -1 10.5 -1t11.5 1q13 2 24.5 8.5t11.5 21.5q0 9 -2.5 18t-6.5 17l-54 130h-266l-52 -129q-3 -8 -5 -14.5t-2 -13.5q0 -21 14.5 -29t31.5 -9q4 -1 8 -1h8l21 1v-31h-230v31q43 0 67.5 12.5t40.5 52.5l240 582h37
v0zM450 268l-87 212q-1 3 -3 7t-3 8l-12 32t-10 32q-1 -3 -2 -6.5t-2 -6.5l-2 -6l-2 -6l-108 -266h231v0zM403 843l52 -124q1 -2 1 -3.5v-2.5v0q0 -3 -2 -4.5t-5 -2.5h-2.5h-2.5q-3 1 -6 2.5t-6 2.5l-158 115q-2 1 -4 3t-2 5q0 4 2.5 5.5t5.5 2.5h2h2l123 1v0z" />
    <glyph glyph-name="guilsinglleft" unicode="&#xc3;" horiz-adv-x="723" 
d="M382 678l252 -581q14 -34 35 -50t58 -17v-30h-275v31h22q5 -1 10.5 -1t11.5 1q13 2 24.5 8.5t11.5 21.5q0 9 -2.5 18t-6.5 17l-54 130h-266l-52 -129q-3 -8 -5 -14.5t-2 -13.5q0 -21 14.5 -29t31.5 -9q4 -1 8 -1h8l21 1v-31h-230v31q43 0 67.5 12.5t40.5 52.5l240 582h37
v0zM450 268l-87 212q-1 3 -3 7t-3 8l-12 32t-10 32q-1 -3 -2 -6.5t-2 -6.5l-2 -6l-2 -6l-108 -266h231v0zM509 823l17 -12q-2 -4 -4 -7l-4 -6q-18 -25 -42.5 -46.5t-56.5 -22.5q-18 0 -36 4t-35 10q-18 5 -36 9t-36 4q-16 0 -29.5 -9t-23.5 -20q-2 -1 -3 -2.5t-2 -2.5
l-19 12q3 5 7 10.5l8 11.5q17 24 40.5 44.5t53.5 20.5q17 0 33 -3.5t32 -8.5q1 -1 3 -1.5t3 -0.5l35.5 -9.5t36.5 -4.5q18 0 32 9t26 20v1z" />
    <glyph glyph-name="guilsinglright" unicode="&#xd5;" horiz-adv-x="802" 
d="M400 -17q-151 0 -252.5 98.5t-101.5 250.5q0 155 101 252.5t253 97.5q153 0 254 -97.5t101 -252.5q0 -153 -101.5 -251t-253.5 -98v0zM400 18q132 -1 184 92.5t55 205.5v8.5v8.5v9.5v9.5q-4 112 -55.5 205t-183.5 93q-131 0 -183 -93t-56 -205v-9.5v-9.5v-6v-5
q2 -115 53.5 -210t185.5 -95v1zM547 822l17 -12q-2 -4 -4 -7l-4 -6q-18 -25 -42.5 -46.5t-56.5 -22.5q-18 0 -36 4t-35 10q-18 5 -36 9t-36 4q-16 0 -29.5 -9t-23.5 -20q-2 -1 -3 -2.5t-2 -2.5l-19 12q3 5 7 10.5l8 11.5q17 24 40.5 44.5t53.5 20.5q17 0 33 -3.5t32 -8.5
q1 -1 3 -1.5t3 -0.5l35.5 -9.5t36.5 -4.5q18 0 32 9t26 20v1z" />
    <glyph glyph-name="fi" unicode="&#x152;" horiz-adv-x="926" 
d="M888 208h30l-13 -208h-420q-13 0 -26.5 -1.5t-26.5 -4.5q-14 -2 -27 -3.5t-27 -1.5q-156 0 -243.5 98t-87.5 249q0 140 87.5 239t231.5 99q15 0 30.5 -1t31.5 -3q15 -1 30.5 -2.5t30.5 -1.5l359 1l18 -163h-32q-10 58 -42.5 92.5t-94.5 34.5l-139 1v-244h57
q49 -1 72.5 23t24.5 70l31 1v-227h-31l-1 12q-3 47 -24.5 66.5t-68.5 19.5l-60 1v-227q0 -62 31.5 -78.5t86.5 -16.5q97 0 146.5 39t65.5 136v1zM458 626q-22 6 -45 9.5t-46 3.5q-101 0 -143.5 -72t-53.5 -159q-3 -24 -4.5 -48t-1.5 -46q0 -11 0.5 -22t1.5 -23
q3 -42 14 -82.5t35 -75.5q23 -34 62 -58t82 -24q47 0 73 19.5t26 68.5v10v499v0z" />
    <glyph glyph-name="fl" unicode="&#x153;" horiz-adv-x="664" 
d="M381 231q0 -13 0.5 -25.5t1.5 -24.5q6 -56 32.5 -103t93.5 -47q42 0 72.5 21.5t53.5 53.5l29 -15q-28 -45 -68 -71t-95 -28q-43 0 -81.5 13t-71.5 41q-32 -28 -66.5 -42.5t-79.5 -14.5q-93 0 -147.5 61t-54.5 152q0 90 53 156.5t149 66.5q46 0 81 -13.5t65 -47.5
q26 29 60.5 45.5t74.5 16.5q89 0 133.5 -56.5t47.5 -139.5l-283 1v0zM199 393q-51 -1 -75 -39t-32 -84q-3 -16 -4 -32.5t-1 -30.5q0 -15 1 -32t4 -35q7 -45 30.5 -82.5t74.5 -37.5t73 38t29 83q2 19 3 37t1 34q0 15 -1 31.5t-4 34.5q-8 43 -30 78.5t-69 35.5v1zM382 259h191
q0 6 -0.5 14t-1.5 16q-4 38 -23.5 70t-65.5 32t-69.5 -34t-28.5 -74q-1 -7 -1.5 -13t-0.5 -12v1z" />
    <glyph glyph-name="daggerdbl" horiz-adv-x="467" 
d="M456 242v-50h-444v50h444v0z" />
    <glyph glyph-name="periodcentered" unicode="&#x2014;" horiz-adv-x="634" 
d="M634 241v-50h-634v50h634v0z" />
    <glyph glyph-name="quotedblbase" unicode="&#x201c;" horiz-adv-x="407" 
d="M177 684v-18q-30 -22 -54.5 -50.5t-24.5 -68.5q0 -10 2.5 -19t5.5 -18q4 0 7.5 0.5t7.5 0.5q3 1 6.5 1h7.5q23 0 38 -16.5t15 -38.5t-16.5 -38.5t-39.5 -16.5q-36 0 -58 28t-27 61q-1 5 -1.5 10t-0.5 10q0 59 38.5 107t93.5 65v1zM347 684v-18q-30 -22 -54.5 -50.5
t-24.5 -68.5q0 -10 2.5 -19t5.5 -18q4 0 7.5 0.5t7.5 0.5q3 1 6.5 1h7.5q23 0 38 -16.5t15 -38.5t-16.5 -38.5t-39.5 -16.5q-36 0 -58 28t-27 61q-1 5 -1.5 10t-0.5 10q0 59 38.5 107t93.5 65v1z" />
    <glyph glyph-name="perthousand" unicode="&#x201d;" horiz-adv-x="407" 
d="M56 403v17q30 21 54.5 49.5t24.5 68.5q0 10 -2 19t-6 18l-14 -2t-15 -1q-22 0 -37.5 16.5t-15.5 38.5q0 23 17 39.5t39 16.5q36 0 58 -28t27 -61q1 -5 1.5 -10t0.5 -10q0 -58 -38 -106.5t-94 -65.5v1zM227 403v17q29 21 53.5 49.5t24.5 68.5q0 10 -2 19t-5 18l-14.5 -2
t-14.5 -1q-22 0 -38 16.5t-16 38.5q0 23 17 39.5t39 16.5q36 0 58 -28t27 -61q1 -5 1.5 -10t0.5 -10q0 -58 -37.5 -106.5t-93.5 -65.5v1z" />
    <glyph glyph-name="Acircumflex" unicode="&#x2018;" horiz-adv-x="237" 
d="M177 684v-18q-30 -22 -54.5 -50.5t-24.5 -68.5q0 -10 2.5 -19t5.5 -18q4 0 7.5 0.5t7.5 0.5q3 1 6.5 1h7.5q23 0 38 -16.5t15 -38.5t-16.5 -38.5t-39.5 -16.5q-36 0 -58 28t-27 61q-1 5 -1.5 10t-0.5 10q0 59 38.5 107t93.5 65v1z" />
    <glyph glyph-name="Ecircumflex" unicode="&#x2019;" horiz-adv-x="237" 
d="M56 403v17q30 21 54.5 49.5t24.5 68.5q0 10 -2 19t-6 18l-14 -2t-15 -1q-22 0 -37.5 16.5t-15.5 38.5q0 23 17 39.5t39 16.5q36 0 58 -28t27 -61q1 -5 1.5 -10t0.5 -10q0 -58 -38 -106.5t-94 -65.5v1z" />
    <glyph glyph-name="Aacute" unicode="&#xf7;" 
 />
    <glyph glyph-name="Edieresis" unicode="&#x25ca;" 
 />
    <glyph glyph-name="Egrave" unicode="&#xff;" horiz-adv-x="466" 
d="M470 415v-30l-10 -1q-22 -3 -35 -11t-23 -28l-213 -465l-12.5 -28.5t-14.5 -31.5q-18 -35 -43 -64.5t-61 -29.5h-3.5h-3.5q-16 2 -29 11.5t-13 27.5q0 6 1.5 11.5t5.5 10.5q2 0 4 -0.5t4 -0.5q1 0 3 -0.5t4 -0.5q48 0 81.5 41t58.5 91q13 26 24 51.5t20 43.5l-156 334
q-10 19 -25 28t-36 10l-1 31h192v-30q-4 -1 -8.5 -1t-9.5 -1q-9 -1 -17 -5.5t-8 -14.5q0 -4 1.5 -8.5t2.5 -9.5l108 -233l105 234q1 2 2 4.5t2 5.5t2 5.5t1 5.5v2q0 7 -7 10t-15 4q-3 0 -6 0.5t-6 0.5h-2.5h-2.5l-7 1v30h146v0zM82 532q0 24 17.5 41.5t42.5 17.5t42.5 -17.5
t17.5 -42.5t-17.5 -42.5t-42.5 -17.5t-42.5 17.5t-17.5 42.5v1zM265 532q0 24 18 41.5t42 17.5q25 0 42.5 -17.5t17.5 -42.5t-17.5 -42.5t-42.5 -17.5q-24 0 -42 17.5t-18 42.5v1z" />
    <glyph glyph-name="Iacute" unicode="&#x178;" horiz-adv-x="663" 
d="M381 297v-186q0 -56 27 -67.5t73 -13.5v-30h-298v31q50 1 75 12.5t25 66.5v187l-183 285q-19 30 -43.5 41t-58.5 12l-1 32h286v-31h-25q-4 -1 -9 -1t-10 -1q-11 -2 -20 -7t-9 -17q0 -6 2 -12.5t5 -11.5q0 -2 1 -3t1 -2l143 -245l149 246q1 0 1.5 1t0.5 2q3 5 5 10.5
t2 11.5q0 19 -27.5 23.5t-64.5 4.5v32h239v-31q-40 -3 -68.5 -16.5t-49.5 -48.5l-168 -274v0zM181 770q0 24 17.5 41.5t42.5 17.5t42.5 -17.5t17.5 -42.5t-17.5 -42.5t-42.5 -17.5t-42.5 17.5t-17.5 42.5v1zM364 770q0 24 18 41.5t42 17.5q25 0 42.5 -17.5t17.5 -42.5
t-17.5 -42.5t-42.5 -17.5q-24 0 -42 17.5t-18 42.5v1z" />
    <glyph glyph-name="Icircumflex" unicode="&#x2215;" horiz-adv-x="130" 
d="M271 667l-369 -667h-35l369 667h35v0z" />
    <glyph glyph-name="Idieresis" unicode="&#xa4;" horiz-adv-x="667" 
d="M58 100l92 92l-8 12.5l-8 13.5q-16 29 -25.5 59t-9.5 65q0 40 15 77t34 71l-92 94l33 33l93 -93q33 24 72 37.5t79 13.5q42 0 79 -15t71 -37l95 95l33 -33l-95 -96l9.5 -17t8.5 -16q14 -27 22.5 -55.5t8.5 -62.5q0 -40 -14.5 -75t-35.5 -69l95 -94l-33 -34l-94 95
q-34 -23 -71 -38t-79 -15q-41 0 -77.5 14t-70.5 36l-93 -92l-34 34v0zM498 342q0 67 -48.5 116t-116.5 49q-67 0 -116 -49t-49 -117q0 -67 49 -116t116 -49q68 0 116.5 49t48.5 116v1z" />
    <glyph glyph-name="Igrave" unicode="&#x2039;" horiz-adv-x="273" 
d="M128 217l95 -120q5 -7 8 -13t3 -14v-1q0 -7 -5 -10.5t-11 -3.5q-9 0 -16.5 5t-13.5 10q-3 3 -5.5 5t-4.5 4l-129 121q-1 -1 -1.5 -0.5t-0.5 1.5q-3 3 -6 7t-3 8q0 5 3 8.5t6 6.5q0 1 0.5 1.5t1.5 0.5l129 121q2 0 3.5 1.5l3.5 3.5q1 0 1 0.5t1 0.5q7 6 14 10.5t15 6.5
q7 0 12.5 -2.5t5.5 -10.5q0 -6 -2 -11t-5 -10q-1 -2 -2 -3.5t-2 -3.5l-95 -119v0z" />
    <glyph glyph-name="Oacute" unicode="&#x203a;" horiz-adv-x="273" 
d="M146 217l-95 120q-1 0 -1.5 1l-0.5 1q-3 6 -6 11t-3 11q0 7 4.5 11.5t11.5 4.5q9 0 16.5 -5t13.5 -10q3 -3 5.5 -5t4.5 -4l129 -119q1 -2 1.5 -2.5l0.5 -0.5q3 -3 6 -6.5t3 -8.5q0 -4 -3 -8t-6 -7q0 -1 -0.5 -1.5t-1.5 -0.5l-129 -119q-2 -3 -4.5 -5t-5.5 -5
q-6 -5 -13 -10t-15 -5q-7 0 -12.5 2.5t-5.5 10.5t3 14.5t8 12.5l95 122v0z" />
    <glyph glyph-name="Ocircumflex" unicode="&#xf001;" horiz-adv-x="509" 
d="M257 416v-30h-90v-275q0 -51 20.5 -65.5t66.5 -16.5v-29h-237v31q40 0 53.5 21t13.5 58v276h-70v30h70v29t1 30q4 75 33.5 138t129.5 63q5 0 10 -0.5t11 -1.5q26 -4 48.5 -20.5t22.5 -46.5q0 -16 -11 -28.5t-28 -12.5q-23 0 -29.5 12t-8.5 26q-1 1 -1 2v1
q-2 14 -6.5 24.5t-22.5 10.5q-32 0 -46 -22.5t-18 -50.5q-1 -8 -1.5 -16t-0.5 -16v-121h90v0zM429 422v-311q0 -38 13.5 -59t53.5 -22v-30h-217v31q41 0 54 21t13 58v173q0 36 -14.5 57.5t-52.5 22.5v31q38 4 75.5 11.5l74.5 15.5v1zM389 491q-20 -1 -36.5 13.5t-16.5 35.5
q0 22 16.5 36t36.5 14q21 0 35.5 -15t14.5 -35t-14.5 -35t-35.5 -15v1z" />
    <glyph glyph-name="Ograve" unicode="&#xf002;" horiz-adv-x="509" 
d="M295 669q34 4 67.5 10.5l66.5 13.5v-582q0 -38 13.5 -59t53.5 -22v-30h-217v31q41 0 54 21t13 58v446v10.5t-1 11.5t-2.5 11.5t-3.5 11.5q-3 -14 -12.5 -24.5t-25.5 -10.5q-23 0 -29.5 12t-8.5 26q-1 1 -1 2v1q-2 14 -6.5 24.5t-22.5 10.5q-32 0 -46 -22.5t-18 -50.5
q-1 -8 -1.5 -16t-0.5 -16v-121h90v-30h-90v-275q0 -51 20.5 -65.5t66.5 -16.5v-29h-237v31q40 0 53.5 21t13.5 58v276h-70v30h70v19v20q2 83 29.5 152t134.5 69q13 0 24.5 -2t22.5 -6v1z" />
    <glyph glyph-name="Uacute" unicode="&#x2021;" horiz-adv-x="553" 
d="M291 470q1 -1 2 -1.5t2 -0.5h2h2q20 0 38 5.5t36 12.5q17 7 35.5 12.5t37.5 5.5q26 0 46 -12.5t20 -41.5q0 -25 -19.5 -39t-42.5 -15q-22 0 -43 6.5l-42 13.5q-1 1 -2 1t-1 1l-35.5 12t-35.5 8q0 -31 10 -62t22 -61l10 -24t9 -24q-4 -12 -9 -25t-11 -26
q-4 -10 -7.5 -20.5l-7.5 -21.5q-7 -20 -11.5 -40.5t-4.5 -38.5q13 2 28 6.5l31 9.5q3 1 6.5 2.5t6.5 2.5l46.5 15t33.5 7h6t6 -1q21 -2 39 -15.5t18 -37.5q0 -28 -20 -41t-46 -13q-18 0 -34 4t-33 10q-2 1 -4.5 2t-4.5 2q-19 6 -38.5 11.5t-40.5 5.5q1 -18 7 -36t12 -34
q2 -6 4.5 -11.5t4.5 -11.5q4 -13 7.5 -27t3.5 -28q0 -25 -14 -44.5t-41 -19.5t-43 18t-16 44q0 19 5.5 38t12.5 37q0 2 0.5 3t1.5 2q6 16 12 34t7 36q-21 0 -40 -5.5l-38 -11.5q-1 -1 -2 -1.5t-2 -0.5q-18 -6 -36 -11t-37 -5q-25 0 -45.5 13t-20.5 41q0 25 19.5 39t42.5 15
q22 0 43 -6.5l42 -13.5q1 -1 2.5 -1.5t2.5 -0.5q17 -7 34 -12.5t35 -8.5q0 1 0.5 1.5t0.5 1.5v3.5v2.5q-2 17 -8 38l-13 44q-3 6 -5 12l-4 12l-11.5 30.5t-9.5 26.5q4 12 8.5 23.5l9.5 24.5q11 28 20.5 56.5t12.5 57.5v4.5t-1 4.5l-11.5 -2l-11.5 -2q-13 -3 -26 -7.5
t-26 -9.5l-41.5 -14.5t-35.5 -6.5h-6t-6 1q-21 2 -39 15.5t-18 37.5q0 29 20.5 41.5t45.5 12.5q20 0 38 -5.5t36 -12.5t36.5 -12.5t37.5 -5.5h2h2l1 0.5t2 0.5q-1 18 -7 36l-12 35q-5 12 -9.5 24.5t-6.5 24.5q-2 7 -3 14.5t-1 14.5q0 27 15.5 45.5t43.5 18.5
q26 0 40.5 -18.5t14.5 -41.5q0 -21 -6 -41.5t-14 -39.5l-12 -35.5t-7 -36.5v1z" />
    <glyph glyph-name="Ucircumflex" unicode="&#x2219;" horiz-adv-x="467" 
d="M234 161q-23 -1 -39.5 15.5t-16.5 39.5t16.5 39.5t39.5 16.5t39 -16.5t16 -39.5t-16 -39.5t-39 -16.5v1z" />
    <glyph glyph-name="Ugrave" unicode="&#x201a;" 
 />
    <glyph glyph-name="dotlessi" unicode="&#x201e;" horiz-adv-x="407" 
d="M56 -173v17q30 22 54.5 50.5t24.5 68.5q0 10 -2 19t-6 18q-7 -2 -14 -2.5t-15 -0.5q-22 0 -37.5 16t-15.5 38q0 23 17 39.5t39 16.5q36 0 58 -28t27 -61q1 -5 1.5 -10t0.5 -9q0 -59 -38 -107.5t-94 -64.5v0zM227 -173v17q29 22 53.5 50.5t24.5 68.5q0 10 -2 19t-5 18
q-7 -2 -14.5 -2.5t-14.5 -0.5q-22 0 -38 16t-16 38q0 23 17 39.5t39 16.5q36 0 58 -28t27 -61q1 -5 1.5 -10t0.5 -9q0 -59 -37.5 -107.5t-93.5 -64.5v0z" />
    <glyph glyph-name="circumflex" unicode="&#x2030;" horiz-adv-x="835" 
d="M414 -5q-47 0 -73.5 35.5t-35.5 78.5q-3 14 -4.5 27.5t-1.5 26.5t1.5 26.5t4.5 27.5q9 43 35.5 79t73.5 36q49 0 75 -36.5t35 -80.5q2 -13 3.5 -26.5t1.5 -25.5t-1.5 -25.5t-3.5 -26.5q-9 -44 -35 -80t-75 -36v0zM414 13q26 -1 38.5 24.5t18.5 55.5q3 21 4 40.5t1 30.5
t-1 30.5t-4 40.5q-6 30 -18.5 55.5t-38.5 25.5t-38.5 -25.5t-18.5 -55.5q-3 -21 -4 -40.5t-1 -30.5t1 -30.5t4 -40.5q6 -30 18.5 -55.5t38.5 -25.5v1zM707 -5q-49 0 -75 36t-35 80q-2 13 -3.5 26.5t-1.5 25.5q0 13 1.5 26.5t4.5 27.5q9 43 35.5 79t73.5 36q49 0 75 -36.5
t35 -80.5q2 -13 3.5 -26.5t1.5 -25.5t-1.5 -25.5t-3.5 -26.5q-9 -44 -35 -80t-75 -36v0zM707 13q26 -1 38.5 24.5t18.5 55.5q3 21 4 40.5t1 30.5t-1 30.5t-4 40.5q-6 30 -18.5 55.5t-38.5 25.5t-38.5 -25.5t-18.5 -55.5q-3 -21 -4 -40.5t-1 -30.5t1 -30.5t4 -40.5
q6 -30 18.5 -55.5t38.5 -25.5v1zM473 667l-369 -667h-35l369 667h35v0zM128 327q-49 -1 -75 35.5t-35 80.5q-2 13 -3.5 26.5t-1.5 25.5t1.5 25.5t3.5 26.5q9 44 35 80.5t75 36.5q47 0 73.5 -36t35.5 -79q3 -14 4.5 -27.5t1.5 -26.5t-1.5 -26.5t-4.5 -27.5q-9 -43 -35.5 -79
t-73.5 -36v1zM128 345q26 -1 38.5 24.5t18.5 55.5q3 21 4 40.5t1 30.5t-1 30.5t-4 40.5q-6 30 -18.5 55.5t-38.5 25.5t-39 -25.5t-18 -55.5q-4 -21 -5 -40.5t-1 -30.5t1 -30.5t5 -40.5q5 -30 18 -55.5t39 -25.5v1z" />
    <glyph glyph-name="tilde" unicode="&#xc2;" horiz-adv-x="723" 
d="M382 678l252 -581q14 -34 35 -50t58 -17v-30h-275v31h22q5 -1 10.5 -1t11.5 1q13 2 24.5 8.5t11.5 21.5q0 9 -2.5 18t-6.5 17l-54 130h-266l-52 -129q-3 -8 -5 -14.5t-2 -13.5q0 -21 14.5 -29t31.5 -9q4 -1 8 -1h8l21 1v-31h-230v31q43 0 67.5 12.5t40.5 52.5l240 582h37
v0zM450 268l-87 212q-1 3 -3 7t-3 8l-12 32t-10 32q-1 -3 -2 -6.5t-2 -6.5l-2 -6l-2 -6l-108 -266h231v0zM362 852l121 -119q0 -1 0.5 -1.5l1.5 -1.5q2 -2 3.5 -4.5t1.5 -5.5q0 -7 -4 -12.5t-12 -5.5l-1 1q-4 -1 -7 0.5t-5 3.5l-1.5 1.5t-1.5 0.5l-96 67l-95 -66l-1.5 -1.5
l-1.5 -1.5q-2 -2 -5 -3.5t-7 -1.5l-1 1q-6 -1 -10.5 3.5t-6.5 10.5q0 5 2.5 8.5t5.5 6.5l120 120v0z" />
    <glyph glyph-name="macron" unicode="&#xca;" horiz-adv-x="584" 
d="M506 667l18 -163h-31q-13 55 -42.5 91.5t-91.5 36.5l-145 1v-262h63q47 -1 69 22.5t24 69.5l31 1v-226h-31v0.5v1.5q-7 46 -22 70.5t-71 24.5l-63 1v-214q0 -53 28.5 -71t76.5 -18q62 0 112 11.5t84 70.5q9 17 17 36t12 38q1 4 1.5 8t0.5 8l29 1l-13 -206h-548v31
q1 -1 1.5 -1h1.5q48 2 72.5 13.5t24.5 66.5v446q0 54 -25 65.5t-72 13.5h-1.5h-1.5v32h492v0zM292 852l121 -119q0 -1 0.5 -1.5l1.5 -1.5q2 -2 3.5 -4.5t1.5 -5.5q0 -7 -4 -12.5t-12 -5.5l-1 1q-4 -1 -7 0.5t-5 3.5l-1.5 1.5t-1.5 0.5l-96 67l-95 -66l-1.5 -1.5l-1.5 -1.5
q-2 -2 -5 -3.5t-7 -1.5l-1 1q-6 -1 -10.5 3.5t-6.5 10.5q0 5 2.5 8.5t5.5 6.5l120 120v0z" />
    <glyph glyph-name="breve" unicode="&#xc1;" horiz-adv-x="723" 
d="M382 678l252 -581q14 -34 35 -50t58 -17v-30h-275v31h22q5 -1 10.5 -1t11.5 1q13 2 24.5 8.5t11.5 21.5q0 9 -2.5 18t-6.5 17l-54 130h-266l-52 -129q-3 -8 -5 -14.5t-2 -13.5q0 -21 14.5 -29t31.5 -9q4 -1 8 -1h8l21 1v-31h-230v31q43 0 67.5 12.5t40.5 52.5l240 582h37
v0zM450 268l-87 212q-1 3 -3 7t-3 8l-12 32t-10 32q-1 -3 -2 -6.5t-2 -6.5l-2 -6l-2 -6l-108 -266h231v0zM321 843h123q1 -1 2 -1h2q3 -1 5.5 -2.5t2.5 -5.5q0 -3 -2 -5l-4 -4l-158 -113q-3 -2 -6 -3.5t-6 -2.5h-2.5h-2.5q-3 1 -5 2.5t-2 3.5v2v1.5t1 2.5l52 125v0z" />
    <glyph glyph-name="dotaccent" unicode="&#xcb;" horiz-adv-x="584" 
d="M506 667l18 -163h-31q-13 55 -42.5 91.5t-91.5 36.5l-145 1v-262h63q47 -1 69 22.5t24 69.5l31 1v-226h-31v0.5v1.5q-7 46 -22 70.5t-71 24.5l-63 1v-214q0 -53 28.5 -71t76.5 -18q62 0 112 11.5t84 70.5q9 17 17 36t12 38q1 4 1.5 8t0.5 8l29 1l-13 -206h-548v31
q1 -1 1.5 -1h1.5q48 2 72.5 13.5t24.5 66.5v446q0 54 -25 65.5t-72 13.5h-1.5h-1.5v32h492v0zM141 770q0 24 17.5 41.5t42.5 17.5t42.5 -17.5t17.5 -42.5t-17.5 -42.5t-42.5 -17.5t-42.5 17.5t-17.5 42.5v1zM324 770q0 24 18 41.5t42 17.5q25 0 42.5 -17.5t17.5 -42.5
t-17.5 -42.5t-42.5 -17.5q-24 0 -42 17.5t-18 42.5v1z" />
    <glyph glyph-name="ring" unicode="&#xc8;" horiz-adv-x="584" 
d="M506 667l18 -163h-31q-13 55 -42.5 91.5t-91.5 36.5l-145 1v-262h63q47 -1 69 22.5t24 69.5l31 1v-226h-31v0.5v1.5q-7 46 -22 70.5t-71 24.5l-63 1v-214q0 -53 28.5 -71t76.5 -18q62 0 112 11.5t84 70.5q9 17 17 36t12 38q1 4 1.5 8t0.5 8l29 1l-13 -206h-548v31
q1 -1 1.5 -1h1.5q48 2 72.5 13.5t24.5 66.5v446q0 54 -25 65.5t-72 13.5h-1.5h-1.5v32h492v0zM333 843l52 -124q1 -2 1 -3.5v-2.5v0q0 -3 -2 -4.5t-5 -2.5h-2.5h-2.5q-3 1 -6 2.5t-6 2.5l-158 115q-2 1 -4 3t-2 5q0 4 2.5 5.5t5.5 2.5h2h2l123 1v0z" />
    <glyph glyph-name="cedilla" unicode="&#xcd;" horiz-adv-x="327" 
d="M314 0h-300v31q1 -1 1.5 -1h1.5q48 2 72.5 13.5t24.5 66.5v446q0 54 -25 65.5t-72 13.5h-1.5h-1.5v32h300v-31q-7 -1 -15 -1.5t-16 -1.5q-12 -1 -24 -4t-22 -8q-12 -6 -16.5 -18.5t-5.5 -25.5q-1 -6 -1 -11.5v-10.5v-444q0 -57 24.5 -68t70.5 -13h2.5h2.5v-30v0zM123 843
h123q1 -1 2 -1h2q3 -1 5.5 -2.5t2.5 -5.5q0 -3 -2 -5l-4 -4l-158 -113q-3 -2 -6 -3.5t-6 -2.5h-2.5h-2.5q-3 1 -5 2.5t-2 3.5v2v1.5t1 2.5l52 125v0z" />
    <glyph glyph-name="hungarumlaut" unicode="&#xce;" horiz-adv-x="327" 
d="M314 0h-300v31q1 -1 1.5 -1h1.5q48 2 72.5 13.5t24.5 66.5v446q0 54 -25 65.5t-72 13.5h-1.5h-1.5v32h300v-31q-7 -1 -15 -1.5t-16 -1.5q-12 -1 -24 -4t-22 -8q-12 -6 -16.5 -18.5t-5.5 -25.5q-1 -6 -1 -11.5v-10.5v-444q0 -57 24.5 -68t70.5 -13h2.5h2.5v-30v0zM163 852
l121 -119q0 -1 0.5 -1.5l1.5 -1.5q2 -2 3.5 -4.5t1.5 -5.5q0 -7 -4 -12.5t-12 -5.5l-1 1q-4 -1 -7 0.5t-5 3.5l-1.5 1.5t-1.5 0.5l-96 67l-95 -66l-1.5 -1.5l-1.5 -1.5q-2 -2 -5 -3.5t-7 -1.5l-1 1q-6 -1 -10.5 3.5t-6.5 10.5q0 5 2.5 8.5t5.5 6.5l120 120v0z" />
    <glyph glyph-name="ogonek" unicode="&#xcf;" horiz-adv-x="327" 
d="M314 0h-300v31q1 -1 1.5 -1h1.5q48 2 72.5 13.5t24.5 66.5v446q0 54 -25 65.5t-72 13.5h-1.5h-1.5v32h300v-31q-7 -1 -15 -1.5t-16 -1.5q-12 -1 -24 -4t-22 -8q-12 -6 -16.5 -18.5t-5.5 -25.5q-1 -6 -1 -11.5v-10.5v-444q0 -57 24.5 -68t70.5 -13h2.5h2.5v-30v0zM12 770
q0 24 17.5 41.5t42.5 17.5t42.5 -17.5t17.5 -42.5t-17.5 -42.5t-42.5 -17.5t-42.5 17.5t-17.5 42.5v1zM195 770q0 24 18 41.5t42 17.5q25 0 42.5 -17.5t17.5 -42.5t-17.5 -42.5t-42.5 -17.5q-24 0 -42 17.5t-18 42.5v1z" />
    <glyph glyph-name="caron" unicode="&#xcc;" horiz-adv-x="327" 
d="M314 0h-300v31q1 -1 1.5 -1h1.5q48 2 72.5 13.5t24.5 66.5v446q0 54 -25 65.5t-72 13.5h-1.5h-1.5v32h300v-31q-7 -1 -15 -1.5t-16 -1.5q-12 -1 -24 -4t-22 -8q-12 -6 -16.5 -18.5t-5.5 -25.5q-1 -6 -1 -11.5v-10.5v-444q0 -57 24.5 -68t70.5 -13h2.5h2.5v-30v0zM205 843
l52 -124q1 -2 1 -3.5v-2.5v0q0 -3 -2 -4.5t-5 -2.5h-2.5h-2.5q-3 1 -6 2.5t-6 2.5l-158 115q-2 1 -4 3t-2 5q0 4 2.5 5.5t5.5 2.5h2h2l123 1v0z" />
    <glyph glyph-name="Lslash" unicode="&#xd3;" horiz-adv-x="802" 
d="M400 -17q-151 0 -252.5 98.5t-101.5 250.5q0 155 101 252.5t253 97.5q153 0 254 -97.5t101 -252.5q0 -153 -101.5 -251t-253.5 -98v0zM400 18q132 -1 184 92.5t55 205.5v8.5v8.5v9.5v9.5q-4 112 -55.5 205t-183.5 93q-131 0 -183 -93t-56 -205v-9.5v-9.5v-6v-5
q2 -115 53.5 -210t185.5 -95v1zM359 843h123q1 -1 2 -1h2q3 -1 5.5 -2.5t2.5 -5.5q0 -3 -2 -5l-4 -4l-158 -113q-3 -2 -6 -3.5t-6 -2.5h-2.5h-2.5q-3 1 -5 2.5t-2 3.5v2v1.5t1 2.5l52 125v0z" />
    <glyph glyph-name="lslash" unicode="&#xd4;" horiz-adv-x="802" 
d="M400 -17q-151 0 -252.5 98.5t-101.5 250.5q0 155 101 252.5t253 97.5q153 0 254 -97.5t101 -252.5q0 -153 -101.5 -251t-253.5 -98v0zM400 18q132 -1 184 92.5t55 205.5v8.5v8.5v9.5v9.5q-4 112 -55.5 205t-183.5 93q-131 0 -183 -93t-56 -205v-9.5v-9.5v-6v-5
q2 -115 53.5 -210t185.5 -95v1zM400 852l121 -119q0 -1 0.5 -1.5l1.5 -1.5q2 -2 3.5 -4.5t1.5 -5.5q0 -7 -4 -12.5t-12 -5.5l-1 1q-4 -1 -7 0.5t-5 3.5l-1.5 1.5t-1.5 0.5l-96 67l-95 -66l-1.5 -1.5l-1.5 -1.5q-2 -2 -5 -3.5t-7 -1.5l-1 1q-6 -1 -10.5 3.5t-6.5 10.5
q0 5 2.5 8.5t5.5 6.5l120 120v0z" />
    <glyph glyph-name="Scaron" unicode="&#xf000;" 
 />
    <glyph glyph-name="scaron" unicode="&#xd2;" 
 />
    <glyph glyph-name="Eth" unicode="&#xda;" horiz-adv-x="698" 
d="M444 666h241v-30q-1 -1 -2.5 -1h-3.5q-6 -1 -12 -1.5t-12 -1.5q-13 -1 -25 -4t-22 -9q-12 -7 -17 -19.5t-6 -26.5q-1 -6 -1 -12.5v-12.5v-321q0 -107 -41.5 -175.5t-163.5 -68.5q-139 0 -202.5 43.5t-63.5 195.5v333q0 55 -24.5 66.5t-72.5 13.5h-1.5h-1.5v31h300v-30
q-4 -1 -7.5 -1h-6.5h-2h-2q-31 -1 -56.5 -12.5t-25.5 -68.5v-319q0 -95 27 -156.5t139 -61.5q104 0 134.5 60t30.5 148v10v314q0 54 -25 68t-75 18v31v0zM307 843h123q1 -1 2 -1h2q3 -1 5.5 -2.5t2.5 -5.5q0 -3 -2 -5l-4 -4l-158 -113q-3 -2 -6 -3.5t-6 -2.5h-2.5h-2.5
q-3 1 -5 2.5t-2 3.5v2v1.5t1 2.5l52 125v0z" />
    <glyph glyph-name="eth" unicode="&#xdb;" horiz-adv-x="698" 
d="M444 666h241v-30q-1 -1 -2.5 -1h-3.5q-6 -1 -12 -1.5t-12 -1.5q-13 -1 -25 -4t-22 -9q-12 -7 -17 -19.5t-6 -26.5q-1 -6 -1 -12.5v-12.5v-321q0 -107 -41.5 -175.5t-163.5 -68.5q-139 0 -202.5 43.5t-63.5 195.5v333q0 55 -24.5 66.5t-72.5 13.5h-1.5h-1.5v31h300v-30
q-4 -1 -7.5 -1h-6.5h-2h-2q-31 -1 -56.5 -12.5t-25.5 -68.5v-319q0 -95 27 -156.5t139 -61.5q104 0 134.5 60t30.5 148v10v314q0 54 -25 68t-75 18v31v0zM348 852l121 -119q0 -1 0.5 -1.5l1.5 -1.5q2 -2 3.5 -4.5t1.5 -5.5q0 -7 -4 -12.5t-12 -5.5l-1 1q-4 -1 -7 0.5t-5 3.5
l-1.5 1.5t-1.5 0.5l-96 67l-95 -66l-1.5 -1.5l-1.5 -1.5q-2 -2 -5 -3.5t-7 -1.5l-1 1q-6 -1 -10.5 3.5t-6.5 10.5q0 5 2.5 8.5t5.5 6.5l120 120v0z" />
    <glyph glyph-name="Thorn" unicode="&#xd9;" horiz-adv-x="698" 
d="M444 666h241v-30q-1 -1 -2.5 -1h-3.5q-6 -1 -12 -1.5t-12 -1.5q-13 -1 -25 -4t-22 -9q-12 -7 -17 -19.5t-6 -26.5q-1 -6 -1 -12.5v-12.5v-321q0 -107 -41.5 -175.5t-163.5 -68.5q-139 0 -202.5 43.5t-63.5 195.5v333q0 55 -24.5 66.5t-72.5 13.5h-1.5h-1.5v31h300v-30
q-4 -1 -7.5 -1h-6.5h-2h-2q-31 -1 -56.5 -12.5t-25.5 -68.5v-319q0 -95 27 -156.5t139 -61.5q104 0 134.5 60t30.5 148v10v314q0 54 -25 68t-75 18v31v0zM390 843l52 -124q1 -2 1 -3.5v-2.5v0q0 -3 -2 -4.5t-5 -2.5h-2.5h-2.5q-3 1 -6 2.5t-6 2.5l-158 115q-2 1 -4 3t-2 5
q0 4 2.5 5.5t5.5 2.5h2h2l123 1v0z" />
    <glyph glyph-name="thorn" unicode="&#x131;" horiz-adv-x="243" 
d="M163 422v-311q0 -38 13.5 -59t53.5 -22v-30h-217v31q40 0 53.5 21t13.5 58v173q0 36 -14.5 57.5t-52.5 22.5v31q26 3 50.5 7t49.5 9q13 3 25.5 5.5t24.5 5.5v1z" />
    <glyph glyph-name="onehalf" unicode="&#x2dc;" horiz-adv-x="500" 
d="M251 622l121 -119q0 -1 0.5 -1.5l1.5 -1.5q2 -2 3.5 -4.5t1.5 -5.5q0 -7 -4 -12.5t-12 -5.5l-1 1q-4 -1 -7 0.5t-5 3.5l-1.5 1.5t-1.5 0.5l-96 67l-95 -66l-1.5 -1.5l-1.5 -1.5q-2 -2 -5 -3.5t-7 -1.5l-1 1q-6 -1 -10.5 3.5t-6.5 10.5q0 5 2.5 8.5t5.5 6.5l120 120v0z
" />
    <glyph glyph-name="arrowright" unicode="&#x2c6;" horiz-adv-x="500" 
d="M397 593l17 -12q-2 -4 -4 -7l-4 -6q-18 -25 -42.5 -46.5t-56.5 -22.5q-18 0 -36 4t-35 10q-18 5 -36 9t-36 4q-16 0 -29.5 -9t-23.5 -20q-2 -1 -3 -2.5t-2 -2.5l-19 12q3 5 7 10.5l8 11.5q17 24 40.5 44.5t53.5 20.5q17 0 33 -3.5t32 -8.5q1 -1 3 -1.5t3 -0.5l35.5 -9.5
t36.5 -4.5q18 0 32 9t26 20v1z" />
    <glyph glyph-name="house" unicode="&#x2c9;" horiz-adv-x="500" 
d="M81 565h337v-39h-337v39v0z" />
    <glyph glyph-name="endash" unicode="&#x2d8;" horiz-adv-x="500" 
d="M97 606l25 -1q10 -27 34 -37t51 -13q11 -1 22 -1h21h19t20 1q27 2 51 12t35 37l28 1q-6 -62 -52.5 -90.5t-102.5 -28.5t-101.5 29t-49.5 90v1z" />
    <glyph glyph-name="sfthyphen" unicode="&#x2d9;" horiz-adv-x="500" 
d="M190 533q0 24 17.5 41.5t42.5 17.5t42.5 -17.5t17.5 -42.5t-17.5 -42.5t-42.5 -17.5t-42.5 17.5t-17.5 42.5v1z" />
    <glyph glyph-name="filledbox" unicode="&#x2da;" horiz-adv-x="500" 
d="M250 468q-34 -1 -59.5 24.5t-25.5 59.5q0 35 25.5 60t59.5 25q35 0 60 -26.5t25 -61.5q0 -34 -25.5 -58t-59.5 -24v1zM250 507q19 -1 32.5 12.5t13.5 32.5t-13.5 32.5t-32.5 13.5t-32.5 -13.5t-13.5 -32.5t13.5 -32.5t32.5 -13.5v1z" />
    <glyph glyph-name="bullet" unicode="&#xb8;" horiz-adv-x="500" 
d="M212 -74l20 74h37l-9 -40q36 -4 63.5 -25t27.5 -61q0 -38 -29 -62t-64 -30q-5 0 -9.5 -0.5t-9.5 -0.5q-22 0 -44.5 6t-42.5 15l16 33l9 -3.5t9 -2.5q9 -3 18 -5t18 -2h1.5h1.5q19 1 35 12.5t17 32.5q0 24 -16.5 36t-37.5 19q-2 1 -5 2l-6 2v0z" />
    <glyph glyph-name="uni02BA" unicode="&#x2ba;" horiz-adv-x="500" 
d="M119 608h123q1 -1 2 -1h2q3 -1 5.5 -2.5t2.5 -5.5q0 -3 -2 -5l-4 -4l-158 -113q-3 -2 -6 -3.5t-6 -2.5h-2.5h-2.5q-3 1 -5 2.5t-2 3.5v2v1.5t1 2.5l52 125v0zM301 608h123q1 -1 2 -1h2q3 -1 5.5 -2.5t2.5 -5.5q0 -3 -2 -5l-4 -4l-158 -113q-3 -2 -6 -3.5t-6 -2.5h-2.5
h-2.5q-3 1 -5 2.5t-2 3.5v2v1.5t1 2.5l52 125v0z" />
    <glyph glyph-name="glyph223" unicode="&#x2db;" horiz-adv-x="500" 
d="M518 0q-24 -16 -41 -37t-17 -52q0 -45 27.5 -63.5t67.5 -18.5q5 0 10 0.5t10 1.5l10 2t10 3l5 -9q-20 -14 -42.5 -19.5t-46.5 -5.5q-41 0 -71 22t-30 65q0 40 24 67t58 44h26v0z" />
    <glyph glyph-name="glyph224" unicode="&#x2c7;" horiz-adv-x="500" 
d="M250 473l-115 115q-1 0 -2 1l-3 3q-3 3 -5.5 7t-2.5 8q0 6 4.5 10.5t10.5 5.5h0.5h1.5q7 0 12.5 -2.5t10.5 -6.5l88 -64l89 65q1 0 1.5 0.5t1.5 0.5q3 2 5.5 3.5t5.5 2.5q2 0 3.5 0.5t3.5 0.5h2.5t2.5 -1q6 -1 10 -4.5t4 -9.5q0 -5 -2.5 -9t-5.5 -7l-3 -3l-2 -2
l-116 -114v0z" />
    <glyph glyph-name="glyph225" unicode="&#x141;" horiz-adv-x="571" 
d="M405 440l14 -32l-206 -97v-189q0 -53 28.5 -71t76.5 -18q62 0 112 11.5t84 70.5q9 17 17 36t12 38q1 4 1.5 8t0.5 8l29 1l-13 -206h-548v31q1 -1 1.5 -1h1.5q48 2 72.5 13.5t24.5 66.5v157l-83 -40l-15 30l98 46v253q0 54 -25 65.5t-72 13.5h-1.5h-1.5v32h300v-31
q-7 -1 -15 -1.5t-16 -1.5q-12 -1 -24 -4t-22 -8q-12 -6 -16.5 -18.5t-5.5 -25.5q-1 -6 -1 -11.5v-10.5v-205l192 90v0z" />
    <glyph glyph-name="glyph226" unicode="&#x142;" horiz-adv-x="258" 
d="M238 423l12 -26l-80 -39v-247q0 -38 13.5 -59t53.5 -22v-30h-217v31q40 0 53.5 21t13.5 58v208l-65 -30l-11 26l76 36v206q0 35 -14.5 56.5t-52.5 22.5v32q38 4 75.5 11t74.5 15v-303l68 33v0z" />
    <glyph glyph-name="glyph227" unicode="&#x160;" horiz-adv-x="509" 
d="M434 674v-181h-30q-11 64 -51 111.5t-112 47.5q-42 0 -76.5 -25t-34.5 -69q0 -51 39.5 -81.5t93.5 -56.5l20 -10l20 -10q65 -32 119 -77.5t54 -132.5t-55 -147t-145 -60q-52 0 -98 19t-85 53q-7 -13 -12.5 -27.5t-9.5 -27.5h-31v210h31v-2.5v-1.5q10 -68 61 -125t124 -57
q56 0 101 29.5t45 92.5t-47.5 98t-108.5 64q-4 2 -9 4t-9 5q-66 31 -120.5 72.5t-54.5 122.5q0 78 56 124t130 46q41 0 79.5 -11.5t69.5 -37.5q5 7 9 14.5l8 15.5q1 2 2.5 4.5t2.5 5.5l24 1v0zM254 703l-115 115q-1 0 -2 1l-3 3q-3 3 -5.5 7t-2.5 8q0 6 4.5 10.5t10.5 5.5
h0.5h1.5q7 0 12.5 -2.5t10.5 -6.5l88 -64l89 65q1 0 1.5 0.5t1.5 0.5q3 2 5.5 3.5t5.5 2.5q2 0 3.5 0.5t3.5 0.5h2.5t2.5 -1q6 -1 10 -4.5t4 -9.5q0 -5 -2.5 -9t-5.5 -7l-3 -3l-2 -2l-116 -114v0z" />
    <glyph glyph-name="glyph228" unicode="&#x161;" horiz-adv-x="346" 
d="M292 415v-137h-23q-1 2 -1.5 5.5t-1.5 6.5q-11 37 -37.5 68.5t-70.5 31.5q-25 0 -41.5 -15.5t-16.5 -41.5q0 -27 22 -43.5t53 -31.5q8 -4 16 -7.5t16 -7.5q39 -19 72.5 -47t33.5 -81q0 -56 -34 -91t-90 -35h-8t-8 1q-27 3 -52.5 14t-45.5 29l-17 -33h-24v143h24
q6 -47 38 -82t82 -35q28 0 49.5 16.5t21.5 45.5q0 32 -25.5 51t-58.5 36l-11.5 5.5t-10.5 5.5q-40 20 -73 47t-33 76q0 52 30 84.5t83 32.5q31 0 55.5 -13t44.5 -35l19 37h23v0zM173 473l-115 115q-1 0 -2 1l-3 3q-3 3 -5.5 7t-2.5 8q0 6 4.5 10.5t10.5 5.5h0.5h1.5
q7 0 12.5 -2.5t10.5 -6.5l88 -64l89 65q1 0 1.5 0.5t1.5 0.5q3 2 5.5 3.5t5.5 2.5q2 0 3.5 0.5t3.5 0.5h2.5t2.5 -1q6 -1 10 -4.5t4 -9.5q0 -5 -2.5 -9t-5.5 -7l-3 -3l-2 -2l-116 -114v0z" />
    <glyph glyph-name="Zcaron" unicode="&#x17d;" 
 />
    <glyph glyph-name="zcaron" unicode="&#x17e;" 
 />
    <glyph glyph-name="brokenbar" unicode="&#xa6;" 
 />
    <glyph glyph-name="glyph232" unicode="&#xd0;" horiz-adv-x="731" 
d="M13 636v31q17 -1 33.5 -1h33.5q17 -1 34 -1h33h33.5t33.5 1h33h33h34.5t34.5 -1q30 -1 58.5 -5.5t56.5 -13.5q105 -37 162.5 -123t57.5 -196q0 -148 -92 -237.5t-240 -89.5h-339v31q1 -1 1.5 -1h1.5q48 2 72.5 13.5t24.5 66.5v221h-64v38h64v187q0 54 -25 65.5t-72 13.5
h-1.5h-1.5v1zM213 632v-263h186v-38h-186v-186q0 -75 24 -93t94 -18q132 0 183.5 89.5t51.5 205.5q0 143 -67.5 224t-214.5 81h-18t-17 -1q-9 0 -18 -0.5t-18 -1.5v1z" />
    <glyph glyph-name="glyph233" unicode="&#xf0;" horiz-adv-x="513" 
d="M374 717l19 -31l-97 -60q92 -73 135 -172.5t43 -215.5q0 -103 -51.5 -176t-165.5 -73q-97 0 -157 56t-60 155q0 98 59 162t159 64q24 0 46.5 -4t44.5 -12q-1 5 -1.5 10t-1.5 10q-8 47 -31 90t-59 73l-113 -73l-19 30l102 65q-31 16 -63.5 27.5t-67.5 17.5l12 26
q5 -1 9.5 -1.5t8.5 -0.5q36 -3 71.5 -13t66.5 -27l111 73v0zM382 204q0 11 -0.5 23t-1.5 25q-6 54 -32 99t-91 45q-67 0 -93 -47t-32 -103q-1 -12 -1.5 -24.5t-0.5 -24.5q0 -9 0.5 -17.5t1.5 -17.5q5 -54 32.5 -99.5t91.5 -45.5q63 0 90.5 45t33.5 99q1 11 1.5 21.5
t0.5 20.5v1z" />
    <glyph glyph-name="Yacute" unicode="&#xdd;" 
 />
    <glyph glyph-name="yacute" unicode="&#xfd;" 
 />
    <glyph glyph-name="glyph236" unicode="&#xde;" horiz-adv-x="536" 
d="M13 667h300v-31q-1 -1 -2 -1h-2q-8 -1 -16 -1.5t-17 -1.5q-24 -2 -43.5 -12t-19.5 -37v-23q9 -1 18 -1t18 1h18h18h6.5h7.5q89 -2 163 -34.5t74 -142.5q0 -46 -21.5 -86t-62.5 -62q-23 -13 -49.5 -18t-52.5 -6q-10 -1 -20 -1h-20l-97 1v-100q0 -57 24.5 -68t70.5 -13h2.5
h2.5v-30h-300v31q1 -1 1.5 -1h1.5q48 2 72.5 13.5t24.5 66.5v446q0 54 -27.5 65.5t-72.5 13.5v32v0zM213 242h77q68 -1 103 38.5t35 105.5q0 83 -40 114.5t-119 31.5q-7 0 -14 -0.5t-14 -0.5q-2 0 -4.5 -0.5t-4.5 -0.5q-5 0 -9.5 -0.5t-9.5 -0.5v-287v0z" />
    <glyph glyph-name="glyph237" unicode="&#xfe;" horiz-adv-x="528" 
d="M163 35v-191q0 -51 21 -65t66 -16v-30h-237v31q40 1 53.5 21.5t13.5 58.5v711q0 36 -14.5 57.5t-52.5 22.5v31q35 4 69 10.5t68 16.5q6 -10 9.5 -20.5t3.5 -22.5v-285q26 27 62 43.5t74 16.5q91 0 140 -64.5t49 -149.5q0 -86 -50 -154t-144 -68h-5.5h-5.5q-32 2 -63.5 13
t-56.5 32v1zM163 81q22 -23 49 -37t58 -16q62 0 90.5 45t35.5 99q2 11 2.5 22t0.5 21t-0.5 21t-2.5 22q-7 48 -32.5 87.5t-80.5 39.5q-40 0 -70 -25t-50 -57v-222v0z" />
    <glyph glyph-name="minus" unicode="&#x2212;" 
 />
    <glyph glyph-name="multiply" unicode="&#xd7;" 
 />
    <glyph glyph-name="uni00B9" unicode="&#xb9;" 
 />
    <glyph glyph-name="uni00B2" unicode="&#xb2;" 
 />
    <glyph glyph-name="uni00B3" unicode="&#xb3;" 
 />
    <glyph glyph-name="glyph243" unicode="&#xbd;" horiz-adv-x="732" 
d="M565 667l-369 -667h-35l369 667h35v0zM717 95l-26 -95h-251l7 29q13 9 26.5 20l27.5 23q53 46 97 103t44 127q0 31 -21 53.5t-53 22.5q-29 0 -52.5 -18.5t-23.5 -50.5q0 -18 10.5 -34t27.5 -21q-3 -9 -10 -13.5t-16 -6.5h-2.5h-3.5q-19 0 -29.5 14t-14.5 30
q-1 5 -1.5 9.5t-0.5 8.5q0 49 36.5 75t79.5 27h1.5h1.5q50 0 90.5 -31t40.5 -84q0 -61 -40.5 -108t-89.5 -84l-29.5 -21.5l-28.5 -20.5l139 1q15 -1 23 9t14 22q0 1 0.5 2.5t1.5 2.5l2 4l2 4l21 1v0zM119 601h-52v24q31 0 58 12t53 28v-331q0 -32 14.5 -39t42.5 -7v-22h-175
v23q29 -1 44 6t15 38v268v0z" />
    <glyph glyph-name="onequarter" unicode="&#xbc;" 
 />
    <glyph glyph-name="threequarters" unicode="&#xbe;" 
 />
    <glyph glyph-name="franc" unicode="&#x20a3;" 
 />
    <glyph glyph-name="Gbreve" unicode="&#x11e;" 
 />
    <glyph glyph-name="gbreve" unicode="&#x11f;" 
 />
    <glyph glyph-name="Idotaccent" unicode="&#x130;" 
 />
    <glyph glyph-name="Scedilla" unicode="&#x15e;" 
 />
    <glyph glyph-name="scedilla" unicode="&#x15f;" 
 />
    <glyph glyph-name="Cacute" unicode="&#x106;" 
 />
    <glyph glyph-name="cacute" unicode="&#x107;" 
 />
    <glyph glyph-name="Ccaron" unicode="&#x10c;" 
 />
    <glyph glyph-name="ccaron" unicode="&#x10d;" 
 />
    <glyph glyph-name="dcroat" unicode="&#x111;" 
 />
    <glyph glyph-name="glyph257" unicode="&#x2192;" horiz-adv-x="500" 
 />
    <glyph glyph-name="glyph258" unicode="&#x2302;" 
 />
    <glyph glyph-name="glyph259" unicode="&#x2013;" horiz-adv-x="467" 
d="M456 242v-50h-444v50h444v0z" />
    <glyph glyph-name="uni00AD" unicode="&#xad;" horiz-adv-x="500" 
 />
    <glyph glyph-name="glyph261" unicode="&#x25a0;" horiz-adv-x="500" 
 />
    <glyph glyph-name="glyph262" unicode="&#x2022;" horiz-adv-x="600" 
d="M198 286q0 39 28 67t68 28q41 0 69.5 -28t28.5 -68t-28.5 -68t-69.5 -28q-40 0 -68 28t-28 68v1z" />
    <glyph glyph-name="glyph263" unicode="&#xaf;" 
 />
    <glyph glyph-name="glyph264" unicode="&#xb0;" 
 />
    <glyph glyph-name="glyph265" unicode="&#xb7;" 
 />
    <glyph glyph-name="underscoredbl" unicode="&#x2017;" 
 />
    <glyph glyph-name="exclamdbl" unicode="&#x203c;" 
 />
    <glyph glyph-name="uni207F" unicode="&#x207f;" 
 />
    <glyph glyph-name="peseta" unicode="&#x20a7;" 
 />
    <glyph glyph-name="Gamma" unicode="&#x393;" 
 />
    <glyph glyph-name="Theta" unicode="&#x398;" 
 />
    <glyph glyph-name="Phi" unicode="&#x3a6;" 
 />
    <glyph glyph-name="alpha" unicode="&#x3b1;" 
 />
    <glyph glyph-name="delta" unicode="&#x3b4;" 
 />
    <glyph glyph-name="epsilon" unicode="&#x3b5;" 
 />
    <glyph glyph-name="sigma" unicode="&#x3c3;" 
 />
    <glyph glyph-name="tau" unicode="&#x3c4;" 
 />
    <glyph glyph-name="phi" unicode="&#x3c6;" 
 />
    <glyph glyph-name="arrowleft" unicode="&#x2190;" 
 />
    <glyph glyph-name="arrowup" unicode="&#x2191;" 
 />
    <glyph glyph-name="arrowdown" unicode="&#x2193;" 
 />
    <glyph glyph-name="arrowboth" unicode="&#x2194;" 
 />
    <glyph glyph-name="arrowupdn" unicode="&#x2195;" 
 />
    <glyph glyph-name="arrowupdnbse" unicode="&#x21a8;" 
 />
    <glyph glyph-name="orthogonal" unicode="&#x221f;" 
 />
    <glyph glyph-name="intersection" unicode="&#x2229;" 
 />
    <glyph glyph-name="equivalence" unicode="&#x2261;" 
 />
    <glyph glyph-name="revlogicalnot" unicode="&#x2310;" 
 />
    <glyph glyph-name="integraltp" unicode="&#x2320;" 
 />
    <glyph glyph-name="integralbt" unicode="&#x2321;" 
 />
    <glyph glyph-name="filledrect" unicode="&#x25ac;" 
 />
    <glyph glyph-name="circle" unicode="&#x25cb;" 
 />
    <glyph glyph-name="triagup" unicode="&#x25b2;" 
 />
    <glyph glyph-name="triagrt" unicode="&#x25ba;" 
 />
    <glyph glyph-name="triagdn" unicode="&#x25bc;" 
 />
    <glyph glyph-name="triaglf" unicode="&#x25c4;" 
 />
    <glyph glyph-name="invbullet" unicode="&#x25d8;" 
 />
    <glyph glyph-name="invcircle" unicode="&#x25d9;" 
 />
    <glyph glyph-name="Rcaron" unicode="&#x158;" 
 />
    <glyph glyph-name="upblock" unicode="&#x2580;" 
 />
    <glyph glyph-name="dnblock" unicode="&#x2584;" 
 />
    <glyph glyph-name="block" unicode="&#x2588;" 
 />
    <glyph glyph-name="lfblock" unicode="&#x258c;" 
 />
    <glyph glyph-name="rtblock" unicode="&#x2590;" 
 />
    <glyph glyph-name="ltshade" unicode="&#x2591;" 
 />
    <glyph glyph-name="shade" unicode="&#x2592;" 
 />
    <glyph glyph-name="dkshade" unicode="&#x2593;" 
 />
    <glyph glyph-name="smileface" unicode="&#x263a;" 
 />
    <glyph glyph-name="invsmileface" unicode="&#x263b;" 
 />
    <glyph glyph-name="sun" unicode="&#x263c;" 
 />
    <glyph glyph-name="female" unicode="&#x2640;" 
 />
    <glyph glyph-name="male" unicode="&#x2642;" 
 />
    <glyph glyph-name="spade" unicode="&#x2660;" 
 />
    <glyph glyph-name="club" unicode="&#x2663;" 
 />
    <glyph glyph-name="heart" unicode="&#x2665;" 
 />
    <glyph glyph-name="diamond" unicode="&#x2666;" 
 />
    <glyph glyph-name="musicalnote" unicode="&#x266a;" 
 />
    <glyph glyph-name="musicalnotedbl" unicode="&#x266b;" 
 />
    <glyph glyph-name="Abreve" unicode="&#x102;" 
 />
    <glyph glyph-name="abreve" unicode="&#x103;" 
 />
    <glyph glyph-name="Aogonek" unicode="&#x104;" 
 />
    <glyph glyph-name="aogonek" unicode="&#x105;" 
 />
    <glyph glyph-name="Dcaron" unicode="&#x10e;" 
 />
    <glyph glyph-name="dcaron" unicode="&#x10f;" 
 />
    <glyph glyph-name="Dcroat" unicode="&#x110;" 
 />
    <glyph glyph-name="Eogonek" unicode="&#x118;" 
 />
    <glyph glyph-name="eogonek" unicode="&#x119;" 
 />
    <glyph glyph-name="Ecaron" unicode="&#x11a;" 
 />
    <glyph glyph-name="ecaron" unicode="&#x11b;" 
 />
    <glyph glyph-name="Lacute" unicode="&#x139;" 
 />
    <glyph glyph-name="lacute" unicode="&#x13a;" 
 />
    <glyph glyph-name="Lcaron" unicode="&#x13d;" 
 />
    <glyph glyph-name="lcaron" unicode="&#x13e;" 
 />
    <glyph glyph-name="Nacute" unicode="&#x143;" 
 />
    <glyph glyph-name="nacute" unicode="&#x144;" 
 />
    <glyph glyph-name="Ncaron" unicode="&#x147;" 
 />
    <glyph glyph-name="ncaron" unicode="&#x148;" 
 />
    <glyph glyph-name="Ohungarumlaut" unicode="&#x150;" 
 />
    <glyph glyph-name="ohungarumlaut" unicode="&#x151;" 
 />
    <glyph glyph-name="Racute" unicode="&#x154;" 
 />
    <glyph glyph-name="racute" unicode="&#x155;" 
 />
    <glyph glyph-name="rcaron" unicode="&#x159;" 
 />
    <glyph glyph-name="Sacute" unicode="&#x15a;" 
 />
    <glyph glyph-name="sacute" unicode="&#x15b;" 
 />
    <glyph glyph-name="Tcommaaccent" unicode="&#x162;" 
 />
    <glyph glyph-name="tcommaaccent" unicode="&#x163;" 
 />
    <glyph glyph-name="Tcaron" unicode="&#x164;" 
 />
    <glyph glyph-name="tcaron" unicode="&#x165;" 
 />
    <glyph glyph-name="Uring" unicode="&#x16e;" 
 />
    <glyph glyph-name="uring" unicode="&#x16f;" 
 />
    <glyph glyph-name="uhungarumlaut" unicode="&#x171;" 
 />
    <glyph glyph-name="Uhungarumlaut" unicode="&#x170;" 
 />
    <glyph glyph-name="Zacute" unicode="&#x179;" 
 />
    <glyph glyph-name="zacute" unicode="&#x17a;" 
 />
    <glyph glyph-name="Zdotaccent" unicode="&#x17b;" 
 />
    <glyph glyph-name="zdotaccent" unicode="&#x17c;" 
 />
    <glyph glyph-name="Ldot" unicode="&#x13f;" 
 />
    <glyph glyph-name="ldot" unicode="&#x140;" 
 />
    <glyph glyph-name="SF100000" unicode="&#x2500;" 
 />
    <glyph glyph-name="SF110000" unicode="&#x2502;" 
 />
    <glyph glyph-name="SF010000" unicode="&#x250c;" 
 />
    <glyph glyph-name="SF030000" unicode="&#x2510;" 
 />
    <glyph glyph-name="SF020000" unicode="&#x2514;" 
 />
    <glyph glyph-name="SF040000" unicode="&#x2518;" 
 />
    <glyph glyph-name="SF080000" unicode="&#x251c;" 
 />
    <glyph glyph-name="SF090000" unicode="&#x2524;" 
 />
    <glyph glyph-name="SF060000" unicode="&#x252c;" 
 />
    <glyph glyph-name="SF070000" unicode="&#x2534;" 
 />
    <glyph glyph-name="SF050000" unicode="&#x253c;" 
 />
    <glyph glyph-name="SF430000" unicode="&#x2550;" 
 />
    <glyph glyph-name="SF240000" unicode="&#x2551;" 
 />
    <glyph glyph-name="SF510000" unicode="&#x2552;" 
 />
    <glyph glyph-name="SF520000" unicode="&#x2553;" 
 />
    <glyph glyph-name="SF390000" unicode="&#x2554;" 
 />
    <glyph glyph-name="SF220000" unicode="&#x2555;" 
 />
    <glyph glyph-name="SF210000" unicode="&#x2556;" 
 />
    <glyph glyph-name="SF250000" unicode="&#x2557;" 
 />
    <glyph glyph-name="SF500000" unicode="&#x2558;" 
 />
    <glyph glyph-name="SF490000" unicode="&#x2559;" 
 />
    <glyph glyph-name="SF380000" unicode="&#x255a;" 
 />
    <glyph glyph-name="SF280000" unicode="&#x255b;" 
 />
    <glyph glyph-name="SF270000" unicode="&#x255c;" 
 />
    <glyph glyph-name="SF260000" unicode="&#x255d;" 
 />
    <glyph glyph-name="SF360000" unicode="&#x255e;" 
 />
    <glyph glyph-name="SF370000" unicode="&#x255f;" 
 />
    <glyph glyph-name="SF420000" unicode="&#x2560;" 
 />
    <glyph glyph-name="SF190000" unicode="&#x2561;" 
 />
    <glyph glyph-name="SF200000" unicode="&#x2562;" 
 />
    <glyph glyph-name="SF230000" unicode="&#x2563;" 
 />
    <glyph glyph-name="SF470000" unicode="&#x2564;" 
 />
    <glyph glyph-name="SF480000" unicode="&#x2565;" 
 />
    <glyph glyph-name="SF410000" unicode="&#x2566;" 
 />
    <glyph glyph-name="SF450000" unicode="&#x2567;" 
 />
    <glyph glyph-name="SF460000" unicode="&#x2568;" 
 />
    <glyph glyph-name="SF400000" unicode="&#x2569;" 
 />
    <glyph glyph-name="SF540000" unicode="&#x256a;" 
 />
    <glyph glyph-name="SF530000" unicode="&#x256b;" 
 />
    <glyph glyph-name="SF440000" unicode="&#x256c;" 
 />
    </font>
</defs>
</svg>
